<svg width="54" height="55" viewBox="0 0 54 55" fill="none" xmlns="http://www.w3.org/2000/svg">
<path d="M39.9095 21.968C40.9416 21.9438 41.9138 22.3314 42.6429 23.0627C43.3484 23.7663 43.7369 24.7046 43.7369 25.7049V27.2578C43.7369 27.7779 44.1584 28.1993 44.6785 28.1993H53.02C53.5401 28.1993 53.9616 27.7779 53.9616 27.2578V16.4352C53.9616 15.915 53.5401 15.4936 53.02 15.4936C52.4999 15.4936 52.0784 15.915 52.0784 16.4352V26.3162H45.6201V25.7049C45.6201 24.2007 45.035 22.7887 43.9746 21.7312C42.879 20.6328 41.4228 20.0479 39.8647 20.0855C36.8405 20.1574 34.3801 22.7204 34.3801 25.7988V26.3163H27.9224V18.917C27.9224 18.3969 27.5009 17.9755 26.9808 17.9755H25.4268C23.3661 17.9755 21.6895 16.299 21.6895 14.2382C21.6895 12.1774 23.366 10.5009 25.4268 10.5009H26.9808C27.5009 10.5009 27.9224 10.0794 27.9224 9.55928V2.16001H50.1202C51.2 2.16001 52.0784 3.03843 52.0784 4.11823V12.041C52.0784 12.5611 52.4999 12.9826 53.02 12.9826C53.5401 12.9826 53.9616 12.5611 53.9616 12.041V4.11823C53.9616 2.00006 52.2383 0.276855 50.1202 0.276855H3.84138C1.72321 0.276855 0 2.00006 0 4.11823V50.3972C0 52.5153 1.72321 54.2385 3.84138 54.2385H11.7642C12.2843 54.2385 12.7057 53.8171 12.7057 53.297C12.7057 52.7768 12.2843 52.3554 11.7642 52.3554H3.84138C2.76158 52.3554 1.88315 51.477 1.88315 50.3972V28.1993H8.34085V28.7193C8.34085 30.2502 8.97095 31.7463 10.0696 32.8241C11.129 33.8635 12.5081 34.4322 13.9636 34.4322C13.9992 34.4322 14.0349 34.4318 14.0707 34.4312C17.1096 34.3729 19.5818 31.8521 19.5818 28.8117V28.1993H26.0395V35.5986C26.0395 36.1187 26.4609 36.5402 26.981 36.5402H28.561C30.6217 36.5402 32.2983 38.2167 32.2983 40.2775C32.2983 42.3383 30.6218 44.0148 28.561 44.0148H26.981C26.4609 44.0148 26.0395 44.4362 26.0395 44.9564V52.3556H16.1584C15.6383 52.3556 15.2169 52.7771 15.2169 53.2972C15.2169 53.8173 15.6383 54.2388 16.1584 54.2388H26.981C27.5012 54.2388 27.9226 53.8173 27.9226 53.2972V45.8979H28.561C31.6602 45.8979 34.1814 43.3766 34.1814 40.2775C34.1814 37.1783 31.6602 34.657 28.561 34.657H27.9226V28.1993H35.3219C35.842 28.1993 36.2635 27.7779 36.2635 27.2578V25.7987C36.2632 23.7343 37.8989 22.0158 39.9095 21.968ZM18.6401 26.3162C18.1199 26.3162 17.6985 26.7376 17.6985 27.2578V28.8117C17.6985 30.8335 16.0547 32.5096 14.0344 32.5483C13.0485 32.5708 12.1097 32.1877 11.3883 31.4799C10.6482 30.7539 10.224 29.7478 10.224 28.7193V27.2578C10.224 26.7376 9.80255 26.3162 9.28243 26.3162H1.88315V4.11823C1.88315 3.03843 2.76158 2.16001 3.84138 2.16001H26.0392V8.61771H25.4268C22.3276 8.61771 19.8064 11.139 19.8064 14.2382C19.8064 17.3373 22.3276 19.8586 25.4268 19.8586H26.0392V26.3163L18.6401 26.3162Z" fill="#224A5B"/>
</svg>
