<svg width="65" height="64" viewBox="0 0 65 64" fill="none" xmlns="http://www.w3.org/2000/svg">
<path d="M39.8138 40.677C48.3944 40.6766 56.2724 35.0262 59.0499 26.9034C60.9841 21.2467 60.3034 14.9027 57.2126 9.78626C56.9447 9.34268 56.368 9.20032 55.9244 9.46827C55.481 9.73635 55.3386 10.313 55.6066 10.7565C56.3725 12.0282 56.98 13.3744 57.4288 14.7955L54.4499 13.5481C53.3344 13.0811 52.0437 13.4264 51.3109 14.3882L49.5757 16.665C49.3719 16.9326 49.0211 17.0393 48.7028 16.9303L47.299 16.4504C46.6277 16.2209 45.9071 16.2663 45.2697 16.5788L43.0915 17.6471C41.0907 18.6285 41.2906 21.8196 43.3968 22.5443L45.3077 23.2018C45.5044 23.2695 45.663 23.4094 45.7545 23.5959L47.1122 26.3645C47.5547 27.2666 48.4535 27.8362 49.458 27.851L52.7253 27.8995C53.0142 27.9038 53.2757 28.0663 53.4078 28.3235L54.822 31.0787C52.7802 33.9396 49.8506 36.2079 46.5848 37.5037C46.4824 37.3525 46.0611 36.6929 46.141 36.4591L46.9218 34.1752C47.1077 33.6313 47.0708 33.0475 46.8176 32.5312L44.3703 27.5409C43.8478 26.4755 42.5558 26.0335 41.4903 26.5563C40.7343 26.952 38.928 27.9603 38.3926 28.0236L30.718 26.9974C30.3979 26.9547 30.0087 26.1532 30.3843 25.9688C31.4498 25.4463 31.8915 24.1542 31.3691 23.0887L29.3467 18.965C29.0835 18.4286 29.9114 17.9221 30.3214 18.0636L32.396 18.7796C32.9998 18.9883 33.6749 18.9464 34.248 18.6651L36.73 17.448C37.926 16.8615 38.4217 15.4115 37.8352 14.2154L36.9979 12.5083C36.4115 11.3124 34.9614 10.8169 33.7654 11.4031C33.5829 11.4929 33.3679 11.4728 33.2051 11.3508L30.2891 9.1713C29.5702 8.63415 28.6196 8.53908 27.8088 8.92311L23.9572 10.7476C26.2479 6.94163 29.9 4.17769 34.0651 2.73124C33.27 4.28627 34.3602 6.76963 35.987 7.31854L37.7639 7.91824C37.9938 7.99592 38.187 8.16555 38.2939 8.38334L39.5872 11.0206C40.0561 11.9766 41.0088 12.5756 42.0735 12.5837L43.3553 12.5936C45.285 12.5936 46.8668 10.5733 45.8846 8.5706C45.6619 8.11676 45.8501 7.56647 46.304 7.34368L50.5394 5.26651C51.5054 5.96165 52.4168 6.75775 53.2577 7.65354C53.6122 8.03145 54.206 8.05021 54.5838 7.69557C54.9616 7.34093 54.9803 6.74711 54.6257 6.36933C48.6008 -0.0492144 38.7244 -1.84681 30.8153 2.03234C20.8689 6.90973 16.6098 19.3139 21.4982 29.2822C25.0322 36.4868 32.2836 40.6771 39.8138 40.677ZM55.0773 27.4666C54.6278 26.5908 53.7374 26.0378 52.7532 26.0233L49.4857 25.9747C49.1909 25.9703 48.9269 25.8031 48.797 25.5382L47.4392 22.7696C47.1277 22.1344 46.5876 21.6576 45.9183 21.4275L44.0074 20.77C43.3891 20.5571 43.3298 19.62 43.9177 19.3318L46.096 18.2635C46.2831 18.1718 46.4948 18.1583 46.6919 18.2257L48.0957 18.7057C49.1795 19.0761 50.3739 18.7132 51.0682 17.8021L52.8033 15.5253C53.0185 15.243 53.3974 15.1413 53.7252 15.2786L57.988 17.0637C58.7336 21.2042 58.0015 25.5425 55.9825 29.23L55.0773 27.4666ZM48.6786 4.08913L45.4776 5.65892C44.0948 6.33718 43.5215 8.01381 44.1998 9.39672C44.4762 9.96039 43.9761 10.7171 43.3697 10.7171L42.0878 10.7072C41.7385 10.7046 41.4257 10.5079 41.2719 10.1941L39.9784 7.55684C39.6529 6.8931 39.0645 6.37684 38.3639 6.14028L36.5869 5.54046C36.0053 5.34419 35.4526 4.13916 35.7356 3.58525L36.4889 2.11178C40.6719 1.34082 44.9711 2.04285 48.6786 4.08913ZM22.6117 13.461L28.612 10.6186C28.793 10.5329 29.0052 10.5542 29.1656 10.6742L32.0815 12.8537C32.8115 13.399 33.773 13.4888 34.5914 13.0877C34.8582 12.9569 35.1822 13.0672 35.313 13.3344L36.1503 15.0416C36.2672 15.3502 36.1851 15.5907 35.9036 15.7632L33.4216 16.9804C33.2938 17.0431 33.1432 17.0526 33.0082 17.0058L30.9336 16.2897C28.929 15.5967 26.6698 17.7681 27.6618 19.7911L29.6842 23.9147C29.7512 24.0514 29.6946 24.217 29.5581 24.284C28.4344 24.9721 28.1061 25.9321 28.5732 27.1641L28.8219 27.6714C29.1393 28.3182 29.755 28.7616 30.469 28.857L38.1434 29.8833C38.5668 29.9401 38.9933 29.8705 39.3766 29.6824L42.3163 28.2408C42.4741 28.181 42.5972 28.223 42.6854 28.3671L45.1327 33.3574C45.3838 33.8689 44.5757 35.3417 44.3654 35.8516C44.1214 36.565 44.3882 37.4773 44.7871 38.1119C43.1431 38.5753 41.4698 38.8007 39.8106 38.8006C32.9749 38.8001 26.3909 34.996 23.1827 28.4558C21.0086 24.0223 20.9382 17.653 22.6117 13.461Z" fill="#224A5B"/>
<path d="M62.9997 41.7068C61.3891 39.7413 58.4044 39.4604 56.4557 41.0914L47.5155 48.5695C47.059 46.4904 45.2024 44.9295 42.9884 44.9295H33.4337C32.0426 44.9295 30.6942 44.487 29.6368 43.6834C25.279 40.3721 18.8951 40.9273 15.1628 44.9295H11.0833V43.1932C11.0833 42.675 10.6632 42.255 10.1451 42.255H0.938201C0.420064 42.255 0 42.675 0 43.1932V63.0618C0 63.5801 0.420064 64 0.938201 64H10.1451C10.6632 64 11.0833 63.5801 11.0833 63.0618V61.348H15.4437L22.3389 63.4211C23.6153 63.8053 24.9394 64 26.2746 64H41.6048C43.3659 64 45.0649 63.3613 46.3887 62.2014L51.9428 57.3364C52.3326 56.995 52.3717 56.4022 52.0304 56.0126C51.689 55.6228 51.0963 55.5834 50.7065 55.925L45.1522 60.7901C44.1707 61.65 42.9109 62.1236 41.605 62.1236H26.2746C25.1228 62.1236 23.9805 61.9556 22.8795 61.6243L15.8518 59.5113C15.8518 59.5113 12.5058 59.4716 11.0833 59.4716V55.1021C11.0833 54.5839 10.6632 54.1639 10.1451 54.1639C9.62694 54.1639 9.20688 54.5839 9.20688 55.1021V62.1236H1.8764V44.1314H9.20688V51.0128C9.20688 51.5311 9.62694 51.951 10.1451 51.951C10.6632 51.951 11.0833 51.5311 11.0833 51.0128V46.8059H15.5816C15.8548 46.8059 16.1144 46.6868 16.2927 46.4799C19.2969 42.9887 24.8262 42.3849 28.5014 45.1773C29.8832 46.2276 31.6349 46.8061 33.4337 46.8061H42.9884C46.6139 46.8061 46.5947 52.3212 42.9887 52.3212H30.9135C30.3953 52.3212 29.9753 52.7411 29.9753 53.2594C29.9753 53.7776 30.3953 54.1976 30.9135 54.1976H42.9887C44.8958 54.1976 46.6766 52.9388 47.3365 51.1656L57.6597 42.5305C59.0579 41.5704 60.3542 41.6925 61.5489 42.8968C62.4483 43.9923 62.3014 45.772 61.2342 46.7056L53.7824 53.2317C53.3926 53.5731 53.3534 54.1659 53.6947 54.5557C54.1241 54.9509 54.5653 54.9802 55.0186 54.6434L62.47 48.1175C64.2977 46.5188 64.5398 43.5827 62.9997 41.7068Z" fill="#224A5B"/>
</svg>
