<svg width="64" height="64" viewBox="0 0 64 64" fill="none" xmlns="http://www.w3.org/2000/svg">
<path d="M31.9941 57.5C31.3037 57.5 30.7441 58.0596 30.7441 58.75C30.7441 59.4404 31.3037 60 31.9941 60H32.0059C32.6963 60 33.25 59.4404 33.25 58.75C33.25 58.0596 32.6846 57.5 31.9941 57.5Z" fill="#224A5B"/>
<path d="M62.75 32.5H53.75V25.27C53.75 24.5796 53.1904 24.02 52.5 24.02C51.8096 24.02 51.25 24.5796 51.25 25.27V32.5H48.75V8C48.75 7.30957 48.1904 6.75 47.5 6.75H22.5503L13.5469 3.93896C14.2427 3.04883 15.3198 2.5 16.5 2.5H47.5C49.5679 2.5 51.25 4.18213 51.25 6.25V14.0195C51.25 14.71 51.8096 15.2695 52.5 15.2695C53.1904 15.2695 53.75 14.71 53.75 14.0195V6.25C53.75 2.80371 50.9463 0 47.5 0H16.5C14.0186 0 11.8076 1.45166 10.8052 3.67285L0.877441 6.77246C0.355469 6.93555 0 7.41895 0 7.96582V16.7344C0 23.0903 4.23926 28.6274 10.25 30.3613V57.75C10.25 61.1963 13.0537 64 16.5 64H47.5C50.9463 64 53.75 61.1963 53.75 57.75V56H62.75C63.4404 56 64 55.4404 64 54.75V33.75C64 33.0596 63.4404 32.5 62.75 32.5ZM61.5 38.8203C59.6226 38.3574 58.1426 36.8774 57.6797 35H61.5V38.8203ZM46.25 32.5H22.75C22.0596 32.5 21.5 33.0596 21.5 33.75V53.5H17.75V28.1318C21.2686 25.522 23.5 21.3442 23.5 16.7344V9.25H46.25V32.5ZM24 49.6797C25.8774 50.1426 27.3574 51.6226 27.8203 53.5H24V49.6797ZM27.8203 35C27.3574 36.8774 25.8774 38.3574 24 38.8203V35H27.8203ZM2.5 16.7344V8.88477L11.75 5.99707L21 8.88477V16.7344C21 22.25 17.1245 27.0176 11.7505 28.1621C11.7495 28.1621 11.7485 28.1621 11.748 28.1616C6.375 27.0166 2.5 22.2495 2.5 16.7344ZM51.25 57.75C51.25 59.8179 49.5679 61.5 47.5 61.5H16.5C14.4321 61.5 12.75 59.8179 12.75 57.75V30.4941C13.6206 30.2769 14.4561 29.9805 15.25 29.6138V54.75C15.25 55.4404 15.8096 56 16.5 56H51.25V57.75ZM47.5 53.5H30.3716C29.8389 50.2412 27.2593 47.6611 24 47.1284V41.3716C27.2588 40.8389 29.8389 38.2588 30.3716 35H55.1284C55.6611 38.2588 58.2412 40.8389 61.5 41.3716V47.1284C58.2412 47.6611 55.6611 50.2407 55.1284 53.5H47.5ZM57.6797 53.5C58.1426 51.6226 59.6226 50.1426 61.5 49.6797V53.5H57.6797Z" fill="#224A5B"/>
<path d="M42.75 38C39.3037 38 36.5 40.8037 36.5 44.25C36.5 47.6963 39.3037 50.5 42.75 50.5C46.1963 50.5 49 47.6963 49 44.25C49 40.8037 46.1963 38 42.75 38ZM42.75 48C40.6821 48 39 46.3179 39 44.25C39 42.1821 40.6821 40.5 42.75 40.5C44.8179 40.5 46.5 42.1821 46.5 44.25C46.5 46.3179 44.8179 48 42.75 48Z" fill="#224A5B"/>
<path d="M16.6689 15.3638C17.1572 14.876 17.1572 14.0845 16.6689 13.5962C16.1807 13.1079 15.3892 13.1079 14.9009 13.5962L10.6201 17.877L8.59912 15.856C8.11084 15.3677 7.31934 15.3677 6.83105 15.856C6.34277 16.3438 6.34277 17.1353 6.83105 17.6235L9.73633 20.5288C9.9707 20.7632 10.2886 20.895 10.6201 20.895C10.9517 20.895 11.2695 20.7632 11.5039 20.5288L16.6689 15.3638Z" fill="#224A5B"/>
<path d="M52.5 18.395C52.1714 18.395 51.8486 18.5288 51.6162 18.7612C51.3838 18.9937 51.25 19.3164 51.25 19.645C51.25 19.9736 51.3838 20.2964 51.6162 20.5288C51.8486 20.7612 52.1714 20.895 52.5 20.895C52.8286 20.895 53.1514 20.7612 53.3838 20.5288C53.6162 20.2964 53.75 19.9736 53.75 19.645C53.75 19.3149 53.6162 18.9937 53.3838 18.7612C53.1514 18.5288 52.8286 18.395 52.5 18.395Z" fill="#224A5B"/>
</svg>
