<svg width="78" height="64" viewBox="0 0 78 64" fill="none" xmlns="http://www.w3.org/2000/svg">
<path d="M8.12326 6.54413C8.7569 6.54413 9.27057 6.03046 9.27057 5.39682C9.27057 4.76318 8.7569 4.24951 8.12326 4.24951C7.48962 4.24951 6.97595 4.76318 6.97595 5.39682C6.97595 6.03046 7.48962 6.54413 8.12326 6.54413Z" fill="#224A5B"/>
<path d="M13.1241 6.54413C13.7578 6.54413 14.2714 6.03046 14.2714 5.39682C14.2714 4.76318 13.7578 4.24951 13.1241 4.24951C12.4905 4.24951 11.9768 4.76318 11.9768 5.39682C11.9768 6.03046 12.4905 6.54413 13.1241 6.54413Z" fill="#224A5B"/>
<path d="M18.125 6.54413C18.7586 6.54413 19.2723 6.03046 19.2723 5.39682C19.2723 4.76318 18.7586 4.24951 18.125 4.24951C17.4913 4.24951 16.9777 4.76318 16.9777 5.39682C16.9777 6.03046 17.4913 6.54413 18.125 6.54413Z" fill="#224A5B"/>
<path d="M47.4695 23.9443C46.8412 23.9443 46.3318 24.4536 46.3318 25.0821C46.3318 25.7105 46.8411 26.2199 47.4695 26.2199H56.3373C56.9656 26.2199 57.475 25.7105 57.475 25.0821C57.475 24.4536 56.9657 23.9443 56.3373 23.9443H47.4695Z" fill="#224A5B"/>
<path d="M65.205 13.8628H47.4695C46.8412 13.8628 46.3318 14.3721 46.3318 15.0006C46.3318 15.629 46.8411 16.1383 47.4695 16.1383H65.205C65.8333 16.1383 66.3427 15.629 66.3427 15.0006C66.3427 14.3721 65.8333 13.8628 65.205 13.8628Z" fill="#224A5B"/>
<path d="M66.3427 20.0413C66.3427 19.4129 65.8334 18.9036 65.205 18.9036H47.4695C46.8412 18.9036 46.3318 19.4129 46.3318 20.0413C46.3318 20.6698 46.8411 21.1791 47.4695 21.1791H65.205C65.8333 21.1791 66.3427 20.6698 66.3427 20.0413Z" fill="#224A5B"/>
<path d="M74.5373 39.6035C74.3389 39.0014 74.0932 38.4098 73.8054 37.8406C74.9536 36.5732 74.9219 34.6107 73.6929 33.3817L72.592 32.2808C71.3674 31.0563 69.3976 31.02 68.1329 32.1682C67.5639 31.8803 66.9721 31.6348 66.3702 31.4362C66.284 29.7281 64.8672 28.3647 63.1379 28.3647H61.5808C59.8515 28.3647 58.4347 29.7281 58.3485 31.4362C57.7465 31.6348 57.1548 31.8803 56.5856 32.1683C55.3179 31.0198 53.3557 31.0518 52.1269 32.2808L51.0258 33.3817C49.7774 34.63 49.7847 36.5987 50.9132 37.8408C50.6258 38.4092 50.3801 39.0008 50.1814 39.6033C48.4459 39.6859 47.1097 41.0509 47.1097 42.778V44.4508C47.1097 46.174 48.4399 47.5366 50.181 47.6251C50.3799 48.2281 50.6256 48.8198 50.9132 49.3883C49.7648 50.6556 49.7966 52.6181 51.0257 53.8471L52.1266 54.9479C53.3418 56.1633 55.2952 56.2222 56.5848 55.0602C57.1542 55.3482 57.7461 55.5941 58.3483 55.7926C58.4346 57.5008 59.8514 58.864 61.5806 58.864H63.1376C64.8669 58.864 66.2837 57.5008 66.3699 55.7926C66.9718 55.5941 67.5636 55.3484 68.1328 55.0605C69.4018 56.2087 71.3686 56.1714 72.5917 54.948L73.6926 53.8471C74.9214 52.6184 74.9536 50.6561 73.8051 49.3883C74.0928 48.8192 74.3385 48.2275 74.537 47.6252C76.2452 47.539 77.6085 46.1222 77.6085 44.3929V42.8361C77.6088 41.1065 76.2455 39.6897 74.5373 39.6035ZM75.3334 44.3928C75.3334 44.9227 74.9023 45.3538 74.3724 45.3538L74.3495 45.354C74.3482 45.354 74.3335 45.354 74.3321 45.3541C73.4545 45.3646 72.6841 45.943 72.4149 46.7932C72.233 47.3686 71.9984 47.9337 71.7177 48.4727C71.3052 49.2643 71.4403 50.2186 72.0549 50.8496C72.061 50.8648 72.7573 51.5645 72.0839 52.2378L70.9829 53.3387C70.3098 54.0122 69.6083 53.3143 69.5931 53.3086C68.9639 52.6951 68.0094 52.5605 67.2179 52.9725C66.6784 53.2535 66.1133 53.4882 65.5385 53.6699C64.688 53.9388 64.1096 54.7095 64.0991 55.5913C64.0926 55.6065 64.0856 56.5884 63.1379 56.5884H61.5808C60.6307 56.5884 60.626 55.6027 60.6194 55.5876C60.6091 54.7096 60.0307 53.939 59.1802 53.6699C58.6052 53.4882 58.0402 53.2535 57.5008 52.9727C57.1953 52.8133 56.8656 52.7357 56.5395 52.7357C55.6258 52.7357 55.1116 53.3278 55.0947 53.3389C54.719 53.7146 54.1112 53.7146 53.7356 53.3389L52.6345 52.238C52.2656 51.869 52.2509 51.2627 52.6389 50.8746C52.6465 50.8589 53.6851 49.7868 53.0009 48.4727C52.7203 47.9343 52.4857 47.3692 52.3035 46.7934C52.0346 45.9428 51.2641 45.3646 50.3925 45.3544C50.3773 45.3485 49.385 45.3568 49.385 44.4508V42.778C49.385 41.8758 50.371 41.8805 50.3863 41.8744C51.2641 41.8643 52.0346 41.2859 52.3035 40.4355C52.4857 39.8598 52.7203 39.2947 53.001 38.7558C53.4133 37.9643 53.2783 37.0099 52.668 36.3836C52.662 36.3685 51.9594 35.666 52.6347 34.9908L53.7357 33.8897C54.4088 33.2167 55.1101 33.9139 55.1253 33.9197C55.7545 34.5334 56.7091 34.6682 57.5007 34.256C58.0402 33.975 58.6052 33.7404 59.1802 33.5586C60.0307 33.2896 60.6091 32.5189 60.6194 31.6366C60.626 31.6214 60.6331 30.64 61.5806 30.64H63.1375C64.0876 30.64 64.0923 31.626 64.0988 31.6413C64.1093 32.5191 64.6877 33.2897 65.5381 33.5586C66.1128 33.7404 66.6779 33.975 67.2174 34.2559C68.009 34.6685 68.9636 34.5334 69.5851 33.9273C69.6002 33.9211 70.304 33.2108 70.9826 33.8897L72.0836 34.9906C72.7579 35.665 72.0592 36.3653 72.0531 36.3804C71.4398 37.0098 71.3048 37.9641 71.7171 38.7555C71.9979 39.2949 72.2326 39.8599 72.4146 40.4353C72.6837 41.2857 73.4543 41.864 74.3263 41.8743L74.372 41.8746C74.9019 41.8746 75.333 42.3058 75.333 42.8358V44.3928H75.3334Z" fill="#224A5B"/>
<path d="M62.3593 35.6123C57.947 35.6123 54.3573 39.202 54.3573 43.6144C54.3573 48.0267 57.947 51.6164 62.3593 51.6164C66.7717 51.6164 70.3614 48.0267 70.3614 43.6144C70.3614 39.2019 66.7717 35.6123 62.3593 35.6123ZM62.3593 49.3409C59.2016 49.3409 56.6327 46.7721 56.6327 43.6142C56.6327 40.4565 59.2016 37.8875 62.3593 37.8875C65.5171 37.8875 68.086 40.4563 68.086 43.6142C68.086 46.7719 65.5171 49.3409 62.3593 49.3409Z" fill="#224A5B"/>
<path d="M45.1874 55.3951H44.2599L43.2687 50.4266H46.6041C47.2324 50.4266 47.7419 49.9173 47.7419 49.2889C47.7419 48.6604 47.2326 48.1511 46.6041 48.1511H41.8933C41.8897 48.1511 41.8862 48.1511 41.8825 48.1511C40.2065 48.1511 5.19145 48.1511 3.58577 48.1511C2.86334 48.1511 2.27552 47.5634 2.27552 46.841V10.7935H69.251V27.1666C69.251 27.795 69.7603 28.3043 70.3888 28.3043C71.0172 28.3043 71.5265 27.795 71.5265 27.1666V3.58562C71.5265 1.60856 69.918 0 67.9409 0H3.58562C1.60856 0 0 1.60856 0 3.58562V46.8412C0 48.8182 1.60856 50.4268 3.58562 50.4268H28.2578L27.2666 55.3953H26.339C23.3019 55.3953 20.831 57.866 20.831 60.9031C20.831 62.6108 22.2204 64 23.9281 64H47.5985C49.3062 64 50.6954 62.6108 50.6954 60.9031C50.6954 57.866 48.2245 55.3951 45.1874 55.3951ZM3.58562 2.27552H67.9408C68.6632 2.27552 69.251 2.86319 69.251 3.58562V8.51818H2.27536V3.58562C2.27536 2.86319 2.86319 2.27552 3.58562 2.27552ZM30.578 50.4266H40.9485L41.9397 55.3951H29.5869L30.578 50.4266ZM47.5985 61.7245H23.9281C23.475 61.7245 23.1064 61.3559 23.1064 60.9029C23.1064 59.1205 24.5565 57.6705 26.339 57.6705H45.1874C46.9699 57.6705 48.42 59.1205 48.42 60.9029C48.42 61.356 48.0514 61.7245 47.5985 61.7245Z" fill="#224A5B"/>
<path d="M42.2739 15.1234C42.2739 14.1527 41.4841 13.3628 40.5132 13.3628H7.59886C6.62799 13.3628 5.83826 14.1527 5.83826 15.1234V24.9596C5.83826 25.9303 6.62799 26.7202 7.59886 26.7202H40.5133C41.4842 26.7202 42.2741 25.9303 42.2741 24.9596V15.1234H42.2739ZM39.9986 24.4448H8.11362V15.6382H39.9986V24.4448Z" fill="#224A5B"/>
<path d="M7.59901 30.8596C6.62814 30.8596 5.83826 31.6495 5.83826 32.6204V42.4565C5.83826 43.4272 6.62814 44.2171 7.59901 44.2171H14.8979C15.8687 44.2171 16.6586 43.4272 16.6586 42.4565V32.6204C16.6586 31.6495 15.8687 30.8596 14.8979 30.8596H7.59901ZM14.3831 41.9418H8.11362V33.135H14.3831V41.9418Z" fill="#224A5B"/>
<path d="M40.5133 30.8596H21.2125C20.2417 30.8596 19.4518 31.6495 19.4518 32.6204V42.4565C19.4518 43.4272 20.2417 44.2171 21.2125 44.2171H40.5133C41.4842 44.2171 42.2741 43.4272 42.2741 42.4565V32.6204C42.2739 31.6495 41.484 30.8596 40.5133 30.8596ZM39.9986 41.9418H21.7271V33.135H39.9986V41.9418Z" fill="#224A5B"/>
</svg>
