<svg width="20" height="20" viewBox="0 0 20 20" fill="none" xmlns="http://www.w3.org/2000/svg">
<g clip-path="url(#clip0_75_2246)">
<path d="M9.0909 7.72738V8.63648H8.18179V10.0001H9.0909V14.091H10.9091V10.0001H12.1182L12.2727 8.63648H10.9091V7.84102C10.9091 7.47285 10.9454 7.27738 11.5136 7.27738H12.2727V5.90918H11.0545C9.6 5.90922 9.0909 6.59102 9.0909 7.72738Z" fill="#888888"/>
<path d="M10 0C4.47715 0 0 4.47715 0 10C0 15.5229 4.47715 20 10 20C15.5229 20 20 15.5229 20 10C20 4.47715 15.5229 0 10 0ZM10 19.0909C4.97922 19.0909 0.909102 15.0208 0.909102 10C0.909102 4.97922 4.97922 0.909102 10 0.909102C15.0208 0.909102 19.0909 4.97922 19.0909 10C19.0909 15.0208 15.0208 19.0909 10 19.0909Z" fill="#888888"/>
</g>
<defs>
<clipPath id="clip0_75_2246">
<rect width="20" height="20" fill="white"/>
</clipPath>
</defs>
</svg>
