<svg width="77" height="64" viewBox="0 0 77 64" fill="none" xmlns="http://www.w3.org/2000/svg">
<path d="M24.7955 7.82557C24.7955 8.44628 25.2986 8.94923 25.9191 8.94923H47.02C47.6406 8.94923 48.1437 8.44628 48.1437 7.82557C48.1437 7.20486 47.6406 6.7019 47.02 6.7019H25.9191C25.2986 6.7019 24.7955 7.20486 24.7955 7.82557Z" fill="#224A5B"/>
<path d="M71.1577 23.8859C67.9548 19.9757 63.6006 17.137 58.7736 15.7834C58.8054 15.6205 58.8223 15.4524 58.8223 15.2804V12.9978C58.8223 11.5521 57.6461 10.3759 56.2004 10.3759H55.391V2.62188C55.391 1.17625 54.2147 0 52.7691 0H44.1973C43.5768 0 43.0737 0.502951 43.0737 1.12366C43.0737 1.74437 43.5768 2.24732 44.1973 2.24732H52.7689C52.9754 2.24732 53.1435 2.41527 53.1435 2.62188V10.3757H48.0927C46.6471 10.3757 45.4708 11.552 45.4708 12.9976V13.4033H2.62188C2.41542 13.4033 2.24732 13.2354 2.24732 13.0288V2.62188C2.24732 2.41527 2.41542 2.24732 2.62188 2.24732H38.9536C39.5741 2.24732 40.0772 1.74437 40.0772 1.12366C40.0772 0.502951 39.5741 0 38.9536 0H2.62188C1.17625 0 0 1.17625 0 2.62188V13.0288C0 14.4744 1.17625 15.6507 2.62188 15.6507H3.76232V19.4778H2.62188C1.17625 19.4778 0 20.6541 0 22.0997V32.5068C0 33.9524 1.17625 35.1286 2.62188 35.1286H3.76232V38.9558H2.62188C1.17625 38.9558 0 40.1321 0 41.5777V51.9848C0 53.4304 1.17625 54.6066 2.62188 54.6066H5.39357C6.01413 54.6066 6.51723 54.1037 6.51723 53.483C6.51723 52.8623 6.01413 52.3593 5.39357 52.3593H2.62188C2.41542 52.3593 2.24732 52.1914 2.24732 51.9848V41.5777C2.24732 41.3711 2.41542 41.2032 2.62188 41.2032H33.3591C33.5013 42.7274 33.8271 44.2219 34.3279 45.6575H25.9191C25.2986 45.6575 24.7955 46.1604 24.7955 46.7812C24.7955 47.4019 25.2986 47.9048 25.9191 47.9048H35.2792C35.5507 48.4449 35.8469 48.9741 36.1713 49.4886C36.8213 50.5195 37.5679 51.479 38.3951 52.3592H10.6373C10.0168 52.3592 9.51366 52.8621 9.51366 53.4828C9.51366 54.1035 10.0168 54.6065 10.6373 54.6065H32.8329C35.0263 57.3936 37.8313 59.7079 40.9787 61.3182C44.4565 63.0978 48.2139 64 52.1466 64C65.6901 64 76.7086 52.9815 76.7086 39.438C76.7086 33.7791 74.7373 28.2559 71.1577 23.8859ZM47.7181 12.9976C47.7181 12.791 47.8862 12.6231 48.0927 12.6231H56.2004C56.4069 12.6231 56.575 12.791 56.575 12.9976V15.2803C56.575 15.4869 56.4069 15.6548 56.2004 15.6548H48.0927C47.8862 15.6548 47.7181 15.4869 47.7181 15.2803V12.9976ZM54.1967 17.9022V20.6775C53.5231 20.6043 52.8392 20.5657 52.1464 20.5657C51.4536 20.5657 50.7699 20.6043 50.0961 20.6775V17.9022H54.1967ZM6.00964 15.6507H45.4997C45.6693 16.8417 46.6402 17.7778 47.8489 17.8899V19.4778H6.00964V15.6507ZM33.281 38.9558H6.00964V35.1286H33.7717C33.4824 36.3626 33.3142 37.6427 33.281 38.9558ZM34.4501 32.8813H2.62188C2.41542 32.8813 2.24732 32.7134 2.24732 32.5068V22.0997C2.24732 21.8931 2.41542 21.7252 2.62188 21.7252H45.6341C43.0105 22.6929 40.6587 24.2272 38.729 26.1797H25.9191C25.2986 26.1797 24.7955 26.6826 24.7955 27.3033C24.7955 27.924 25.2986 28.427 25.9191 28.427H36.8291C35.8481 29.7878 35.044 31.2838 34.4501 32.8813ZM52.1466 61.7528C48.5733 61.7528 45.1604 60.9335 42.0025 59.3176C39.6832 58.131 37.5691 56.5227 35.7888 54.6066H40.9186C41.793 55.2545 42.7241 55.8286 43.7044 56.3199C44.2594 56.5976 44.9343 56.3732 45.2124 55.8184C45.4903 55.2636 45.2659 54.5884 44.7111 54.3106C39.0429 51.4709 35.5218 45.7721 35.5218 39.4381C35.5218 30.271 42.9796 22.8132 52.1466 22.8132C61.3135 22.8132 68.7714 30.271 68.7714 39.4381C68.7714 48.6051 61.3135 56.0629 52.1466 56.0629C51.224 56.0629 50.2931 55.9854 49.38 55.8326C48.7667 55.7312 48.1886 56.1434 48.0863 56.7555C47.9838 57.3675 48.397 57.9468 49.0092 58.0492C50.0446 58.2224 51.1002 58.3102 52.1466 58.3102C62.5527 58.3102 71.0187 49.8443 71.0187 39.4381C71.0187 30.5099 64.7866 23.0103 56.4442 21.06V17.8899C56.7104 17.8652 56.9644 17.7991 57.2017 17.7007C61.9698 18.8062 66.2962 21.4973 69.4193 25.3099C72.6706 29.2795 74.4613 34.2968 74.4613 39.4381C74.4613 51.7424 64.451 61.7528 52.1466 61.7528Z" fill="#224A5B"/>
<path d="M60.515 46.6849C60.7116 46.8232 60.937 46.8895 61.1604 46.8895C61.5138 46.8895 61.8617 46.7232 62.0805 46.4121C62.3963 45.9629 62.6841 45.4883 62.9358 45.001C63.2206 44.4496 63.0046 43.7718 62.4532 43.4871C61.9019 43.2018 61.2239 43.4183 60.9391 43.9697C60.7342 44.3665 60.4997 44.7532 60.2423 45.1194C59.8853 45.6268 60.0074 46.3279 60.515 46.6849Z" fill="#224A5B"/>
<path d="M53.5568 49.2279C53.1162 49.2909 52.6649 49.3244 52.2156 49.3274C51.5951 49.3318 51.0954 49.8383 51.0998 50.4589C51.1041 51.0769 51.6063 51.5747 52.2233 51.5747H52.2312C52.7812 51.571 53.3342 51.5298 53.8745 51.4528C54.4889 51.365 54.9157 50.7958 54.8281 50.1817C54.7404 49.5673 54.1712 49.1404 53.5568 49.2279Z" fill="#224A5B"/>
<path d="M62.9083 42.0445C62.9595 42.0515 63.0105 42.0548 63.0606 42.0548C63.6141 42.0548 64.0964 41.6458 64.1728 41.082C64.2462 40.541 64.2833 39.9879 64.2833 39.4379C64.2833 38.8172 63.7802 38.3142 63.1597 38.3142C62.5391 38.3142 62.036 38.8172 62.036 39.4379C62.036 39.8872 62.0056 40.3387 61.9458 40.78C61.8624 41.395 62.2934 41.961 62.9083 42.0445Z" fill="#224A5B"/>
<path d="M56.2664 49.7166C56.4674 50.0992 56.8579 50.318 57.2621 50.318C57.4383 50.318 57.617 50.2765 57.7836 50.1888C58.2687 49.934 58.7411 49.6432 59.1876 49.3248C59.6929 48.9645 59.8103 48.2627 59.4499 47.7574C59.0896 47.2522 58.3878 47.1347 57.8826 47.495C57.5187 47.7547 57.1337 47.9916 56.7385 48.1992C56.1892 48.4879 55.9778 49.1672 56.2664 49.7166Z" fill="#224A5B"/>
<path d="M44.1294 45.2299C43.7655 44.7274 43.0633 44.6149 42.5604 44.9785C42.0577 45.3424 41.945 46.0447 42.309 46.5475C42.6302 46.9913 42.985 47.4176 43.3636 47.8144C43.5844 48.0459 43.8803 48.1625 44.1768 48.1625C44.4555 48.1625 44.7346 48.0594 44.9521 47.8519C45.4013 47.4237 45.4181 46.7125 44.9897 46.2632C44.6809 45.9394 44.3915 45.5918 44.1294 45.2299Z" fill="#224A5B"/>
<path d="M43.7089 30.7137C43.3148 31.0952 42.943 31.5067 42.6041 31.9373C42.2203 32.425 42.3045 33.1316 42.7922 33.5153C42.9982 33.6774 43.2431 33.7559 43.4864 33.7559C43.8191 33.7559 44.1485 33.6089 44.3701 33.3272C44.6465 32.9759 44.9498 32.6401 45.2716 32.329C45.7176 31.8975 45.7294 31.1861 45.2979 30.7401C44.8663 30.2941 44.1549 30.2823 43.7089 30.7137Z" fill="#224A5B"/>
<path d="M48.5452 50.9729C49.0108 50.9729 49.4464 50.6811 49.607 50.2162C49.8098 49.6298 49.4988 48.9897 48.9124 48.787C48.4903 48.6409 48.0743 48.4644 47.6756 48.2619C47.1226 47.981 46.446 48.2017 46.165 48.7548C45.884 49.3081 46.1047 49.9845 46.658 50.2655C47.1479 50.5143 47.6593 50.7314 48.178 50.9109C48.2995 50.953 48.4234 50.9729 48.5452 50.9729Z" fill="#224A5B"/>
<path d="M41.1186 38.4597C41.1899 38.4733 41.261 38.4799 41.3311 38.4799C41.8595 38.4799 42.3304 38.1055 42.4335 37.5673C42.5175 37.128 42.6326 36.6912 42.7755 36.2687C42.9743 35.6808 42.6588 35.043 42.0709 34.8443C41.4828 34.6452 40.8452 34.9609 40.6465 35.5488C40.471 36.0682 40.3295 36.6052 40.2263 37.1447C40.1094 37.7543 40.509 38.3431 41.1186 38.4597Z" fill="#224A5B"/>
<path d="M47.5674 30.5433C47.7238 30.5433 47.8828 30.5103 48.0344 30.4409C48.4409 30.2549 48.8635 30.0953 49.2907 29.9667C49.8849 29.788 50.2217 29.1613 50.0429 28.567C49.864 27.9725 49.2372 27.6355 48.6432 27.8147C48.118 27.9728 47.5984 28.1687 47.0989 28.3975C46.5347 28.656 46.2868 29.3228 46.5451 29.8869C46.734 30.2998 47.1413 30.5433 47.5674 30.5433Z" fill="#224A5B"/>
<path d="M42.6554 42.227C42.5298 41.7991 42.4326 41.3576 42.3664 40.9153C42.2745 40.3015 41.7022 39.8769 41.0889 39.9704C40.475 40.0621 40.0521 40.6343 40.1438 41.2479C40.2251 41.7912 40.3445 42.3334 40.4989 42.8596C40.6425 43.3495 41.0906 43.6673 41.5765 43.6673C41.6812 43.6673 41.7878 43.6524 41.8932 43.6216C42.4889 43.4469 42.8301 42.8226 42.6554 42.227Z" fill="#224A5B"/>
<path d="M47.8371 39.4382C47.8371 41.8142 49.7702 43.7475 52.1464 43.7475C54.5226 43.7475 56.4557 41.8144 56.4557 39.4382C56.4557 37.4508 55.103 35.7742 53.2701 35.2786V26.9301C53.2701 26.3093 52.767 25.8064 52.1464 25.8064C51.5259 25.8064 51.0228 26.3093 51.0228 26.9301V35.2786C49.19 35.774 47.8371 37.4507 47.8371 39.4382ZM52.1466 37.3762C53.2836 37.3762 54.2086 38.3012 54.2086 39.4382C54.2086 40.5752 53.2836 41.5002 52.1466 41.5002C51.0096 41.5002 50.0846 40.5752 50.0846 39.4382C50.0846 38.3012 51.0096 37.3762 52.1466 37.3762Z" fill="#224A5B"/>
<path d="M6.06775 4.49463C5.20029 4.49463 4.49463 5.20029 4.49463 6.06775V9.58302C4.49463 10.4505 5.20029 11.1561 6.06775 11.1561H9.58302C10.4505 11.1561 11.1561 10.4505 11.1561 9.58302V6.06775C11.1561 5.20029 10.4505 4.49463 9.58302 4.49463H6.06775ZM8.90882 8.90882H6.74195V6.74195H8.90882V8.90882Z" fill="#224A5B"/>
<path d="M14.6825 4.49463C13.815 4.49463 13.1094 5.20029 13.1094 6.06775V9.58302C13.1094 10.4505 13.815 11.1561 14.6825 11.1561H18.1978C19.0652 11.1561 19.7709 10.4505 19.7709 9.58302V6.06775C19.7709 5.20029 19.0652 4.49463 18.1978 4.49463H14.6825ZM17.5236 8.90882H15.3567V6.74195H17.5236V8.90882Z" fill="#224A5B"/>
<path d="M9.58302 23.9724H6.06775C5.20029 23.9724 4.49463 24.6781 4.49463 25.5455V29.0608C4.49463 29.9283 5.20029 30.6339 6.06775 30.6339H9.58302C10.4505 30.6339 11.1561 29.9283 11.1561 29.0608V25.5455C11.1561 24.6781 10.4503 23.9724 9.58302 23.9724ZM8.90882 28.3866H6.74195V26.2197H8.90882V28.3866Z" fill="#224A5B"/>
<path d="M18.1978 23.9724H14.6825C13.815 23.9724 13.1094 24.6781 13.1094 25.5455V29.0608C13.1094 29.9283 13.815 30.6339 14.6825 30.6339H18.1978C19.0652 30.6339 19.7709 29.9283 19.7709 29.0608V25.5455C19.7709 24.6781 19.0651 23.9724 18.1978 23.9724ZM17.5236 28.3866H15.3567V26.2197H17.5236V28.3866Z" fill="#224A5B"/>
<path d="M11.1561 48.5388V45.0236C11.1561 44.1561 10.4505 43.4504 9.58302 43.4504H6.06775C5.20029 43.4504 4.49463 44.1561 4.49463 45.0236V48.5388C4.49463 49.4063 5.20029 50.112 6.06775 50.112H9.58302C10.4503 50.112 11.1561 49.4063 11.1561 48.5388ZM8.90882 47.8646H6.74195V45.6978H8.90882V47.8646Z" fill="#224A5B"/>
<path d="M18.1978 50.112C19.0652 50.112 19.7709 49.4063 19.7709 48.5388V45.0236C19.7709 44.1561 19.0652 43.4504 18.1978 43.4504H14.6825C13.815 43.4504 13.1094 44.1561 13.1094 45.0236V48.5388C13.1094 49.4063 13.815 50.112 14.6825 50.112H18.1978ZM15.3567 45.6978H17.5236V47.8646H15.3567V45.6978Z" fill="#224A5B"/>
</svg>
