<svg width="19" height="14" viewBox="0 0 19 14" fill="none" xmlns="http://www.w3.org/2000/svg">
<path d="M0.863644 6.13575H16.0517L11.4804 1.50438C11.3979 1.42366 11.3321 1.32711 11.2869 1.22036C11.2416 1.1136 11.2178 0.998785 11.2168 0.882603C11.2158 0.766421 11.2377 0.651202 11.2811 0.543667C11.3245 0.436133 11.3886 0.338437 11.4697 0.256281C11.5508 0.174125 11.6472 0.109154 11.7534 0.065158C11.8595 0.0211623 11.9732 -0.000976552 12.0879 3.30374e-05C12.2026 0.00104263 12.3159 0.0251806 12.4213 0.0710385C12.5267 0.116896 12.622 0.183556 12.7016 0.267127L18.7471 6.39213C18.909 6.55621 19 6.77873 19 7.01075C19 7.24277 18.909 7.46529 18.7471 7.62938L12.7016 13.7544C12.5387 13.9138 12.3206 14.002 12.0941 14C11.8677 13.998 11.6511 13.906 11.491 13.7437C11.3308 13.5815 11.24 13.362 11.238 13.1326C11.2361 12.9032 11.3231 12.6822 11.4804 12.5171L16.0517 7.88575H0.863644C0.634592 7.88575 0.414919 7.79356 0.252954 7.62947C0.0909901 7.46538 0 7.24282 0 7.01075C0 6.77869 0.0909901 6.55613 0.252954 6.39203C0.414919 6.22794 0.634592 6.13575 0.863644 6.13575Z" fill="white"/>
</svg>
