<svg width="20" height="20" viewBox="0 0 20 20" fill="none" xmlns="http://www.w3.org/2000/svg">
<g clip-path="url(#clip0_75_2252)">
<path d="M7.27275 8.18173C7.77483 8.18173 8.18185 7.77471 8.18185 7.27263C8.18185 6.77054 7.77483 6.36353 7.27275 6.36353C6.77067 6.36353 6.36365 6.77054 6.36365 7.27263C6.36365 7.77471 6.77067 8.18173 7.27275 8.18173Z" fill="#888888"/>
<path d="M8.18181 8.63647H6.36365V13.6365H8.18181V8.63647Z" fill="#888888"/>
<path d="M10 0C4.47715 0 0 4.47715 0 10C0 15.5229 4.47715 20 10 20C15.5229 20 20 15.5229 20 10C20 4.47715 15.5229 0 10 0ZM10 19.0909C4.97922 19.0909 0.909102 15.0208 0.909102 10C0.909102 4.97922 4.97922 0.909102 10 0.909102C15.0208 0.909102 19.0909 4.97922 19.0909 10C19.0909 15.0208 15.0208 19.0909 10 19.0909Z" fill="#888888"/>
<path d="M12.4364 8.63647C11.0727 8.63647 10.9091 9.44558 10.9091 9.44558V8.63647H9.09094V13.6365H10.9091V10.9092C10.9091 10.9092 10.9091 10.0001 11.6818 10.0001C12.1364 10.0001 12.2727 10.4046 12.2727 10.9092V13.6365H14.0909V10.9092C14.0909 9.48647 13.4727 8.63647 12.4364 8.63647Z" fill="#888888"/>
</g>
<defs>
<clipPath id="clip0_75_2252">
<rect width="20" height="20" fill="white"/>
</clipPath>
</defs>
</svg>
