<svg width="705" height="134" viewBox="0 0 705 134" fill="none" xmlns="http://www.w3.org/2000/svg">
<path d="M212.62 64.745V68.485C212.62 70.355 212.252 72.14 211.515 73.84C210.835 75.4833 209.872 76.9567 208.625 78.26C207.378 79.5633 205.905 80.6117 204.205 81.405C202.562 82.1417 200.777 82.51 198.85 82.51C197.207 82.51 195.535 82.2833 193.835 81.83C192.135 81.3767 190.605 80.5833 189.245 79.45C187.885 78.3167 186.752 76.8717 185.845 75.115C184.995 73.3017 184.57 71.0067 184.57 68.23V34.91C184.57 32.9267 184.91 31.085 185.59 29.385C186.27 27.685 187.233 26.2117 188.48 24.965C189.727 23.7183 191.2 22.755 192.9 22.075C194.657 21.3383 196.583 20.97 198.68 20.97C202.76 20.97 206.075 22.3017 208.625 24.965C209.872 26.2683 210.835 27.8267 211.515 29.64C212.252 31.3967 212.62 33.3233 212.62 35.42V38.82H203.95V35.93C203.95 34.23 203.468 32.7567 202.505 31.51C201.542 30.2633 200.238 29.64 198.595 29.64C196.442 29.64 194.997 30.32 194.26 31.68C193.58 32.9833 193.24 34.655 193.24 36.695V67.635C193.24 69.3917 193.608 70.865 194.345 72.055C195.138 73.245 196.527 73.84 198.51 73.84C199.077 73.84 199.672 73.755 200.295 73.585C200.975 73.3583 201.598 73.0183 202.165 72.565C202.675 72.1117 203.1 71.4883 203.44 70.695C203.78 69.9017 203.95 68.91 203.95 67.72V64.745H212.62ZM219.694 82V21.48H228.364V47.405H239.074V21.48H247.744V82H239.074V55.055H228.364V82H219.694ZM255.886 82V21.48H281.726V29.64H264.556V47.405H279.516V55.565H264.556V73.33H281.726V82H255.886ZM287.346 82V21.48H295.676L306.811 53.525H306.981L318.031 21.48H326.446V82H317.776V45.195H317.606L309.021 71.205H304.686L296.186 45.195H296.016V82H287.346ZM532.8 82V21.48H545.465C548.241 21.48 550.593 21.905 552.52 22.755C554.503 23.605 556.118 24.7383 557.365 26.155C558.611 27.5717 559.49 29.215 560 31.085C560.566 32.8983 560.85 34.7967 560.85 36.78V38.99C560.85 40.6333 560.708 42.0217 560.425 43.155C560.198 44.2883 559.83 45.28 559.32 46.13C558.356 47.7167 556.883 49.0767 554.9 50.21C556.94 51.1733 558.441 52.59 559.405 54.46C560.368 56.33 560.85 58.88 560.85 62.11V65.51C560.85 70.8367 559.546 74.9167 556.94 77.75C554.39 80.5833 550.281 82 544.615 82H532.8ZM541.47 53.95V73.33H545.21C546.966 73.33 548.326 73.075 549.29 72.565C550.31 72.055 551.075 71.3467 551.585 70.44C552.095 69.5333 552.406 68.4567 552.52 67.21C552.633 65.9633 552.69 64.6033 552.69 63.13C552.69 61.6 552.605 60.2683 552.435 59.135C552.265 58.0017 551.925 57.0383 551.415 56.245C550.848 55.4517 550.083 54.885 549.12 54.545C548.156 54.1483 546.881 53.95 545.295 53.95H541.47ZM541.47 29.64V46.3H545.38C548.27 46.3 550.196 45.5917 551.16 44.175C552.18 42.7017 552.69 40.5767 552.69 37.8C552.69 35.08 552.123 33.04 550.99 31.68C549.913 30.32 547.93 29.64 545.04 29.64H541.47ZM597.041 21.48V68.4C597.041 70.3833 596.673 72.225 595.936 73.925C595.256 75.5683 594.264 77.0417 592.961 78.345C591.658 79.6483 590.156 80.6683 588.456 81.405C586.756 82.1417 584.943 82.51 583.016 82.51C581.089 82.51 579.276 82.1417 577.576 81.405C575.933 80.6683 574.459 79.6483 573.156 78.345C571.853 77.0417 570.833 75.5683 570.096 73.925C569.359 72.225 568.991 70.3833 568.991 68.4V21.48H577.661V67.55C577.661 69.7033 578.171 71.29 579.191 72.31C580.211 73.33 581.486 73.84 583.016 73.84C584.546 73.84 585.821 73.33 586.841 72.31C587.861 71.29 588.371 69.7033 588.371 67.55V21.48H597.041ZM605.183 82V21.48H618.018C623.004 21.48 626.773 22.84 629.323 25.56C631.929 28.28 633.233 32.1333 633.233 37.12V65.425C633.233 71.0917 631.844 75.285 629.068 78.005C626.348 80.6683 622.409 82 617.253 82H605.183ZM613.853 29.64V73.84H617.848C620.284 73.84 622.013 73.245 623.033 72.055C624.053 70.8083 624.563 68.8817 624.563 66.275V37.12C624.563 34.74 624.081 32.8983 623.118 31.595C622.154 30.2917 620.398 29.64 617.848 29.64H613.853ZM641.374 82V21.48H654.209C659.196 21.48 662.964 22.84 665.514 25.56C668.121 28.28 669.424 32.1333 669.424 37.12V65.425C669.424 71.0917 668.036 75.285 665.259 78.005C662.539 80.6683 658.601 82 653.444 82H641.374ZM650.044 29.64V73.84H654.039C656.476 73.84 658.204 73.245 659.224 72.055C660.244 70.8083 660.754 68.8817 660.754 66.275V37.12C660.754 34.74 660.272 32.8983 659.309 31.595C658.346 30.2917 656.589 29.64 654.039 29.64H650.044ZM684.146 82V56.415L672.246 21.48H681.426L688.396 45.535H688.566L695.536 21.48H704.716L692.816 56.415V82H684.146Z" fill="#224A5B"/>
<path d="M356.044 82V29.64H346.014V21.48H374.744V29.64H364.714V82H356.044ZM387.241 29.64V48.51H392.171C393.701 48.51 394.92 48.3117 395.826 47.915C396.733 47.4617 397.441 46.8383 397.951 46.045C398.405 45.2517 398.716 44.2883 398.886 43.155C399.056 41.965 399.141 40.605 399.141 39.075C399.141 37.545 399.056 36.2133 398.886 35.08C398.716 33.89 398.376 32.87 397.866 32.02C396.79 30.4333 394.75 29.64 391.746 29.64H387.241ZM378.571 82V21.48H392.511C402.711 21.48 407.811 27.4017 407.811 39.245C407.811 42.815 407.245 45.8467 406.111 48.34C405.035 50.8333 403.108 52.845 400.331 54.375L409.681 82H400.501L392.426 56.16H387.241V82H378.571ZM432.273 60.835L428.023 38.905H427.853L423.603 60.835H432.273ZM410.853 82L424.368 21.48H431.593L445.108 82H436.438L433.888 68.995H422.073L419.523 82H410.853ZM449.377 82V21.48H462.212C467.199 21.48 470.967 22.84 473.517 25.56C476.124 28.28 477.427 32.1333 477.427 37.12V65.425C477.427 71.0917 476.039 75.285 473.262 78.005C470.542 80.6683 466.604 82 461.447 82H449.377ZM458.047 29.64V73.84H462.042C464.479 73.84 466.207 73.245 467.227 72.055C468.247 70.8083 468.757 68.8817 468.757 66.275V37.12C468.757 34.74 468.275 32.8983 467.312 31.595C466.349 30.2917 464.592 29.64 462.042 29.64H458.047ZM485.568 82V21.48H511.408V29.64H494.238V47.405H509.198V55.565H494.238V73.33H511.408V82H485.568Z" fill="#61BC09"/>
<path d="M195.77 115.472C195.77 115.054 195.721 114.684 195.622 114.364C195.524 114.036 195.352 113.741 195.105 113.479C194.859 113.216 194.515 112.966 194.072 112.728C193.629 112.49 193.067 112.248 192.386 112.002C191.648 111.739 190.979 111.448 190.38 111.128C189.782 110.8 189.269 110.427 188.842 110.009C188.424 109.59 188.1 109.11 187.87 108.569C187.641 108.028 187.526 107.408 187.526 106.711C187.526 106.014 187.645 105.37 187.883 104.779C188.129 104.188 188.473 103.676 188.916 103.241C189.367 102.798 189.909 102.454 190.54 102.207C191.172 101.961 191.878 101.838 192.657 101.838C193.822 101.838 194.802 102.097 195.598 102.613C196.402 103.122 197.009 103.791 197.419 104.619C197.829 105.439 198.034 106.317 198.034 107.252H195.77C195.77 106.58 195.659 105.985 195.438 105.468C195.224 104.943 194.888 104.533 194.429 104.238C193.978 103.934 193.387 103.782 192.657 103.782C192.001 103.782 191.459 103.91 191.033 104.164C190.614 104.418 190.303 104.763 190.097 105.197C189.901 105.632 189.802 106.129 189.802 106.686C189.802 107.064 189.868 107.408 189.999 107.72C190.13 108.023 190.331 108.306 190.602 108.569C190.881 108.831 191.225 109.073 191.636 109.295C192.054 109.516 192.546 109.73 193.112 109.935C193.99 110.222 194.74 110.542 195.364 110.895C195.987 111.247 196.496 111.645 196.89 112.088C197.283 112.523 197.571 113.019 197.751 113.577C197.94 114.127 198.034 114.75 198.034 115.447C198.034 116.177 197.911 116.838 197.665 117.428C197.427 118.019 197.078 118.523 196.619 118.942C196.16 119.36 195.606 119.684 194.958 119.914C194.31 120.135 193.58 120.246 192.768 120.246C192.062 120.246 191.369 120.131 190.688 119.902C190.015 119.672 189.404 119.327 188.855 118.868C188.305 118.409 187.866 117.843 187.538 117.17C187.21 116.489 187.046 115.702 187.046 114.807H189.31C189.31 115.423 189.4 115.952 189.581 116.395C189.761 116.829 190.011 117.19 190.331 117.478C190.651 117.765 191.016 117.978 191.426 118.117C191.845 118.249 192.292 118.314 192.768 118.314C193.424 118.314 193.973 118.199 194.416 117.97C194.868 117.74 195.204 117.412 195.425 116.985C195.655 116.559 195.77 116.054 195.77 115.472ZM207.435 116.924V106.686H209.613V120H207.546L207.435 116.924ZM207.841 114.118L208.702 114.094C208.702 114.98 208.624 115.8 208.468 116.555C208.321 117.301 208.075 117.949 207.73 118.499C207.394 119.048 206.947 119.479 206.389 119.791C205.831 120.094 205.146 120.246 204.334 120.246C203.784 120.246 203.284 120.152 202.833 119.963C202.39 119.774 202.004 119.483 201.676 119.089C201.356 118.696 201.106 118.183 200.926 117.551C200.753 116.92 200.667 116.161 200.667 115.275V106.686H202.833V115.3C202.833 115.898 202.886 116.395 202.993 116.788C203.099 117.174 203.243 117.482 203.423 117.711C203.604 117.933 203.805 118.089 204.026 118.179C204.248 118.269 204.473 118.314 204.703 118.314C205.474 118.314 206.089 118.13 206.549 117.761C207.008 117.383 207.336 116.879 207.533 116.247C207.738 115.607 207.841 114.898 207.841 114.118ZM215.064 108.778V120H212.886V106.686H214.99L215.064 108.778ZM218.374 106.612L218.386 108.729C218.205 108.688 218.041 108.663 217.894 108.655C217.754 108.639 217.59 108.63 217.402 108.63C216.991 108.63 216.63 108.712 216.319 108.877C216.015 109.041 215.753 109.27 215.531 109.566C215.31 109.861 215.133 110.214 215.002 110.624C214.871 111.026 214.781 111.469 214.731 111.953L214.165 112.322C214.165 111.518 214.227 110.763 214.35 110.058C214.481 109.352 214.682 108.729 214.953 108.187C215.224 107.638 215.568 107.211 215.987 106.908C216.413 106.596 216.922 106.44 217.512 106.44C217.644 106.44 217.804 106.461 217.992 106.502C218.189 106.535 218.316 106.571 218.374 106.612ZM222.742 109.246V125.119H220.564V106.686H222.545L222.742 109.246ZM230.186 112.74V113.983C230.186 115.033 230.088 115.952 229.891 116.739C229.702 117.519 229.419 118.171 229.042 118.696C228.673 119.212 228.217 119.602 227.676 119.865C227.135 120.119 226.515 120.246 225.818 120.246C225.121 120.246 224.514 120.115 223.997 119.852C223.488 119.582 223.058 119.192 222.705 118.683C222.36 118.175 222.086 117.564 221.88 116.85C221.684 116.128 221.548 115.32 221.474 114.426V112.531C221.548 111.588 221.684 110.743 221.88 109.996C222.077 109.242 222.348 108.602 222.693 108.077C223.045 107.544 223.476 107.137 223.985 106.859C224.501 106.58 225.104 106.44 225.793 106.44C226.507 106.44 227.135 106.563 227.676 106.809C228.226 107.055 228.685 107.437 229.054 107.954C229.431 108.462 229.714 109.114 229.903 109.91C230.092 110.698 230.186 111.641 230.186 112.74ZM228.008 113.983V112.74C228.008 112.002 227.951 111.358 227.836 110.808C227.729 110.259 227.557 109.804 227.319 109.443C227.081 109.082 226.782 108.811 226.421 108.63C226.06 108.45 225.625 108.36 225.117 108.36C224.682 108.36 224.296 108.45 223.96 108.63C223.632 108.811 223.349 109.057 223.111 109.369C222.873 109.672 222.676 110.021 222.52 110.415C222.364 110.8 222.25 111.202 222.176 111.621V115.349C222.315 115.874 222.5 116.37 222.729 116.838C222.959 117.297 223.267 117.67 223.652 117.957C224.046 118.245 224.542 118.388 225.141 118.388C225.642 118.388 226.072 118.298 226.433 118.117C226.794 117.937 227.089 117.666 227.319 117.305C227.557 116.936 227.729 116.477 227.836 115.927C227.951 115.369 228.008 114.721 228.008 113.983ZM235.329 101.1V120H233.164V101.1H235.329ZM245.505 116.924V106.686H247.683V120H245.616L245.505 116.924ZM245.912 114.118L246.773 114.094C246.773 114.98 246.695 115.8 246.539 116.555C246.391 117.301 246.145 117.949 245.801 118.499C245.464 119.048 245.017 119.479 244.46 119.791C243.902 120.094 243.217 120.246 242.405 120.246C241.855 120.246 241.355 120.152 240.904 119.963C240.461 119.774 240.075 119.483 239.747 119.089C239.427 118.696 239.177 118.183 238.996 117.551C238.824 116.92 238.738 116.161 238.738 115.275V106.686H240.904V115.3C240.904 115.898 240.957 116.395 241.063 116.788C241.17 117.174 241.314 117.482 241.494 117.711C241.675 117.933 241.876 118.089 242.097 118.179C242.319 118.269 242.544 118.314 242.774 118.314C243.545 118.314 244.16 118.13 244.62 117.761C245.079 117.383 245.407 116.879 245.604 116.247C245.809 115.607 245.912 114.898 245.912 114.118ZM257.416 116.592C257.416 116.255 257.334 115.96 257.17 115.706C257.006 115.451 256.736 115.205 256.358 114.967C255.989 114.729 255.489 114.475 254.857 114.204C254.242 113.95 253.688 113.7 253.196 113.454C252.712 113.2 252.302 112.925 251.965 112.629C251.629 112.334 251.371 111.994 251.19 111.608C251.018 111.214 250.932 110.751 250.932 110.218C250.932 109.685 251.03 109.192 251.227 108.741C251.432 108.282 251.719 107.88 252.088 107.535C252.458 107.191 252.901 106.924 253.417 106.736C253.934 106.539 254.513 106.44 255.152 106.44C256.063 106.44 256.838 106.617 257.478 106.969C258.118 107.322 258.606 107.806 258.942 108.421C259.287 109.028 259.459 109.713 259.459 110.476H257.293C257.293 110.107 257.211 109.758 257.047 109.43C256.883 109.102 256.641 108.836 256.321 108.63C256.001 108.417 255.612 108.311 255.152 108.311C254.668 108.311 254.275 108.397 253.971 108.569C253.668 108.741 253.446 108.967 253.307 109.246C253.175 109.516 253.11 109.816 253.11 110.144C253.11 110.39 253.143 110.603 253.208 110.784C253.282 110.956 253.405 111.12 253.577 111.276C253.75 111.424 253.983 111.579 254.279 111.744C254.582 111.899 254.968 112.08 255.435 112.285C256.338 112.638 257.096 112.995 257.712 113.355C258.327 113.716 258.795 114.139 259.114 114.623C259.434 115.107 259.594 115.706 259.594 116.419C259.594 117.002 259.488 117.531 259.274 118.007C259.069 118.474 258.774 118.876 258.388 119.212C258.003 119.549 257.539 119.807 256.998 119.988C256.465 120.16 255.866 120.246 255.202 120.246C254.201 120.246 253.352 120.049 252.654 119.655C251.965 119.254 251.44 118.733 251.079 118.093C250.727 117.445 250.55 116.752 250.55 116.013H252.728C252.753 116.637 252.892 117.121 253.147 117.465C253.409 117.81 253.725 118.048 254.094 118.179C254.463 118.31 254.832 118.376 255.202 118.376C255.686 118.376 256.092 118.306 256.42 118.167C256.748 118.019 256.994 117.81 257.158 117.539C257.33 117.268 257.416 116.953 257.416 116.592ZM273.093 106.686V108.434H266.879V106.686H273.093ZM268.909 103.45H271.087V116.702C271.087 117.154 271.14 117.494 271.247 117.724C271.362 117.953 271.505 118.105 271.678 118.179C271.85 118.253 272.034 118.29 272.231 118.29C272.379 118.29 272.543 118.273 272.723 118.24C272.904 118.199 273.027 118.167 273.093 118.142L273.08 120C272.933 120.057 272.736 120.111 272.49 120.16C272.244 120.217 271.932 120.246 271.554 120.246C271.087 120.246 270.652 120.135 270.25 119.914C269.848 119.692 269.524 119.323 269.278 118.806C269.032 118.281 268.909 117.576 268.909 116.69V103.45ZM274.988 113.983V112.716C274.988 111.682 275.119 110.776 275.381 109.996C275.644 109.209 276.009 108.553 276.476 108.028C276.944 107.503 277.489 107.109 278.113 106.846C278.736 106.576 279.405 106.44 280.119 106.44C280.849 106.44 281.525 106.576 282.149 106.846C282.772 107.109 283.318 107.503 283.785 108.028C284.261 108.553 284.63 109.209 284.893 109.996C285.155 110.776 285.287 111.682 285.287 112.716V113.983C285.287 115.017 285.155 115.927 284.893 116.715C284.63 117.494 284.265 118.146 283.798 118.671C283.33 119.196 282.785 119.59 282.161 119.852C281.538 120.115 280.865 120.246 280.143 120.246C279.421 120.246 278.749 120.115 278.125 119.852C277.502 119.59 276.952 119.196 276.476 118.671C276.009 118.146 275.644 117.494 275.381 116.715C275.119 115.927 274.988 115.017 274.988 113.983ZM277.165 112.716V113.983C277.165 114.713 277.239 115.353 277.387 115.903C277.535 116.452 277.744 116.912 278.014 117.281C278.285 117.65 278.601 117.929 278.962 118.117C279.323 118.298 279.717 118.388 280.143 118.388C280.635 118.388 281.066 118.298 281.435 118.117C281.813 117.929 282.124 117.65 282.37 117.281C282.616 116.912 282.801 116.452 282.924 115.903C283.047 115.353 283.109 114.713 283.109 113.983V112.716C283.109 111.986 283.035 111.35 282.887 110.808C282.739 110.259 282.53 109.799 282.26 109.43C281.989 109.053 281.669 108.774 281.3 108.594C280.939 108.405 280.545 108.311 280.119 108.311C279.7 108.311 279.311 108.405 278.95 108.594C278.589 108.774 278.273 109.053 278.002 109.43C277.74 109.799 277.535 110.259 277.387 110.808C277.239 111.35 277.165 111.986 277.165 112.716ZM300.335 116.592C300.335 116.255 300.253 115.96 300.089 115.706C299.925 115.451 299.654 115.205 299.277 114.967C298.908 114.729 298.407 114.475 297.776 114.204C297.161 113.95 296.607 113.7 296.115 113.454C295.631 113.2 295.221 112.925 294.884 112.629C294.548 112.334 294.289 111.994 294.109 111.608C293.937 111.214 293.851 110.751 293.851 110.218C293.851 109.685 293.949 109.192 294.146 108.741C294.351 108.282 294.638 107.88 295.007 107.535C295.376 107.191 295.819 106.924 296.336 106.736C296.853 106.539 297.431 106.44 298.071 106.44C298.982 106.44 299.757 106.617 300.397 106.969C301.037 107.322 301.525 107.806 301.861 108.421C302.205 109.028 302.378 109.713 302.378 110.476H300.212C300.212 110.107 300.13 109.758 299.966 109.43C299.802 109.102 299.56 108.836 299.24 108.63C298.92 108.417 298.53 108.311 298.071 108.311C297.587 108.311 297.193 108.397 296.89 108.569C296.586 108.741 296.365 108.967 296.225 109.246C296.094 109.516 296.029 109.816 296.029 110.144C296.029 110.39 296.061 110.603 296.127 110.784C296.201 110.956 296.324 111.12 296.496 111.276C296.668 111.424 296.902 111.579 297.197 111.744C297.501 111.899 297.887 112.08 298.354 112.285C299.256 112.638 300.015 112.995 300.63 113.355C301.246 113.716 301.713 114.139 302.033 114.623C302.353 115.107 302.513 115.706 302.513 116.419C302.513 117.002 302.406 117.531 302.193 118.007C301.988 118.474 301.693 118.876 301.307 119.212C300.922 119.549 300.458 119.807 299.917 119.988C299.384 120.16 298.785 120.246 298.12 120.246C297.12 120.246 296.271 120.049 295.573 119.655C294.884 119.254 294.359 118.733 293.998 118.093C293.646 117.445 293.469 116.752 293.469 116.013H295.647C295.672 116.637 295.811 117.121 296.065 117.465C296.328 117.81 296.644 118.048 297.013 118.179C297.382 118.31 297.751 118.376 298.12 118.376C298.604 118.376 299.01 118.306 299.338 118.167C299.667 118.019 299.913 117.81 300.077 117.539C300.249 117.268 300.335 116.953 300.335 116.592ZM304.913 113.983V112.716C304.913 111.682 305.044 110.776 305.306 109.996C305.569 109.209 305.934 108.553 306.401 108.028C306.869 107.503 307.414 107.109 308.038 106.846C308.661 106.576 309.33 106.44 310.044 106.44C310.774 106.44 311.45 106.576 312.074 106.846C312.697 107.109 313.243 107.503 313.71 108.028C314.186 108.553 314.555 109.209 314.818 109.996C315.08 110.776 315.212 111.682 315.212 112.716V113.983C315.212 115.017 315.08 115.927 314.818 116.715C314.555 117.494 314.19 118.146 313.723 118.671C313.255 119.196 312.71 119.59 312.086 119.852C311.463 120.115 310.79 120.246 310.068 120.246C309.346 120.246 308.674 120.115 308.05 119.852C307.427 119.59 306.877 119.196 306.401 118.671C305.934 118.146 305.569 117.494 305.306 116.715C305.044 115.927 304.913 115.017 304.913 113.983ZM307.09 112.716V113.983C307.09 114.713 307.164 115.353 307.312 115.903C307.46 116.452 307.669 116.912 307.939 117.281C308.21 117.65 308.526 117.929 308.887 118.117C309.248 118.298 309.642 118.388 310.068 118.388C310.56 118.388 310.991 118.298 311.36 118.117C311.738 117.929 312.049 117.65 312.295 117.281C312.541 116.912 312.726 116.452 312.849 115.903C312.972 115.353 313.034 114.713 313.034 113.983V112.716C313.034 111.986 312.96 111.35 312.812 110.808C312.664 110.259 312.455 109.799 312.185 109.43C311.914 109.053 311.594 108.774 311.225 108.594C310.864 108.405 310.47 108.311 310.044 108.311C309.625 108.311 309.236 108.405 308.875 108.594C308.514 108.774 308.198 109.053 307.927 109.43C307.665 109.799 307.46 110.259 307.312 110.808C307.164 111.35 307.09 111.986 307.09 112.716ZM320.355 101.1V120H318.189V101.1H320.355ZM330.531 116.924V106.686H332.709V120H330.642L330.531 116.924ZM330.937 114.118L331.798 114.094C331.798 114.98 331.72 115.8 331.564 116.555C331.417 117.301 331.171 117.949 330.826 118.499C330.49 119.048 330.043 119.479 329.485 119.791C328.927 120.094 328.242 120.246 327.43 120.246C326.88 120.246 326.38 120.152 325.929 119.963C325.486 119.774 325.1 119.483 324.772 119.089C324.452 118.696 324.202 118.183 324.022 117.551C323.849 116.92 323.763 116.161 323.763 115.275V106.686H325.929V115.3C325.929 115.898 325.982 116.395 326.089 116.788C326.196 117.174 326.339 117.482 326.52 117.711C326.7 117.933 326.901 118.089 327.122 118.179C327.344 118.269 327.57 118.314 327.799 118.314C328.57 118.314 329.186 118.13 329.645 117.761C330.104 117.383 330.432 116.879 330.629 116.247C330.834 115.607 330.937 114.898 330.937 114.118ZM340.842 106.686V108.434H334.628V106.686H340.842ZM336.659 103.45H338.837V116.702C338.837 117.154 338.89 117.494 338.996 117.724C339.111 117.953 339.255 118.105 339.427 118.179C339.599 118.253 339.784 118.29 339.981 118.29C340.129 118.29 340.293 118.273 340.473 118.24C340.654 118.199 340.777 118.167 340.842 118.142L340.83 120C340.682 120.057 340.485 120.111 340.239 120.16C339.993 120.217 339.681 120.246 339.304 120.246C338.837 120.246 338.402 120.135 338 119.914C337.598 119.692 337.274 119.323 337.028 118.806C336.782 118.281 336.659 117.576 336.659 116.69V103.45ZM345.776 106.686V120H343.611V106.686H345.776ZM343.488 103.155C343.488 102.786 343.59 102.474 343.795 102.22C344 101.965 344.308 101.838 344.718 101.838C345.128 101.838 345.436 101.965 345.641 102.22C345.854 102.474 345.961 102.786 345.961 103.155C345.961 103.508 345.854 103.811 345.641 104.065C345.436 104.312 345.128 104.435 344.718 104.435C344.308 104.435 344 104.312 343.795 104.065C343.59 103.811 343.488 103.508 343.488 103.155ZM348.766 113.983V112.716C348.766 111.682 348.898 110.776 349.16 109.996C349.423 109.209 349.788 108.553 350.255 108.028C350.723 107.503 351.268 107.109 351.892 106.846C352.515 106.576 353.184 106.44 353.897 106.44C354.628 106.44 355.304 106.576 355.928 106.846C356.551 107.109 357.097 107.503 357.564 108.028C358.04 108.553 358.409 109.209 358.672 109.996C358.934 110.776 359.065 111.682 359.065 112.716V113.983C359.065 115.017 358.934 115.927 358.672 116.715C358.409 117.494 358.044 118.146 357.577 118.671C357.109 119.196 356.563 119.59 355.94 119.852C355.317 120.115 354.644 120.246 353.922 120.246C353.2 120.246 352.528 120.115 351.904 119.852C351.281 119.59 350.731 119.196 350.255 118.671C349.788 118.146 349.423 117.494 349.16 116.715C348.898 115.927 348.766 115.017 348.766 113.983ZM350.944 112.716V113.983C350.944 114.713 351.018 115.353 351.166 115.903C351.313 116.452 351.523 116.912 351.793 117.281C352.064 117.65 352.38 117.929 352.741 118.117C353.102 118.298 353.496 118.388 353.922 118.388C354.414 118.388 354.845 118.298 355.214 118.117C355.591 117.929 355.903 117.65 356.149 117.281C356.395 116.912 356.58 116.452 356.703 115.903C356.826 115.353 356.888 114.713 356.888 113.983V112.716C356.888 111.986 356.814 111.35 356.666 110.808C356.518 110.259 356.309 109.799 356.038 109.43C355.768 109.053 355.448 108.774 355.079 108.594C354.718 108.405 354.324 108.311 353.897 108.311C353.479 108.311 353.089 108.405 352.729 108.594C352.368 108.774 352.052 109.053 351.781 109.43C351.519 109.799 351.313 110.259 351.166 110.808C351.018 111.35 350.944 111.986 350.944 112.716ZM364.049 109.529V120H361.871V106.686H363.926L364.049 109.529ZM363.52 112.839L362.634 112.802C362.626 111.891 362.728 111.05 362.941 110.279C363.163 109.5 363.475 108.823 363.877 108.249C364.287 107.675 364.775 107.232 365.341 106.92C365.907 106.6 366.534 106.44 367.223 106.44C367.765 106.44 368.257 106.53 368.7 106.711C369.143 106.883 369.52 107.162 369.832 107.548C370.144 107.933 370.382 108.434 370.546 109.049C370.718 109.656 370.804 110.398 370.804 111.276V120H368.626V111.251C368.626 110.554 368.548 109.996 368.392 109.578C368.245 109.151 368.015 108.844 367.703 108.655C367.4 108.458 367.014 108.36 366.547 108.36C366.12 108.36 365.722 108.479 365.353 108.717C364.984 108.954 364.66 109.283 364.381 109.701C364.11 110.119 363.897 110.599 363.741 111.141C363.594 111.674 363.52 112.24 363.52 112.839ZM383.896 111.448V113.319H378.814V111.448H383.896ZM397.997 103.672L393.1 120H390.787L396.558 102.084H398.01L397.997 103.672ZM401.96 120L397.062 103.672L397.038 102.084H398.502L404.273 120H401.96ZM401.96 113.368V115.312H393.322V113.368H401.96ZM423.739 111.079V117.761C423.542 118.023 423.243 118.351 422.841 118.745C422.447 119.139 421.893 119.487 421.179 119.791C420.466 120.094 419.531 120.246 418.374 120.246C417.447 120.246 416.598 120.09 415.827 119.779C415.064 119.467 414.404 118.999 413.846 118.376C413.296 117.744 412.87 116.961 412.566 116.026C412.263 115.082 412.111 113.979 412.111 112.716V109.356C412.111 108.101 412.238 107.002 412.492 106.059C412.747 105.115 413.124 104.332 413.624 103.709C414.133 103.085 414.761 102.618 415.507 102.306C416.262 101.994 417.139 101.838 418.14 101.838C419.297 101.838 420.281 102.056 421.093 102.49C421.905 102.925 422.533 103.553 422.976 104.373C423.427 105.193 423.681 106.178 423.739 107.326H421.475C421.417 106.588 421.262 105.956 421.007 105.431C420.753 104.898 420.392 104.492 419.924 104.213C419.457 103.926 418.862 103.782 418.14 103.782C417.451 103.782 416.869 103.897 416.393 104.127C415.917 104.357 415.528 104.701 415.224 105.161C414.929 105.62 414.711 106.198 414.572 106.896C414.441 107.593 414.375 108.405 414.375 109.332V112.716C414.375 113.667 414.469 114.496 414.658 115.201C414.847 115.907 415.113 116.489 415.458 116.948C415.811 117.408 416.233 117.752 416.725 117.982C417.217 118.204 417.771 118.314 418.386 118.314C419.084 118.314 419.633 118.24 420.035 118.093C420.437 117.945 420.745 117.777 420.958 117.588C421.179 117.4 421.356 117.248 421.487 117.133V112.999H418.202V111.079H423.739ZM429.288 108.778V120H427.11V106.686H429.214L429.288 108.778ZM432.598 106.612L432.611 108.729C432.43 108.688 432.266 108.663 432.118 108.655C431.979 108.639 431.815 108.63 431.626 108.63C431.216 108.63 430.855 108.712 430.543 108.877C430.24 109.041 429.977 109.27 429.756 109.566C429.534 109.861 429.358 110.214 429.227 110.624C429.096 111.026 429.005 111.469 428.956 111.953L428.39 112.322C428.39 111.518 428.452 110.763 428.575 110.058C428.706 109.352 428.907 108.729 429.178 108.187C429.448 107.638 429.793 107.211 430.211 106.908C430.638 106.596 431.146 106.44 431.737 106.44C431.868 106.44 432.028 106.461 432.217 106.502C432.414 106.535 432.541 106.571 432.598 106.612ZM439.304 120.246C438.509 120.246 437.791 120.127 437.151 119.889C436.511 119.651 435.966 119.29 435.514 118.806C435.063 118.314 434.719 117.695 434.481 116.948C434.243 116.202 434.124 115.32 434.124 114.303V112.802C434.124 111.629 434.259 110.636 434.53 109.824C434.809 109.012 435.182 108.36 435.65 107.868C436.117 107.367 436.646 107.006 437.237 106.785C437.828 106.555 438.435 106.44 439.058 106.44C439.895 106.44 440.609 106.576 441.199 106.846C441.79 107.117 442.27 107.519 442.639 108.052C443.008 108.585 443.279 109.242 443.451 110.021C443.631 110.8 443.722 111.698 443.722 112.716V113.983H435.404V112.125H441.544V111.817C441.511 111.128 441.417 110.521 441.261 109.996C441.113 109.471 440.867 109.061 440.522 108.766C440.178 108.462 439.69 108.311 439.058 108.311C438.656 108.311 438.283 108.38 437.938 108.52C437.602 108.651 437.311 108.885 437.065 109.221C436.827 109.549 436.638 110.004 436.499 110.587C436.368 111.169 436.302 111.908 436.302 112.802V114.303C436.302 115.017 436.368 115.632 436.499 116.149C436.638 116.657 436.839 117.08 437.102 117.416C437.372 117.744 437.701 117.99 438.086 118.154C438.48 118.31 438.927 118.388 439.427 118.388C440.157 118.388 440.76 118.249 441.236 117.97C441.712 117.683 442.126 117.318 442.479 116.875L443.623 118.24C443.385 118.577 443.074 118.901 442.688 119.212C442.311 119.516 441.843 119.766 441.285 119.963C440.736 120.152 440.075 120.246 439.304 120.246ZM451.117 120.246C450.321 120.246 449.603 120.127 448.963 119.889C448.324 119.651 447.778 119.29 447.327 118.806C446.876 118.314 446.531 117.695 446.293 116.948C446.055 116.202 445.937 115.32 445.937 114.303V112.802C445.937 111.629 446.072 110.636 446.343 109.824C446.621 109.012 446.995 108.36 447.462 107.868C447.93 107.367 448.459 107.006 449.05 106.785C449.64 106.555 450.247 106.44 450.871 106.44C451.707 106.44 452.421 106.576 453.012 106.846C453.602 107.117 454.082 107.519 454.451 108.052C454.821 108.585 455.091 109.242 455.263 110.021C455.444 110.8 455.534 111.698 455.534 112.716V113.983H447.216V112.125H453.356V111.817C453.323 111.128 453.229 110.521 453.073 109.996C452.926 109.471 452.679 109.061 452.335 108.766C451.99 108.462 451.502 108.311 450.871 108.311C450.469 108.311 450.096 108.38 449.751 108.52C449.415 108.651 449.123 108.885 448.877 109.221C448.639 109.549 448.451 110.004 448.311 110.587C448.18 111.169 448.114 111.908 448.114 112.802V114.303C448.114 115.017 448.18 115.632 448.311 116.149C448.451 116.657 448.652 117.08 448.914 117.416C449.185 117.744 449.513 117.99 449.899 118.154C450.292 118.31 450.739 118.388 451.24 118.388C451.97 118.388 452.573 118.249 453.049 117.97C453.524 117.683 453.939 117.318 454.291 116.875L455.436 118.24C455.198 118.577 454.886 118.901 454.501 119.212C454.123 119.516 453.656 119.766 453.098 119.963C452.548 120.152 451.888 120.246 451.117 120.246ZM460.345 109.529V120H458.167V106.686H460.222L460.345 109.529ZM459.816 112.839L458.93 112.802C458.922 111.891 459.025 111.05 459.238 110.279C459.459 109.5 459.771 108.823 460.173 108.249C460.583 107.675 461.071 107.232 461.637 106.92C462.203 106.6 462.831 106.44 463.52 106.44C464.061 106.44 464.554 106.53 464.996 106.711C465.439 106.883 465.817 107.162 466.129 107.548C466.44 107.933 466.678 108.434 466.842 109.049C467.014 109.656 467.101 110.398 467.101 111.276V120H464.923V111.251C464.923 110.554 464.845 109.996 464.689 109.578C464.541 109.151 464.312 108.844 464 108.655C463.696 108.458 463.311 108.36 462.843 108.36C462.417 108.36 462.019 108.479 461.65 108.717C461.28 108.954 460.956 109.283 460.678 109.701C460.407 110.119 460.194 110.599 460.038 111.141C459.89 111.674 459.816 112.24 459.816 112.839ZM482.678 117.724V110.501C482.678 109.976 482.596 109.553 482.432 109.233C482.276 108.913 482.038 108.68 481.719 108.532C481.407 108.384 481.013 108.311 480.537 108.311C480.078 108.311 479.68 108.405 479.344 108.594C479.016 108.782 478.761 109.032 478.581 109.344C478.409 109.656 478.322 110 478.322 110.378H476.145C476.145 109.902 476.247 109.43 476.452 108.963C476.665 108.495 476.969 108.073 477.363 107.695C477.756 107.31 478.228 107.006 478.778 106.785C479.336 106.555 479.959 106.44 480.648 106.44C481.468 106.44 482.194 106.576 482.826 106.846C483.458 107.109 483.954 107.539 484.315 108.138C484.676 108.737 484.856 109.533 484.856 110.525V117.096C484.856 117.539 484.889 118.011 484.955 118.511C485.029 119.012 485.131 119.442 485.262 119.803V120H483.011C482.904 119.737 482.822 119.389 482.764 118.954C482.707 118.511 482.678 118.101 482.678 117.724ZM483.023 111.928L483.047 113.528H481.534C481.017 113.528 480.546 113.585 480.119 113.7C479.701 113.815 479.34 113.983 479.036 114.204C478.733 114.418 478.499 114.684 478.335 115.004C478.179 115.324 478.101 115.689 478.101 116.099C478.101 116.633 478.175 117.059 478.322 117.379C478.47 117.691 478.692 117.916 478.987 118.056C479.282 118.195 479.655 118.265 480.107 118.265C480.656 118.265 481.14 118.138 481.559 117.884C481.977 117.629 482.301 117.322 482.531 116.961C482.769 116.6 482.879 116.263 482.863 115.952L483.343 116.973C483.31 117.293 483.203 117.642 483.023 118.019C482.851 118.388 482.609 118.745 482.297 119.089C481.985 119.426 481.616 119.705 481.189 119.926C480.771 120.139 480.299 120.246 479.774 120.246C479.003 120.246 478.327 120.098 477.744 119.803C477.17 119.508 476.723 119.073 476.403 118.499C476.083 117.925 475.923 117.215 475.923 116.37C475.923 115.73 476.034 115.14 476.255 114.598C476.477 114.057 476.805 113.589 477.24 113.196C477.674 112.794 478.22 112.482 478.876 112.26C479.541 112.039 480.308 111.928 481.177 111.928H483.023ZM490.578 101.1V120H488.412V101.1H490.578ZM498.884 106.686V108.434H492.67V106.686H498.884ZM494.7 103.45H496.878V116.702C496.878 117.154 496.931 117.494 497.038 117.724C497.153 117.953 497.296 118.105 497.469 118.179C497.641 118.253 497.825 118.29 498.022 118.29C498.17 118.29 498.334 118.273 498.514 118.24C498.695 118.199 498.818 118.167 498.884 118.142L498.871 120C498.724 120.057 498.527 120.111 498.281 120.16C498.035 120.217 497.723 120.246 497.346 120.246C496.878 120.246 496.443 120.135 496.041 119.914C495.639 119.692 495.315 119.323 495.069 118.806C494.823 118.281 494.7 117.576 494.7 116.69V103.45ZM506.242 120.246C505.446 120.246 504.728 120.127 504.088 119.889C503.449 119.651 502.903 119.29 502.452 118.806C502.001 118.314 501.656 117.695 501.418 116.948C501.18 116.202 501.062 115.32 501.062 114.303V112.802C501.062 111.629 501.197 110.636 501.468 109.824C501.746 109.012 502.12 108.36 502.587 107.868C503.055 107.367 503.584 107.006 504.175 106.785C504.765 106.555 505.372 106.44 505.996 106.44C506.832 106.44 507.546 106.576 508.137 106.846C508.727 107.117 509.207 107.519 509.576 108.052C509.946 108.585 510.216 109.242 510.388 110.021C510.569 110.8 510.659 111.698 510.659 112.716V113.983H502.341V112.125H508.481V111.817C508.448 111.128 508.354 110.521 508.198 109.996C508.051 109.471 507.804 109.061 507.46 108.766C507.115 108.462 506.627 108.311 505.996 108.311C505.594 108.311 505.221 108.38 504.876 108.52C504.54 108.651 504.248 108.885 504.002 109.221C503.764 109.549 503.576 110.004 503.436 110.587C503.305 111.169 503.239 111.908 503.239 112.802V114.303C503.239 115.017 503.305 115.632 503.436 116.149C503.576 116.657 503.777 117.08 504.039 117.416C504.31 117.744 504.638 117.99 505.024 118.154C505.417 118.31 505.864 118.388 506.365 118.388C507.095 118.388 507.698 118.249 508.174 117.97C508.649 117.683 509.064 117.318 509.416 116.875L510.561 118.24C510.323 118.577 510.011 118.901 509.626 119.212C509.248 119.516 508.781 119.766 508.223 119.963C507.673 120.152 507.013 120.246 506.242 120.246ZM515.47 108.778V120H513.292V106.686H515.396L515.47 108.778ZM518.78 106.612L518.793 108.729C518.612 108.688 518.448 108.663 518.3 108.655C518.161 108.639 517.997 108.63 517.808 108.63C517.398 108.63 517.037 108.712 516.725 108.877C516.422 109.041 516.159 109.27 515.938 109.566C515.716 109.861 515.54 110.214 515.409 110.624C515.278 111.026 515.187 111.469 515.138 111.953L514.572 112.322C514.572 111.518 514.634 110.763 514.757 110.058C514.888 109.352 515.089 108.729 515.36 108.187C515.63 107.638 515.975 107.211 516.393 106.908C516.82 106.596 517.328 106.44 517.919 106.44C518.05 106.44 518.21 106.461 518.399 106.502C518.596 106.535 518.723 106.571 518.78 106.612ZM523.148 109.529V120H520.971V106.686H523.025L523.148 109.529ZM522.619 112.839L521.733 112.802C521.725 111.891 521.828 111.05 522.041 110.279C522.263 109.5 522.574 108.823 522.976 108.249C523.386 107.675 523.874 107.232 524.44 106.92C525.006 106.6 525.634 106.44 526.323 106.44C526.864 106.44 527.357 106.53 527.8 106.711C528.243 106.883 528.62 107.162 528.932 107.548C529.243 107.933 529.481 108.434 529.645 109.049C529.818 109.656 529.904 110.398 529.904 111.276V120H527.726V111.251C527.726 110.554 527.648 109.996 527.492 109.578C527.344 109.151 527.115 108.844 526.803 108.655C526.499 108.458 526.114 108.36 525.646 108.36C525.22 108.36 524.822 108.479 524.453 108.717C524.084 108.954 523.76 109.283 523.481 109.701C523.21 110.119 522.997 110.599 522.841 111.141C522.693 111.674 522.619 112.24 522.619 112.839ZM539.698 117.724V110.501C539.698 109.976 539.616 109.553 539.452 109.233C539.296 108.913 539.058 108.68 538.738 108.532C538.427 108.384 538.033 108.311 537.557 108.311C537.098 108.311 536.7 108.405 536.364 108.594C536.036 108.782 535.781 109.032 535.601 109.344C535.429 109.656 535.342 110 535.342 110.378H533.164C533.164 109.902 533.267 109.43 533.472 108.963C533.685 108.495 533.989 108.073 534.383 107.695C534.776 107.31 535.248 107.006 535.798 106.785C536.355 106.555 536.979 106.44 537.668 106.44C538.488 106.44 539.214 106.576 539.846 106.846C540.478 107.109 540.974 107.539 541.335 108.138C541.696 108.737 541.876 109.533 541.876 110.525V117.096C541.876 117.539 541.909 118.011 541.975 118.511C542.048 119.012 542.151 119.442 542.282 119.803V120H540.03C539.924 119.737 539.842 119.389 539.784 118.954C539.727 118.511 539.698 118.101 539.698 117.724ZM540.043 111.928L540.067 113.528H538.554C538.037 113.528 537.565 113.585 537.139 113.7C536.721 113.815 536.36 113.983 536.056 114.204C535.753 114.418 535.519 114.684 535.355 115.004C535.199 115.324 535.121 115.689 535.121 116.099C535.121 116.633 535.195 117.059 535.342 117.379C535.49 117.691 535.712 117.916 536.007 118.056C536.302 118.195 536.675 118.265 537.127 118.265C537.676 118.265 538.16 118.138 538.579 117.884C538.997 117.629 539.321 117.322 539.551 116.961C539.788 116.6 539.899 116.263 539.883 115.952L540.363 116.973C540.33 117.293 540.223 117.642 540.043 118.019C539.871 118.388 539.629 118.745 539.317 119.089C539.005 119.426 538.636 119.705 538.209 119.926C537.791 120.139 537.319 120.246 536.794 120.246C536.023 120.246 535.347 120.098 534.764 119.803C534.19 119.508 533.743 119.073 533.423 118.499C533.103 117.925 532.943 117.215 532.943 116.37C532.943 115.73 533.054 115.14 533.275 114.598C533.497 114.057 533.825 113.589 534.26 113.196C534.694 112.794 535.24 112.482 535.896 112.26C536.561 112.039 537.328 111.928 538.197 111.928H540.043ZM550.12 106.686V108.434H543.906V106.686H550.12ZM545.937 103.45H548.115V116.702C548.115 117.154 548.168 117.494 548.275 117.724C548.389 117.953 548.533 118.105 548.705 118.179C548.878 118.253 549.062 118.29 549.259 118.29C549.407 118.29 549.571 118.273 549.751 118.24C549.932 118.199 550.055 118.167 550.12 118.142L550.108 120C549.96 120.057 549.763 120.111 549.517 120.16C549.271 120.217 548.96 120.246 548.582 120.246C548.115 120.246 547.68 120.135 547.278 119.914C546.876 119.692 546.552 119.323 546.306 118.806C546.06 118.281 545.937 117.576 545.937 116.69V103.45ZM557.479 120.246C556.683 120.246 555.965 120.127 555.325 119.889C554.685 119.651 554.14 119.29 553.689 118.806C553.238 118.314 552.893 117.695 552.655 116.948C552.417 116.202 552.298 115.32 552.298 114.303V112.802C552.298 111.629 552.434 110.636 552.704 109.824C552.983 109.012 553.356 108.36 553.824 107.868C554.292 107.367 554.821 107.006 555.411 106.785C556.002 106.555 556.609 106.44 557.232 106.44C558.069 106.44 558.783 106.576 559.373 106.846C559.964 107.117 560.444 107.519 560.813 108.052C561.182 108.585 561.453 109.242 561.625 110.021C561.806 110.8 561.896 111.698 561.896 112.716V113.983H553.578V112.125H559.718V111.817C559.685 111.128 559.591 110.521 559.435 109.996C559.287 109.471 559.041 109.061 558.697 108.766C558.352 108.462 557.864 108.311 557.232 108.311C556.83 108.311 556.457 108.38 556.113 108.52C555.776 108.651 555.485 108.885 555.239 109.221C555.001 109.549 554.813 110.004 554.673 110.587C554.542 111.169 554.476 111.908 554.476 112.802V114.303C554.476 115.017 554.542 115.632 554.673 116.149C554.813 116.657 555.013 117.08 555.276 117.416C555.547 117.744 555.875 117.99 556.26 118.154C556.654 118.31 557.101 118.388 557.602 118.388C558.332 118.388 558.935 118.249 559.41 117.97C559.886 117.683 560.3 117.318 560.653 116.875L561.797 118.24C561.56 118.577 561.248 118.901 560.862 119.212C560.485 119.516 560.017 119.766 559.46 119.963C558.91 120.152 558.25 120.246 557.479 120.246ZM576.772 116.592C576.772 116.255 576.69 115.96 576.526 115.706C576.362 115.451 576.091 115.205 575.714 114.967C575.345 114.729 574.845 114.475 574.213 114.204C573.598 113.95 573.044 113.7 572.552 113.454C572.068 113.2 571.658 112.925 571.321 112.629C570.985 112.334 570.727 111.994 570.546 111.608C570.374 111.214 570.288 110.751 570.288 110.218C570.288 109.685 570.386 109.192 570.583 108.741C570.788 108.282 571.075 107.88 571.444 107.535C571.813 107.191 572.256 106.924 572.773 106.736C573.29 106.539 573.868 106.44 574.508 106.44C575.419 106.44 576.194 106.617 576.834 106.969C577.474 107.322 577.962 107.806 578.298 108.421C578.643 109.028 578.815 109.713 578.815 110.476H576.649C576.649 110.107 576.567 109.758 576.403 109.43C576.239 109.102 575.997 108.836 575.677 108.63C575.357 108.417 574.968 108.311 574.508 108.311C574.024 108.311 573.63 108.397 573.327 108.569C573.023 108.741 572.802 108.967 572.663 109.246C572.531 109.516 572.466 109.816 572.466 110.144C572.466 110.39 572.498 110.603 572.564 110.784C572.638 110.956 572.761 111.12 572.933 111.276C573.105 111.424 573.339 111.579 573.635 111.744C573.938 111.899 574.324 112.08 574.791 112.285C575.694 112.638 576.452 112.995 577.068 113.355C577.683 113.716 578.15 114.139 578.47 114.623C578.79 115.107 578.95 115.706 578.95 116.419C578.95 117.002 578.844 117.531 578.63 118.007C578.425 118.474 578.13 118.876 577.744 119.212C577.359 119.549 576.895 119.807 576.354 119.988C575.821 120.16 575.222 120.246 574.557 120.246C573.557 120.246 572.708 120.049 572.01 119.655C571.321 119.254 570.796 118.733 570.435 118.093C570.083 117.445 569.906 116.752 569.906 116.013H572.084C572.109 116.637 572.248 117.121 572.503 117.465C572.765 117.81 573.081 118.048 573.45 118.179C573.819 118.31 574.188 118.376 574.557 118.376C575.041 118.376 575.447 118.306 575.776 118.167C576.104 118.019 576.35 117.81 576.514 117.539C576.686 117.268 576.772 116.953 576.772 116.592ZM588.536 116.924V106.686H590.713V120H588.646L588.536 116.924ZM588.942 114.118L589.803 114.094C589.803 114.98 589.725 115.8 589.569 116.555C589.421 117.301 589.175 117.949 588.831 118.499C588.495 119.048 588.047 119.479 587.49 119.791C586.932 120.094 586.247 120.246 585.435 120.246C584.885 120.246 584.385 120.152 583.934 119.963C583.491 119.774 583.105 119.483 582.777 119.089C582.457 118.696 582.207 118.183 582.026 117.551C581.854 116.92 581.768 116.161 581.768 115.275V106.686H583.934V115.3C583.934 115.898 583.987 116.395 584.094 116.788C584.2 117.174 584.344 117.482 584.524 117.711C584.705 117.933 584.906 118.089 585.127 118.179C585.349 118.269 585.574 118.314 585.804 118.314C586.575 118.314 587.19 118.13 587.65 117.761C588.109 117.383 588.437 116.879 588.634 116.247C588.839 115.607 588.942 114.898 588.942 114.118ZM596.164 109.246V125.119H593.987V106.686H595.968L596.164 109.246ZM603.609 112.74V113.983C603.609 115.033 603.51 115.952 603.313 116.739C603.125 117.519 602.842 118.171 602.464 118.696C602.095 119.212 601.64 119.602 601.099 119.865C600.557 120.119 599.938 120.246 599.241 120.246C598.543 120.246 597.936 120.115 597.42 119.852C596.911 119.582 596.48 119.192 596.128 118.683C595.783 118.175 595.508 117.564 595.303 116.85C595.106 116.128 594.971 115.32 594.897 114.426V112.531C594.971 111.588 595.106 110.743 595.303 109.996C595.5 109.242 595.771 108.602 596.115 108.077C596.468 107.544 596.899 107.137 597.407 106.859C597.924 106.58 598.527 106.44 599.216 106.44C599.93 106.44 600.557 106.563 601.099 106.809C601.648 107.055 602.108 107.437 602.477 107.954C602.854 108.462 603.137 109.114 603.326 109.91C603.514 110.698 603.609 111.641 603.609 112.74ZM601.431 113.983V112.74C601.431 112.002 601.373 111.358 601.259 110.808C601.152 110.259 600.98 109.804 600.742 109.443C600.504 109.082 600.204 108.811 599.844 108.63C599.483 108.45 599.048 108.36 598.539 108.36C598.104 108.36 597.719 108.45 597.383 108.63C597.054 108.811 596.771 109.057 596.534 109.369C596.296 109.672 596.099 110.021 595.943 110.415C595.787 110.8 595.672 111.202 595.598 111.621V115.349C595.738 115.874 595.922 116.37 596.152 116.838C596.382 117.297 596.689 117.67 597.075 117.957C597.469 118.245 597.965 118.388 598.564 118.388C599.064 118.388 599.495 118.298 599.856 118.117C600.217 117.937 600.512 117.666 600.742 117.305C600.98 116.936 601.152 116.477 601.259 115.927C601.373 115.369 601.431 114.721 601.431 113.983ZM608.592 109.246V125.119H606.414V106.686H608.395L608.592 109.246ZM616.037 112.74V113.983C616.037 115.033 615.938 115.952 615.741 116.739C615.553 117.519 615.27 118.171 614.892 118.696C614.523 119.212 614.068 119.602 613.526 119.865C612.985 120.119 612.366 120.246 611.668 120.246C610.971 120.246 610.364 120.115 609.847 119.852C609.339 119.582 608.908 119.192 608.555 118.683C608.211 118.175 607.936 117.564 607.731 116.85C607.534 116.128 607.399 115.32 607.325 114.426V112.531C607.399 111.588 607.534 110.743 607.731 109.996C607.928 109.242 608.198 108.602 608.543 108.077C608.896 107.544 609.326 107.137 609.835 106.859C610.352 106.58 610.955 106.44 611.644 106.44C612.357 106.44 612.985 106.563 613.526 106.809C614.076 107.055 614.535 107.437 614.904 107.954C615.282 108.462 615.565 109.114 615.754 109.91C615.942 110.698 616.037 111.641 616.037 112.74ZM613.859 113.983V112.74C613.859 112.002 613.801 111.358 613.686 110.808C613.58 110.259 613.407 109.804 613.17 109.443C612.932 109.082 612.632 108.811 612.271 108.63C611.91 108.45 611.476 108.36 610.967 108.36C610.532 108.36 610.147 108.45 609.81 108.63C609.482 108.811 609.199 109.057 608.961 109.369C608.723 109.672 608.527 110.021 608.371 110.415C608.215 110.8 608.1 111.202 608.026 111.621V115.349C608.166 115.874 608.35 116.37 608.58 116.838C608.81 117.297 609.117 117.67 609.503 117.957C609.896 118.245 610.393 118.388 610.992 118.388C611.492 118.388 611.923 118.298 612.284 118.117C612.645 117.937 612.94 117.666 613.17 117.305C613.407 116.936 613.58 116.477 613.686 115.927C613.801 115.369 613.859 114.721 613.859 113.983ZM621.18 101.1V120H619.014V101.1H621.18ZM627.714 118.622L630.679 106.686H632.992L628.6 122.055C628.493 122.383 628.349 122.736 628.169 123.113C627.997 123.499 627.775 123.864 627.504 124.208C627.234 124.553 626.91 124.832 626.532 125.045C626.155 125.266 625.712 125.377 625.204 125.377C625.048 125.377 624.847 125.353 624.601 125.303C624.363 125.254 624.19 125.213 624.084 125.18V123.335C624.133 123.343 624.211 123.351 624.318 123.359C624.424 123.376 624.502 123.384 624.551 123.384C624.978 123.384 625.339 123.314 625.634 123.175C625.938 123.043 626.196 122.818 626.409 122.498C626.623 122.186 626.803 121.755 626.951 121.206L627.714 118.622ZM625.794 106.686L628.44 117.022L629.006 119.422L627.455 120.258L623.419 106.686H625.794ZM645.531 118.388C645.966 118.388 646.359 118.302 646.712 118.13C647.073 117.949 647.368 117.67 647.598 117.293C647.828 116.907 647.959 116.407 647.992 115.792H650.034C650.002 116.678 649.776 117.457 649.358 118.13C648.947 118.794 648.406 119.315 647.733 119.692C647.069 120.062 646.335 120.246 645.531 120.246C644.67 120.246 643.919 120.107 643.279 119.828C642.647 119.549 642.122 119.147 641.704 118.622C641.294 118.089 640.986 117.445 640.781 116.69C640.576 115.927 640.474 115.062 640.474 114.094V112.593C640.474 111.625 640.576 110.763 640.781 110.009C640.986 109.246 641.294 108.602 641.704 108.077C642.122 107.544 642.647 107.137 643.279 106.859C643.919 106.58 644.67 106.44 645.531 106.44C646.433 106.44 647.213 106.633 647.869 107.019C648.533 107.396 649.05 107.946 649.419 108.667C649.796 109.381 650.002 110.246 650.034 111.264H647.992C647.959 110.607 647.84 110.062 647.635 109.627C647.43 109.184 647.151 108.856 646.798 108.643C646.446 108.421 646.023 108.311 645.531 108.311C644.957 108.311 644.481 108.413 644.104 108.618C643.734 108.815 643.443 109.102 643.23 109.479C643.017 109.857 642.865 110.308 642.775 110.833C642.693 111.358 642.652 111.945 642.652 112.593V114.094C642.652 114.742 642.693 115.332 642.775 115.866C642.865 116.391 643.013 116.842 643.218 117.219C643.431 117.596 643.726 117.888 644.104 118.093C644.481 118.29 644.957 118.388 645.531 118.388ZM654.735 101.1V120H652.557V101.1H654.735ZM654.206 112.839L653.32 112.802C653.312 111.891 653.414 111.05 653.627 110.279C653.849 109.5 654.161 108.823 654.563 108.249C654.973 107.675 655.461 107.232 656.027 106.92C656.593 106.6 657.22 106.44 657.909 106.44C658.451 106.44 658.943 106.53 659.386 106.711C659.829 106.883 660.206 107.162 660.518 107.548C660.83 107.933 661.068 108.434 661.232 109.049C661.404 109.656 661.49 110.398 661.49 111.276V120H659.312V111.251C659.312 110.554 659.234 109.996 659.078 109.578C658.931 109.151 658.701 108.844 658.389 108.655C658.086 108.458 657.7 108.36 657.233 108.36C656.806 108.36 656.408 108.479 656.039 108.717C655.67 108.954 655.346 109.283 655.067 109.701C654.796 110.119 654.583 110.599 654.427 111.141C654.279 111.674 654.206 112.24 654.206 112.839ZM671.26 117.724V110.501C671.26 109.976 671.178 109.553 671.014 109.233C670.858 108.913 670.62 108.68 670.3 108.532C669.988 108.384 669.595 108.311 669.119 108.311C668.66 108.311 668.262 108.405 667.925 108.594C667.597 108.782 667.343 109.032 667.163 109.344C666.99 109.656 666.904 110 666.904 110.378H664.726C664.726 109.902 664.829 109.43 665.034 108.963C665.247 108.495 665.551 108.073 665.944 107.695C666.338 107.31 666.81 107.006 667.359 106.785C667.917 106.555 668.541 106.44 669.23 106.44C670.05 106.44 670.776 106.576 671.408 106.846C672.039 107.109 672.536 107.539 672.896 108.138C673.257 108.737 673.438 109.533 673.438 110.525V117.096C673.438 117.539 673.471 118.011 673.536 118.511C673.61 119.012 673.713 119.442 673.844 119.803V120H671.592C671.486 119.737 671.404 119.389 671.346 118.954C671.289 118.511 671.26 118.101 671.26 117.724ZM671.604 111.928L671.629 113.528H670.116C669.599 113.528 669.127 113.585 668.701 113.7C668.282 113.815 667.921 113.983 667.618 114.204C667.314 114.418 667.08 114.684 666.916 115.004C666.761 115.324 666.683 115.689 666.683 116.099C666.683 116.633 666.756 117.059 666.904 117.379C667.052 117.691 667.273 117.916 667.569 118.056C667.864 118.195 668.237 118.265 668.688 118.265C669.238 118.265 669.722 118.138 670.14 117.884C670.559 117.629 670.883 117.322 671.112 116.961C671.35 116.6 671.461 116.263 671.445 115.952L671.924 116.973C671.892 117.293 671.785 117.642 671.604 118.019C671.432 118.388 671.19 118.745 670.879 119.089C670.567 119.426 670.198 119.705 669.771 119.926C669.353 120.139 668.881 120.246 668.356 120.246C667.585 120.246 666.908 120.098 666.326 119.803C665.752 119.508 665.304 119.073 664.985 118.499C664.665 117.925 664.505 117.215 664.505 116.37C664.505 115.73 664.615 115.14 664.837 114.598C665.058 114.057 665.387 113.589 665.821 113.196C666.256 112.794 666.802 112.482 667.458 112.26C668.122 112.039 668.889 111.928 669.759 111.928H671.604ZM679.16 106.686V120H676.994V106.686H679.16ZM676.871 103.155C676.871 102.786 676.973 102.474 677.179 102.22C677.384 101.965 677.691 101.838 678.101 101.838C678.512 101.838 678.819 101.965 679.024 102.22C679.237 102.474 679.344 102.786 679.344 103.155C679.344 103.508 679.237 103.811 679.024 104.065C678.819 104.312 678.512 104.435 678.101 104.435C677.691 104.435 677.384 104.312 677.179 104.065C676.973 103.811 676.871 103.508 676.871 103.155ZM684.783 109.529V120H682.605V106.686H684.66L684.783 109.529ZM684.254 112.839L683.368 112.802C683.36 111.891 683.462 111.05 683.675 110.279C683.897 109.5 684.209 108.823 684.611 108.249C685.021 107.675 685.509 107.232 686.075 106.92C686.641 106.6 687.268 106.44 687.957 106.44C688.499 106.44 688.991 106.53 689.434 106.711C689.877 106.883 690.254 107.162 690.566 107.548C690.878 107.933 691.116 108.434 691.28 109.049C691.452 109.656 691.538 110.398 691.538 111.276V120H689.36V111.251C689.36 110.554 689.282 109.996 689.126 109.578C688.979 109.151 688.749 108.844 688.437 108.655C688.134 108.458 687.748 108.36 687.281 108.36C686.854 108.36 686.456 108.479 686.087 108.717C685.718 108.954 685.394 109.283 685.115 109.701C684.844 110.119 684.631 110.599 684.475 111.141C684.328 111.674 684.254 112.24 684.254 112.839Z" fill="#727272"/>
<path fill-rule="evenodd" clip-rule="evenodd" d="M73.2579 121.573L32.137 122.966L10.3798 87.8701L29.7359 51.3833L70.8582 49.9941L74.6055 56.0423L92.6142 85.0984L73.2579 121.573ZM93.8201 11.2439L134.941 9.85473L156.707 44.9473L137.341 81.4324L96.2301 82.8267L74.4624 47.727L93.8201 11.2439ZM161.609 44.7797L137.251 5.49603L91.2284 7.05277L70.7166 45.7186L29.578 47.1083L14.2274 22.8636L10.638 25.1582L25.9827 49.3846L5.47824 88.0376L29.8273 127.325L75.8511 125.764L96.3703 87.1025L137.792 85.6946L152.876 109.504L156.465 107.208L141.24 83.1701L161.609 44.7797Z" fill="#224A5B"/>
<path fill-rule="evenodd" clip-rule="evenodd" d="M18.2608 18.3197C18.2608 22.8756 14.5851 26.5642 10.0435 26.5642C5.50321 26.5642 1.82607 22.8756 1.82607 18.3197C1.82607 13.7653 5.50321 10.0761 10.0435 10.0761C14.5851 10.0761 18.2608 13.7653 18.2608 18.3197Z" fill="#F15A29"/>
<path fill-rule="evenodd" clip-rule="evenodd" d="M101.348 9.15997C101.348 13.7141 97.6696 17.4041 93.1312 17.4041C88.59 17.4041 84.913 13.7141 84.913 9.15997C84.913 4.60495 88.59 0.916008 93.1312 0.916008C97.6696 0.916008 101.348 4.60495 101.348 9.15997Z" fill="#FFB100"/>
<path fill-rule="evenodd" clip-rule="evenodd" d="M167.087 114.501C167.087 119.056 163.41 122.745 158.87 122.745C154.331 122.745 150.652 119.056 150.652 114.501C150.652 109.947 154.331 106.257 158.87 106.257C163.41 106.257 167.087 109.947 167.087 114.501Z" fill="#FA921D"/>
<path fill-rule="evenodd" clip-rule="evenodd" d="M136.958 0C132.416 0 128.739 3.68905 128.739 8.2438C128.739 12.7984 132.416 16.4881 136.958 16.4881C141.497 16.4881 145.174 12.7984 145.174 8.2438C145.174 3.68905 141.497 0 136.958 0Z" fill="#61BC09"/>
<path fill-rule="evenodd" clip-rule="evenodd" d="M151.565 44.8838C151.565 49.4379 155.243 53.1283 159.783 53.1283C164.322 53.1283 168 49.4379 168 44.8838C168 40.3293 164.322 36.6402 159.783 36.6402C155.243 36.6402 151.565 40.3293 151.565 44.8838Z" fill="#224A5B"/>
<path fill-rule="evenodd" clip-rule="evenodd" d="M63.913 47.6325C63.913 52.1864 67.5891 55.8763 72.1312 55.8763C76.6732 55.8763 80.3478 52.1864 80.3478 47.6325C80.3478 43.0773 76.6732 39.3882 72.1312 39.3882C67.5891 39.3882 63.913 43.0773 63.913 47.6325Z" fill="#F15A29"/>
<path fill-rule="evenodd" clip-rule="evenodd" d="M66.6522 123.661C66.6522 128.215 70.3279 131.905 74.8696 131.905C79.4084 131.905 83.0869 128.215 83.0869 123.661C83.0869 119.107 79.4084 115.417 74.8696 115.417C70.3279 115.417 66.6522 119.107 66.6522 123.661Z" fill="#F15A29"/>
<path fill-rule="evenodd" clip-rule="evenodd" d="M22.8261 125.493C22.8261 130.048 26.5023 133.737 31.0444 133.737C35.5817 133.737 39.2609 130.048 39.2609 125.493C39.2609 120.939 35.5817 117.249 31.0444 117.249C26.5023 117.249 22.8261 120.939 22.8261 125.493Z" fill="#224A5B"/>
<path fill-rule="evenodd" clip-rule="evenodd" d="M0 87.9364C0 92.491 3.67851 96.1806 8.21816 96.1806C12.7578 96.1806 16.4348 92.491 16.4348 87.9364C16.4348 83.3828 12.7578 79.6925 8.21816 79.6925C3.67851 79.6925 0 83.3828 0 87.9364Z" fill="#61BC09"/>
<path fill-rule="evenodd" clip-rule="evenodd" d="M21 49.4651C21 54.0199 24.6773 57.7083 29.2174 57.7083C33.7575 57.7083 37.4348 54.0199 37.4348 49.4651C37.4348 44.9095 33.7575 41.2202 29.2174 41.2202C24.6773 41.2202 21 44.9095 21 49.4651Z" fill="#224A5B"/>
<path fill-rule="evenodd" clip-rule="evenodd" d="M130.565 83.3572C130.565 87.91 134.245 91.6006 138.783 91.6006C143.32 91.6006 147 87.91 147 83.3572C147 78.8023 143.32 75.1125 138.783 75.1125C134.245 75.1125 130.565 78.8023 130.565 83.3572Z" fill="#F15A29"/>
<path fill-rule="evenodd" clip-rule="evenodd" d="M87.6522 85.188C87.6522 89.7435 91.3305 93.4326 95.8688 93.4326C100.41 93.4326 104.087 89.7435 104.087 85.188C104.087 80.6341 100.41 76.9445 95.8688 76.9445C91.3305 76.9445 87.6522 80.6341 87.6522 85.188Z" fill="#61BC09"/>
</svg>
