<svg width="270" height="50" viewBox="0 0 270 50" fill="none" xmlns="http://www.w3.org/2000/svg">
<path d="M262.096 29.4665V19.6289L257.52 6.19612H261.05L263.73 15.4454H263.795L266.475 6.19612H270.005L265.429 19.6289V29.4665H262.096Z" fill="#014170"/>
<path d="M245.649 29.4665V6.19612H250.585C252.502 6.19612 253.951 6.71905 254.931 7.76491C255.934 8.81077 256.435 10.2924 256.435 12.2098V23.0933C256.435 25.2722 255.901 26.8845 254.833 27.9304C253.788 28.9545 252.273 29.4665 250.29 29.4665H245.649ZM248.983 9.3337V26.3289H250.519C251.456 26.3289 252.121 26.1001 252.513 25.6426C252.905 25.1632 253.101 24.4224 253.101 23.4201V12.2098C253.101 11.2947 252.916 10.5866 252.546 10.0854C252.175 9.58427 251.5 9.3337 250.519 9.3337H248.983Z" fill="#014170"/>
<path d="M231.734 29.4665V6.19612H236.669C238.586 6.19612 240.035 6.71905 241.016 7.76491C242.018 8.81077 242.519 10.2924 242.519 12.2098V23.0933C242.519 25.2722 241.985 26.8845 240.917 27.9304C239.872 28.9545 238.357 29.4665 236.375 29.4665H231.734ZM235.067 9.3337V26.3289H236.603C237.54 26.3289 238.205 26.1001 238.597 25.6426C238.989 25.1632 239.185 24.4224 239.185 23.4201V12.2098C239.185 11.2947 239 10.5866 238.63 10.0854C238.259 9.58427 237.584 9.3337 236.603 9.3337H235.067Z" fill="#014170"/>
<path d="M228.603 6.19612V24.2372C228.603 24.9998 228.461 25.7079 228.178 26.3616C227.917 26.9935 227.535 27.56 227.034 28.0611C226.533 28.5623 225.956 28.9545 225.302 29.2377C224.648 29.521 223.951 29.6626 223.21 29.6626C222.47 29.6626 221.772 29.521 221.119 29.2377C220.487 28.9545 219.92 28.5623 219.419 28.0611C218.918 27.56 218.526 26.9935 218.243 26.3616C217.959 25.7079 217.818 24.9998 217.818 24.2372V6.19612H221.151V23.9104C221.151 24.7383 221.347 25.3484 221.74 25.7406C222.132 26.1328 222.622 26.3289 223.21 26.3289C223.799 26.3289 224.289 26.1328 224.681 25.7406C225.073 25.3484 225.269 24.7383 225.269 23.9104V6.19612H228.603Z" fill="#014170"/>
<path d="M203.902 29.4665V6.19612H208.772C209.839 6.19612 210.743 6.35954 211.484 6.68637C212.247 7.0132 212.868 7.44897 213.347 7.99369C213.827 8.53841 214.164 9.17028 214.36 9.88931C214.578 10.5866 214.687 11.3165 214.687 12.0791V12.9288C214.687 13.5607 214.633 14.0945 214.524 14.5303C214.437 14.9661 214.295 15.3474 214.099 15.6742C213.728 16.2843 213.162 16.8072 212.399 17.243C213.184 17.6134 213.761 18.1581 214.132 18.8772C214.502 19.5962 214.687 20.5767 214.687 21.8187V23.126C214.687 25.1741 214.186 26.7429 213.184 27.8323C212.203 28.9218 210.624 29.4665 208.445 29.4665H203.902ZM207.235 18.6811V26.1328H208.674C209.349 26.1328 209.872 26.0348 210.242 25.8387C210.634 25.6426 210.929 25.3702 211.125 25.0216C211.321 24.673 211.441 24.259 211.484 23.7796C211.528 23.3003 211.55 22.7774 211.55 22.2108C211.55 21.6226 211.517 21.1105 211.452 20.6747C211.386 20.239 211.255 19.8686 211.059 19.5635C210.841 19.2585 210.547 19.0406 210.177 18.9099C209.807 18.7573 209.316 18.6811 208.706 18.6811H207.235ZM207.235 9.3337V15.7396H208.739C209.85 15.7396 210.591 15.4672 210.961 14.9225C211.354 14.356 211.55 13.5389 211.55 12.4713C211.55 11.4254 211.332 10.641 210.896 10.1181C210.482 9.59517 209.719 9.3337 208.608 9.3337H207.235Z" fill="#014170"/>
<path d="M185.741 29.4665V6.19612H195.677V9.3337H189.075V16.1645H194.827V19.3021H189.075V26.1328H195.677V29.4665H185.741Z" fill="#61BC09"/>
<path d="M171.825 29.4665V6.19612H176.76C178.678 6.19612 180.127 6.71905 181.107 7.76491C182.109 8.81077 182.61 10.2924 182.61 12.2098V23.0933C182.61 25.2722 182.077 26.8845 181.009 27.9304C179.963 28.9545 178.449 29.4665 176.466 29.4665H171.825ZM175.159 9.3337V26.3289H176.695C177.632 26.3289 178.296 26.1001 178.688 25.6426C179.081 25.1632 179.277 24.4224 179.277 23.4201V12.2098C179.277 11.2947 179.092 10.5866 178.721 10.0854C178.351 9.58427 177.675 9.3337 176.695 9.3337H175.159Z" fill="#61BC09"/>
<path d="M165.248 21.3284L163.614 12.8962H163.549L161.915 21.3284H165.248ZM157.012 29.4665L162.209 6.19612H164.987L170.184 29.4665H166.85L165.869 24.466H161.326L160.346 29.4665H157.012Z" fill="#61BC09"/>
<path d="M147.934 9.3337V16.5894H149.829C150.417 16.5894 150.886 16.5131 151.235 16.3606C151.583 16.1863 151.856 15.9466 152.052 15.6415C152.226 15.3365 152.346 14.9661 152.411 14.5303C152.476 14.0728 152.509 13.5498 152.509 12.9615C152.509 12.3732 152.476 11.8612 152.411 11.4254C152.346 10.9679 152.215 10.5757 152.019 10.2488C151.605 9.63874 150.821 9.3337 149.666 9.3337H147.934ZM144.6 29.4665V6.19612H149.96C153.882 6.19612 155.843 8.47305 155.843 13.0269C155.843 14.3996 155.625 15.5653 155.189 16.524C154.775 17.4827 154.034 18.2562 152.967 18.8445L156.562 29.4665H153.032L149.927 19.5308H147.934V29.4665H144.6Z" fill="#61BC09"/>
<path d="M135.938 29.4665V9.3337H132.081V6.19612H143.128V9.3337H139.271V29.4665H135.938Z" fill="#61BC09"/>
<path d="M109.523 29.4665V6.19612H112.726L117.007 18.5177H117.073L121.322 6.19612H124.557V29.4665H121.223V15.3147H121.158L117.857 25.3157H116.19L112.922 15.3147H112.857V29.4665H109.523Z" fill="#014170"/>
<path d="M97.4263 29.4665V6.19612H107.362V9.3337H100.76V16.1645H106.512V19.3021H100.76V26.1328H107.362V29.4665H97.4263Z" fill="#014170"/>
<path d="M83.5104 29.4665V6.19612H86.8441V16.1645H90.9622V6.19612H94.2959V29.4665H90.9622V19.106H86.8441V29.4665H83.5104Z" fill="#014170"/>
<path d="M80.7903 22.8318V24.2699C80.7903 24.9889 80.6487 25.6752 80.3654 26.3289C80.104 26.9608 79.7336 27.5273 79.2542 28.0284C78.7749 28.5296 78.2083 28.9327 77.5547 29.2377C76.9228 29.521 76.2365 29.6626 75.4956 29.6626C74.8638 29.6626 74.221 29.5754 73.5673 29.4011C72.9137 29.2268 72.3254 28.9218 71.8025 28.486C71.2795 28.0502 70.8437 27.4946 70.4951 26.8192C70.1683 26.1219 70.0049 25.2395 70.0049 24.1718V11.36C70.0049 10.5974 70.1356 9.88929 70.3971 9.23563C70.6585 8.58197 71.029 8.01546 71.5083 7.53611C71.9877 7.05676 72.5542 6.68635 73.2078 6.42488C73.8833 6.14163 74.6241 6 75.4303 6C76.9991 6 78.2737 6.51204 79.2542 7.53611C79.7336 8.03725 80.104 8.63644 80.3654 9.33368C80.6487 10.0091 80.7903 10.7499 80.7903 11.5561V12.8635H77.4566V11.7522C77.4566 11.0986 77.2714 10.5321 76.901 10.0527C76.5306 9.57335 76.0295 9.33368 75.3976 9.33368C74.5696 9.33368 74.014 9.59514 73.7308 10.1181C73.4693 10.6192 73.3386 11.262 73.3386 12.0464V23.943C73.3386 24.6185 73.4802 25.185 73.7634 25.6426C74.0685 26.1001 74.6023 26.3289 75.3649 26.3289C75.5828 26.3289 75.8116 26.2962 76.0513 26.2309C76.3127 26.1437 76.5524 26.013 76.7703 25.8387C76.9664 25.6643 77.1298 25.4247 77.2605 25.1196C77.3913 24.8146 77.4566 24.4333 77.4566 23.9757V22.8318H80.7903Z" fill="#014170"/>
<path d="M264.375 37.4346V41.5028H263.529V36.3303H264.328L264.375 37.4346ZM264.17 38.7206L263.826 38.7062C263.822 38.3525 263.862 38.0258 263.945 37.7262C264.031 37.4235 264.152 37.1605 264.309 36.9374C264.468 36.7144 264.657 36.5423 264.877 36.4211C265.097 36.2969 265.341 36.2347 265.609 36.2347C265.819 36.2347 266.01 36.2698 266.182 36.3399C266.355 36.4068 266.501 36.5152 266.622 36.665C266.743 36.8147 266.836 37.0091 266.9 37.2482C266.966 37.484 267 37.7724 267 38.1134V41.5028H266.154V38.1039C266.154 37.833 266.124 37.6163 266.063 37.4537C266.006 37.288 265.916 37.1685 265.795 37.0952C265.677 37.0187 265.528 36.9805 265.346 36.9805C265.18 36.9805 265.026 37.0267 264.882 37.1191C264.739 37.2115 264.613 37.339 264.505 37.5015C264.399 37.6641 264.316 37.8505 264.256 38.0609C264.199 38.268 264.17 38.4879 264.17 38.7206Z" fill="#727272"/>
<path d="M262.191 36.3303V41.5028H261.35V36.3303H262.191ZM261.302 34.9583C261.302 34.8149 261.342 34.6938 261.421 34.595C261.501 34.4962 261.62 34.4468 261.78 34.4468C261.939 34.4468 262.059 34.4962 262.138 34.595C262.221 34.6938 262.263 34.8149 262.263 34.9583C262.263 35.0953 262.221 35.2132 262.138 35.312C262.059 35.4077 261.939 35.4555 261.78 35.4555C261.62 35.4555 261.501 35.4077 261.421 35.312C261.342 35.2132 261.302 35.0953 261.302 34.9583Z" fill="#727272"/>
<path d="M259.122 40.6184V37.8123C259.122 37.6083 259.09 37.4442 259.026 37.3199C258.966 37.1956 258.873 37.1048 258.749 37.0474C258.628 36.99 258.475 36.9613 258.29 36.9613C258.111 36.9613 257.957 36.998 257.826 37.0713C257.699 37.1446 257.6 37.2418 257.53 37.3629C257.463 37.484 257.429 37.6179 257.429 37.7645H256.583C256.583 37.5796 256.623 37.3964 256.703 37.2147C256.786 37.0331 256.904 36.8689 257.057 36.7223C257.21 36.5725 257.393 36.4546 257.606 36.3686C257.823 36.2793 258.065 36.2347 258.333 36.2347C258.652 36.2347 258.934 36.2873 259.179 36.3925C259.425 36.4945 259.617 36.6618 259.758 36.8944C259.898 37.1271 259.968 37.4362 259.968 37.8218V40.3746C259.968 40.5467 259.981 40.73 260.006 40.9244C260.035 41.1188 260.075 41.2861 260.126 41.4263V41.5028H259.251C259.209 41.4008 259.178 41.2654 259.155 41.0965C259.133 40.9244 259.122 40.765 259.122 40.6184ZM259.256 38.3668L259.265 38.9883H258.677C258.476 38.9883 258.293 39.0106 258.127 39.0552C257.965 39.0998 257.825 39.1651 257.707 39.2512C257.589 39.3341 257.498 39.4376 257.434 39.5619C257.374 39.6862 257.343 39.828 257.343 39.9874C257.343 40.1945 257.372 40.3603 257.429 40.4846C257.487 40.6057 257.573 40.6933 257.688 40.7475C257.802 40.8017 257.947 40.8288 258.123 40.8288C258.336 40.8288 258.524 40.7794 258.687 40.6806C258.849 40.5818 258.975 40.4623 259.064 40.322C259.157 40.1818 259.2 40.0511 259.193 39.93L259.38 40.3268C259.367 40.4511 259.326 40.5865 259.256 40.7331C259.189 40.8766 259.095 41.0152 258.974 41.1491C258.852 41.2797 258.709 41.3881 258.543 41.4741C258.381 41.557 258.198 41.5984 257.994 41.5984C257.694 41.5984 257.431 41.5411 257.205 41.4263C256.982 41.3116 256.808 41.1427 256.684 40.9196C256.559 40.6965 256.497 40.4208 256.497 40.0926C256.497 39.844 256.54 39.6145 256.626 39.4042C256.712 39.1938 256.84 39.0122 257.009 38.8592C257.178 38.703 257.39 38.5819 257.645 38.4959C257.903 38.4098 258.201 38.3668 258.539 38.3668H259.256Z" fill="#727272"/>
<path d="M252.702 34.16V41.5028H251.855V34.16H252.702ZM252.496 38.7206L252.152 38.7062C252.149 38.3525 252.189 38.0258 252.271 37.7262C252.357 37.4235 252.479 37.1605 252.635 36.9374C252.794 36.7143 252.984 36.5422 253.204 36.4211C253.423 36.2969 253.667 36.2347 253.935 36.2347C254.145 36.2347 254.337 36.2698 254.509 36.3399C254.681 36.4068 254.827 36.5152 254.948 36.6649C255.07 36.8147 255.162 37.0091 255.226 37.2482C255.293 37.484 255.326 37.7724 255.326 38.1134V41.5028H254.48V38.1039C254.48 37.833 254.45 37.6163 254.389 37.4537C254.332 37.288 254.243 37.1685 254.121 37.0952C254.003 37.0187 253.854 36.9805 253.672 36.9805C253.506 36.9805 253.352 37.0267 253.208 37.1191C253.065 37.2115 252.939 37.339 252.831 37.5015C252.726 37.6641 252.643 37.8505 252.582 38.0609C252.525 38.268 252.496 38.4879 252.496 38.7206Z" fill="#727272"/>
<path d="M249.126 40.8766C249.295 40.8766 249.448 40.8431 249.585 40.7762C249.725 40.7061 249.84 40.5977 249.929 40.4511C250.018 40.3013 250.069 40.1069 250.082 39.8679H250.875C250.863 40.2121 250.775 40.5148 250.613 40.7762C250.453 41.0343 250.243 41.2367 249.981 41.3833C249.723 41.5267 249.438 41.5984 249.126 41.5984C248.791 41.5984 248.5 41.5442 248.251 41.4359C248.006 41.3275 247.802 41.1714 247.639 40.9674C247.48 40.7602 247.36 40.5101 247.281 40.2169C247.201 39.9205 247.161 39.5842 247.161 39.2082V38.625C247.161 38.2489 247.201 37.9143 247.281 37.6211C247.36 37.3247 247.48 37.0745 247.639 36.8705C247.802 36.6634 248.006 36.5056 248.251 36.3972C248.5 36.2889 248.791 36.2347 249.126 36.2347C249.476 36.2347 249.779 36.3096 250.034 36.4594C250.292 36.606 250.493 36.8195 250.636 37.1C250.783 37.3772 250.863 37.7135 250.875 38.1087H250.082C250.069 37.8537 250.023 37.6418 249.943 37.4729C249.864 37.3008 249.755 37.1733 249.618 37.0904C249.481 37.0044 249.317 36.9613 249.126 36.9613C248.903 36.9613 248.718 37.0012 248.571 37.0809C248.428 37.1573 248.315 37.2689 248.232 37.4155C248.149 37.5621 248.09 37.7374 248.055 37.9413C248.023 38.1453 248.007 38.3732 248.007 38.625V39.2082C248.007 39.4599 248.023 39.6894 248.055 39.8966C248.09 40.1005 248.147 40.2758 248.227 40.4224C248.31 40.569 248.425 40.6822 248.571 40.7618C248.718 40.8383 248.903 40.8766 249.126 40.8766Z" fill="#727272"/>
<path d="M242.204 40.9676L243.356 36.3305H244.254L242.548 42.3013C242.506 42.4288 242.451 42.5659 242.38 42.7125C242.313 42.8622 242.227 43.0041 242.122 43.1379C242.017 43.2718 241.891 43.3801 241.745 43.463C241.598 43.549 241.426 43.5921 241.228 43.5921C241.168 43.5921 241.09 43.5825 240.994 43.5634C240.902 43.5443 240.835 43.5283 240.793 43.5156V42.7985C240.812 42.8017 240.843 42.8049 240.884 42.8081C240.926 42.8144 240.956 42.8176 240.975 42.8176C241.141 42.8176 241.281 42.7905 241.396 42.7364C241.514 42.6854 241.614 42.5977 241.697 42.4734C241.78 42.3523 241.85 42.185 241.907 41.9715L242.204 40.9676ZM241.458 36.3305L242.486 40.3461L242.706 41.2783L242.103 41.6034L240.535 36.3305H241.458Z" fill="#727272"/>
<path d="M239.665 34.16V41.5028H238.824V34.16H239.665Z" fill="#727272"/>
<path d="M234.775 37.3247V43.4915H233.929V36.3303H234.698L234.775 37.3247ZM237.667 38.6823V39.1652C237.667 39.5731 237.629 39.93 237.552 40.236C237.479 40.5387 237.369 40.7921 237.222 40.9961C237.079 41.1969 236.902 41.3482 236.692 41.4502C236.481 41.549 236.241 41.5984 235.97 41.5984C235.699 41.5984 235.463 41.5474 235.262 41.4454C235.065 41.3403 234.897 41.1889 234.76 40.9913C234.627 40.7937 234.52 40.5563 234.44 40.279C234.364 39.9985 234.311 39.6846 234.282 39.3372V38.6011C234.311 38.2345 234.364 37.9063 234.44 37.6163C234.517 37.3231 234.622 37.0745 234.756 36.8705C234.893 36.6634 235.06 36.5056 235.258 36.3972C235.458 36.2889 235.693 36.2347 235.96 36.2347C236.238 36.2347 236.481 36.2825 236.692 36.3781C236.905 36.4737 237.084 36.6219 237.227 36.8227C237.374 37.0203 237.484 37.2737 237.557 37.5828C237.63 37.8888 237.667 38.2553 237.667 38.6823ZM236.821 39.1652V38.6823C236.821 38.3955 236.798 38.1453 236.754 37.9318C236.712 37.7183 236.645 37.5414 236.553 37.4011C236.461 37.2609 236.344 37.1558 236.204 37.0856C236.064 37.0155 235.895 36.9805 235.697 36.9805C235.528 36.9805 235.379 37.0155 235.248 37.0856C235.121 37.1558 235.011 37.2514 234.918 37.3725C234.826 37.4904 234.749 37.6258 234.689 37.7788C234.628 37.9286 234.584 38.0848 234.555 38.2473V39.6958C234.609 39.8998 234.681 40.0926 234.77 40.2742C234.859 40.4527 234.979 40.5977 235.128 40.7092C235.281 40.8208 235.474 40.8766 235.707 40.8766C235.901 40.8766 236.069 40.8415 236.209 40.7714C236.349 40.7013 236.464 40.5961 236.553 40.4559C236.645 40.3125 236.712 40.134 236.754 39.9205C236.798 39.7038 236.821 39.452 236.821 39.1652Z" fill="#727272"/>
<path d="M229.947 37.3247V43.4915H229.1V36.3303H229.87L229.947 37.3247ZM232.839 38.6823V39.1652C232.839 39.5731 232.8 39.93 232.724 40.236C232.651 40.5387 232.541 40.7921 232.394 40.9961C232.251 41.1969 232.074 41.3482 231.864 41.4502C231.653 41.549 231.413 41.5984 231.142 41.5984C230.871 41.5984 230.635 41.5474 230.434 41.4454C230.237 41.3403 230.069 41.1889 229.932 40.9913C229.798 40.7937 229.692 40.5563 229.612 40.279C229.535 39.9985 229.483 39.6846 229.454 39.3372V38.6011C229.483 38.2345 229.535 37.9063 229.612 37.6163C229.688 37.3231 229.794 37.0745 229.927 36.8705C230.064 36.6634 230.232 36.5056 230.429 36.3972C230.63 36.2889 230.864 36.2347 231.132 36.2347C231.409 36.2347 231.653 36.2825 231.864 36.3781C232.077 36.4737 232.256 36.6219 232.399 36.8227C232.546 37.0203 232.655 37.2737 232.729 37.5828C232.802 37.8888 232.839 38.2553 232.839 38.6823ZM231.993 39.1652V38.6823C231.993 38.3955 231.97 38.1453 231.926 37.9318C231.884 37.7183 231.817 37.5414 231.725 37.4011C231.632 37.2609 231.516 37.1558 231.376 37.0856C231.236 37.0155 231.067 36.9805 230.869 36.9805C230.7 36.9805 230.55 37.0155 230.42 37.0856C230.292 37.1558 230.182 37.2514 230.09 37.3725C229.998 37.4904 229.921 37.6258 229.86 37.7788C229.8 37.9286 229.755 38.0848 229.727 38.2473V39.6958C229.781 39.8998 229.853 40.0926 229.942 40.2742C230.031 40.4527 230.151 40.5977 230.3 40.7092C230.453 40.8208 230.646 40.8766 230.879 40.8766C231.073 40.8766 231.24 40.8415 231.381 40.7714C231.521 40.7013 231.636 40.5961 231.725 40.4559C231.817 40.3125 231.884 40.134 231.926 39.9205C231.97 39.7038 231.993 39.452 231.993 39.1652Z" fill="#727272"/>
<path d="M226.983 40.3079V36.3305H227.829V41.503H227.026L226.983 40.3079ZM227.14 39.2179L227.475 39.2084C227.475 39.5526 227.445 39.8713 227.384 40.1645C227.327 40.4545 227.231 40.7062 227.097 40.9198C226.967 41.1333 226.793 41.3006 226.576 41.4217C226.359 41.5396 226.093 41.5986 225.778 41.5986C225.564 41.5986 225.37 41.562 225.195 41.4887C225.023 41.4154 224.873 41.3022 224.745 41.1492C224.621 40.9963 224.524 40.7971 224.454 40.5517C224.387 40.3063 224.353 40.0115 224.353 39.6673V36.3305H225.195V39.6768C225.195 39.9095 225.215 40.1023 225.257 40.2553C225.298 40.4051 225.354 40.5246 225.424 40.6138C225.494 40.6999 225.572 40.7604 225.658 40.7955C225.744 40.8305 225.832 40.8481 225.921 40.8481C226.221 40.8481 226.46 40.7764 226.638 40.6329C226.817 40.4863 226.944 40.2903 227.021 40.0449C227.1 39.7964 227.14 39.5207 227.14 39.2179Z" fill="#727272"/>
<path d="M222.412 40.1786C222.412 40.0479 222.381 39.9332 222.317 39.8344C222.253 39.7356 222.148 39.64 222.001 39.5476C221.858 39.4552 221.663 39.3564 221.418 39.2512C221.179 39.1524 220.964 39.0552 220.773 38.9596C220.585 38.8608 220.425 38.754 220.295 38.6393C220.164 38.5246 220.064 38.3923 219.993 38.2425C219.927 38.0895 219.893 37.9095 219.893 37.7023C219.893 37.4952 219.931 37.3039 220.008 37.1287C220.087 36.9502 220.199 36.794 220.342 36.6602C220.486 36.5263 220.658 36.4227 220.859 36.3494C221.06 36.273 221.284 36.2347 221.533 36.2347C221.887 36.2347 222.188 36.3032 222.436 36.4403C222.685 36.5773 222.874 36.7653 223.005 37.0044C223.139 37.2402 223.206 37.5063 223.206 37.8027H222.365C222.365 37.6593 222.333 37.5238 222.269 37.3964C222.205 37.2689 222.111 37.1653 221.987 37.0856C221.863 37.0028 221.711 36.9613 221.533 36.9613C221.345 36.9613 221.192 36.9948 221.074 37.0617C220.956 37.1287 220.87 37.2163 220.816 37.3247C220.765 37.4298 220.739 37.5462 220.739 37.6736C220.739 37.7692 220.752 37.8521 220.777 37.9222C220.806 37.9891 220.854 38.0529 220.921 38.1134C220.988 38.1708 221.079 38.2314 221.193 38.2951C221.311 38.3557 221.461 38.4258 221.643 38.5054C221.993 38.6425 222.288 38.7811 222.527 38.9213C222.766 39.0616 222.948 39.2257 223.072 39.4137C223.196 39.6018 223.259 39.8344 223.259 40.1117C223.259 40.338 223.217 40.5435 223.134 40.7284C223.055 40.91 222.94 41.0662 222.79 41.1969C222.64 41.3275 222.46 41.4279 222.25 41.498C222.043 41.565 221.81 41.5984 221.552 41.5984C221.163 41.5984 220.833 41.5219 220.562 41.369C220.295 41.2128 220.091 41.0104 219.95 40.7618C219.813 40.5101 219.745 40.2408 219.745 39.9539H220.591C220.601 40.1961 220.655 40.3842 220.754 40.518C220.856 40.6519 220.978 40.7443 221.122 40.7953C221.265 40.8463 221.408 40.8718 221.552 40.8718C221.74 40.8718 221.898 40.8447 222.025 40.7905C222.153 40.7331 222.248 40.6519 222.312 40.5467C222.379 40.4415 222.412 40.3188 222.412 40.1786Z" fill="#727272"/>
<path d="M214.917 41.5984C214.607 41.5984 214.329 41.5522 214.08 41.4598C213.831 41.3674 213.619 41.2271 213.444 41.0391C213.269 40.8479 213.135 40.6073 213.043 40.3172C212.95 40.0272 212.904 39.6846 212.904 39.2894V38.7062C212.904 38.2505 212.957 37.8649 213.062 37.5493C213.17 37.2338 213.315 36.9805 213.497 36.7892C213.678 36.5948 213.884 36.4546 214.113 36.3686C214.343 36.2793 214.579 36.2347 214.821 36.2347C215.146 36.2347 215.423 36.2873 215.653 36.3925C215.882 36.4976 216.069 36.6538 216.212 36.861C216.355 37.0681 216.461 37.3231 216.528 37.6258C216.598 37.9286 216.633 38.2776 216.633 38.6728V39.1651H213.401V38.4433H215.787V38.3238C215.774 38.0561 215.737 37.8202 215.677 37.6163C215.619 37.4123 215.524 37.253 215.39 37.1382C215.256 37.0203 215.066 36.9613 214.821 36.9613C214.665 36.9613 214.52 36.9884 214.386 37.0426C214.255 37.0936 214.142 37.1844 214.047 37.3151C213.954 37.4426 213.881 37.6195 213.827 37.8457C213.776 38.072 213.75 38.3588 213.75 38.7062V39.2894C213.75 39.5667 213.776 39.8057 213.827 40.0065C213.881 40.2041 213.959 40.3682 214.061 40.4989C214.166 40.6264 214.294 40.722 214.443 40.7857C214.596 40.8463 214.77 40.8766 214.964 40.8766C215.248 40.8766 215.482 40.8224 215.667 40.714C215.852 40.6025 216.013 40.4607 216.15 40.2886L216.595 40.8192C216.502 40.9499 216.381 41.0758 216.231 41.1969C216.085 41.3148 215.903 41.412 215.686 41.4885C215.473 41.5618 215.216 41.5984 214.917 41.5984Z" fill="#727272"/>
<path d="M212.058 36.3304V37.0093H209.644V36.3304H212.058ZM210.433 35.0732H211.279V40.2218C211.279 40.3971 211.299 40.5293 211.341 40.6185C211.385 40.7078 211.441 40.7667 211.508 40.7954C211.575 40.8241 211.647 40.8384 211.723 40.8384C211.781 40.8384 211.844 40.8321 211.914 40.8193C211.985 40.8034 212.032 40.7906 212.058 40.7811L212.053 41.5029C211.996 41.5252 211.919 41.546 211.824 41.5651C211.728 41.5874 211.607 41.5985 211.46 41.5985C211.279 41.5985 211.11 41.5555 210.954 41.4695C210.797 41.3834 210.672 41.24 210.576 41.0392C210.48 40.8353 210.433 40.5612 210.433 40.217V35.0732Z" fill="#727272"/>
<path d="M208.009 40.6184V37.8123C208.009 37.6083 207.977 37.4442 207.913 37.3199C207.853 37.1956 207.76 37.1048 207.636 37.0474C207.515 36.99 207.362 36.9613 207.177 36.9613C206.998 36.9613 206.844 36.998 206.713 37.0713C206.586 37.1446 206.487 37.2418 206.417 37.3629C206.35 37.484 206.316 37.6179 206.316 37.7645H205.47C205.47 37.5796 205.51 37.3964 205.59 37.2147C205.673 37.0331 205.791 36.8689 205.944 36.7223C206.097 36.5725 206.28 36.4546 206.493 36.3686C206.71 36.2793 206.952 36.2347 207.22 36.2347C207.539 36.2347 207.821 36.2873 208.066 36.3925C208.312 36.4945 208.504 36.6618 208.645 36.8944C208.785 37.1271 208.855 37.4362 208.855 37.8218V40.3746C208.855 40.5467 208.868 40.73 208.893 40.9244C208.922 41.1188 208.962 41.2861 209.013 41.4263V41.5028H208.138C208.096 41.4008 208.065 41.2654 208.042 41.0965C208.02 40.9244 208.009 40.765 208.009 40.6184ZM208.143 38.3668L208.152 38.9883H207.564C207.363 38.9883 207.18 39.0106 207.014 39.0552C206.852 39.0998 206.712 39.1651 206.594 39.2512C206.476 39.3341 206.385 39.4376 206.321 39.5619C206.261 39.6862 206.23 39.828 206.23 39.9874C206.23 40.1945 206.259 40.3603 206.316 40.4846C206.374 40.6057 206.46 40.6933 206.575 40.7475C206.689 40.8017 206.834 40.8288 207.01 40.8288C207.223 40.8288 207.411 40.7794 207.574 40.6806C207.736 40.5818 207.862 40.4623 207.951 40.322C208.044 40.1818 208.087 40.0511 208.08 39.93L208.267 40.3268C208.254 40.4511 208.213 40.5865 208.143 40.7331C208.076 40.8766 207.982 41.0152 207.861 41.1491C207.739 41.2797 207.596 41.3881 207.43 41.4741C207.268 41.557 207.085 41.5984 206.881 41.5984C206.581 41.5984 206.318 41.5411 206.092 41.4263C205.869 41.3116 205.695 41.1427 205.571 40.9196C205.446 40.6965 205.384 40.4208 205.384 40.0926C205.384 39.844 205.427 39.6145 205.513 39.4042C205.599 39.1938 205.727 39.0122 205.896 38.8592C206.065 38.703 206.277 38.5819 206.532 38.4959C206.79 38.4098 207.088 38.3668 207.426 38.3668H208.143Z" fill="#727272"/>
<path d="M201.579 37.4346V41.5028H200.733V36.3303H201.531L201.579 37.4346ZM201.373 38.7206L201.029 38.7062C201.026 38.3525 201.066 38.0258 201.149 37.7262C201.235 37.4235 201.356 37.1605 201.512 36.9374C201.671 36.7144 201.861 36.5423 202.081 36.4211C202.301 36.2969 202.545 36.2347 202.812 36.2347C203.023 36.2347 203.214 36.2698 203.386 36.3399C203.558 36.4068 203.705 36.5152 203.826 36.665C203.947 36.8147 204.039 37.0091 204.103 37.2482C204.17 37.484 204.203 37.7724 204.203 38.1134V41.5028H203.357V38.1039C203.357 37.833 203.327 37.6163 203.267 37.4537C203.209 37.288 203.12 37.1685 202.999 37.0952C202.881 37.0187 202.731 36.9805 202.549 36.9805C202.384 36.9805 202.229 37.0267 202.086 37.1191C201.942 37.2115 201.816 37.339 201.708 37.5015C201.603 37.6641 201.52 37.8505 201.459 38.0609C201.402 38.268 201.373 38.4879 201.373 38.7206Z" fill="#727272"/>
<path d="M198.596 37.143V41.5028H197.75V36.3303H198.567L198.596 37.143ZM199.882 36.3016L199.887 37.1239C199.817 37.1079 199.753 37.0984 199.696 37.0952C199.641 37.0888 199.578 37.0856 199.504 37.0856C199.345 37.0856 199.205 37.1175 199.084 37.1812C198.966 37.245 198.864 37.3342 198.778 37.449C198.692 37.5637 198.623 37.7007 198.572 37.8601C198.521 38.0162 198.486 38.1883 198.467 38.3764L198.247 38.5198C198.247 38.2075 198.271 37.9143 198.319 37.6402C198.37 37.3661 198.448 37.1239 198.553 36.9135C198.658 36.7 198.792 36.5343 198.955 36.4164C199.12 36.2953 199.318 36.2347 199.547 36.2347C199.598 36.2347 199.66 36.2427 199.734 36.2586C199.81 36.2714 199.86 36.2857 199.882 36.3016Z" fill="#727272"/>
<path d="M195.011 41.5984C194.701 41.5984 194.423 41.5522 194.174 41.4598C193.925 41.3674 193.714 41.2271 193.538 41.0391C193.363 40.8479 193.229 40.6073 193.137 40.3172C193.044 40.0272 192.998 39.6846 192.998 39.2894V38.7062C192.998 38.2505 193.051 37.8649 193.156 37.5493C193.264 37.2338 193.409 36.9805 193.591 36.7892C193.772 36.5948 193.978 36.4546 194.208 36.3686C194.437 36.2793 194.673 36.2347 194.915 36.2347C195.24 36.2347 195.517 36.2873 195.747 36.3925C195.976 36.4976 196.163 36.6538 196.306 36.861C196.45 37.0681 196.555 37.3231 196.622 37.6258C196.692 37.9286 196.727 38.2776 196.727 38.6728V39.1651H193.495V38.4433H195.881V38.3238C195.868 38.0561 195.831 37.8202 195.771 37.6163C195.713 37.4123 195.618 37.253 195.484 37.1382C195.35 37.0203 195.16 36.9613 194.915 36.9613C194.759 36.9613 194.614 36.9884 194.48 37.0426C194.349 37.0936 194.236 37.1844 194.141 37.3151C194.048 37.4426 193.975 37.6195 193.921 37.8457C193.87 38.072 193.844 38.3588 193.844 38.7062V39.2894C193.844 39.5667 193.87 39.8057 193.921 40.0065C193.975 40.2041 194.053 40.3682 194.155 40.4989C194.26 40.6264 194.388 40.722 194.537 40.7857C194.69 40.8463 194.864 40.8766 195.058 40.8766C195.342 40.8766 195.576 40.8224 195.761 40.714C195.946 40.6025 196.107 40.4607 196.244 40.2886L196.689 40.8192C196.596 40.9499 196.475 41.0758 196.325 41.1969C196.179 41.3148 195.997 41.412 195.78 41.4885C195.567 41.5618 195.31 41.5984 195.011 41.5984Z" fill="#727272"/>
<path d="M192.152 36.3304V37.0093H189.738V36.3304H192.152ZM190.526 35.0732H191.373V40.2218C191.373 40.3971 191.393 40.5293 191.435 40.6185C191.479 40.7078 191.535 40.7667 191.602 40.7954C191.669 40.8241 191.741 40.8384 191.817 40.8384C191.875 40.8384 191.938 40.8321 192.008 40.8193C192.079 40.8034 192.126 40.7906 192.152 40.7811L192.147 41.5029C192.09 41.5252 192.013 41.546 191.918 41.5651C191.822 41.5874 191.701 41.5985 191.554 41.5985C191.373 41.5985 191.204 41.5555 191.048 41.4695C190.891 41.3834 190.765 41.24 190.67 41.0392C190.574 40.8353 190.526 40.5612 190.526 40.217V35.0732Z" fill="#727272"/>
<path d="M188.925 34.16V41.5028H188.084V34.16H188.925Z" fill="#727272"/>
<path d="M185.856 40.6184V37.8123C185.856 37.6083 185.824 37.4442 185.76 37.3199C185.7 37.1956 185.607 37.1048 185.483 37.0474C185.362 36.99 185.209 36.9613 185.024 36.9613C184.846 36.9613 184.691 36.998 184.561 37.0713C184.433 37.1446 184.334 37.2418 184.264 37.3629C184.197 37.484 184.164 37.6179 184.164 37.7645H183.318C183.318 37.5796 183.357 37.3964 183.437 37.2147C183.52 37.0331 183.638 36.8689 183.791 36.7223C183.944 36.5725 184.127 36.4546 184.341 36.3686C184.557 36.2793 184.8 36.2347 185.067 36.2347C185.386 36.2347 185.668 36.2873 185.913 36.3925C186.159 36.4945 186.352 36.6618 186.492 36.8944C186.632 37.1271 186.702 37.4362 186.702 37.8218V40.3746C186.702 40.5467 186.715 40.73 186.74 40.9244C186.769 41.1188 186.809 41.2861 186.86 41.4263V41.5028H185.985C185.944 41.4008 185.912 41.2654 185.889 41.0965C185.867 40.9244 185.856 40.765 185.856 40.6184ZM185.99 38.3668L185.999 38.9883H185.411C185.211 38.9883 185.027 39.0106 184.862 39.0552C184.699 39.0998 184.559 39.1651 184.441 39.2512C184.323 39.3341 184.232 39.4376 184.169 39.5619C184.108 39.6862 184.078 39.828 184.078 39.9874C184.078 40.1945 184.106 40.3603 184.164 40.4846C184.221 40.6057 184.307 40.6933 184.422 40.7475C184.537 40.8017 184.682 40.8288 184.857 40.8288C185.07 40.8288 185.258 40.7794 185.421 40.6806C185.584 40.5818 185.709 40.4623 185.799 40.322C185.891 40.1818 185.934 40.0511 185.928 39.93L186.114 40.3268C186.101 40.4511 186.06 40.5865 185.99 40.7331C185.923 40.8766 185.829 41.0152 185.708 41.1491C185.587 41.2797 185.443 41.3881 185.278 41.4741C185.115 41.557 184.932 41.5984 184.728 41.5984C184.428 41.5984 184.165 41.5411 183.939 41.4263C183.716 41.3116 183.542 41.1427 183.418 40.9196C183.294 40.6965 183.232 40.4208 183.232 40.0926C183.232 39.844 183.275 39.6145 183.361 39.4042C183.447 39.1938 183.574 39.0122 183.743 38.8592C183.912 38.703 184.124 38.5819 184.379 38.4959C184.637 38.4098 184.935 38.3668 185.273 38.3668H185.99Z" fill="#727272"/>
<path d="M177.179 37.4346V41.5028H176.333V36.3303H177.132L177.179 37.4346ZM176.974 38.7206L176.63 38.7062C176.626 38.3525 176.666 38.0258 176.749 37.7262C176.835 37.4235 176.956 37.1605 177.112 36.9374C177.272 36.7144 177.461 36.5423 177.681 36.4211C177.901 36.2969 178.145 36.2347 178.413 36.2347C178.623 36.2347 178.814 36.2698 178.986 36.3399C179.159 36.4068 179.305 36.5152 179.426 36.665C179.547 36.8147 179.64 37.0091 179.703 37.2482C179.77 37.484 179.804 37.7724 179.804 38.1134V41.5028H178.958V38.1039C178.958 37.833 178.927 37.6163 178.867 37.4537C178.81 37.288 178.72 37.1685 178.599 37.0952C178.481 37.0187 178.331 36.9805 178.15 36.9805C177.984 36.9805 177.83 37.0267 177.686 37.1191C177.543 37.2115 177.417 37.339 177.308 37.5015C177.203 37.6641 177.12 37.8505 177.06 38.0609C177.003 38.268 176.974 38.4879 176.974 38.7206Z" fill="#727272"/>
<path d="M173.594 41.5984C173.285 41.5984 173.006 41.5522 172.757 41.4598C172.509 41.3674 172.297 41.2271 172.122 41.0391C171.946 40.8479 171.813 40.6073 171.72 40.3172C171.628 40.0272 171.581 39.6846 171.581 39.2894V38.7062C171.581 38.2505 171.634 37.8649 171.739 37.5493C171.848 37.2338 171.993 36.9805 172.174 36.7892C172.356 36.5948 172.561 36.4546 172.791 36.3686C173.02 36.2793 173.256 36.2347 173.498 36.2347C173.823 36.2347 174.101 36.2873 174.33 36.3925C174.56 36.4976 174.746 36.6538 174.89 36.861C175.033 37.0681 175.138 37.3231 175.205 37.6258C175.275 37.9286 175.31 38.2776 175.31 38.6728V39.1651H172.079V38.4433H174.464V38.3238C174.451 38.0561 174.415 37.8202 174.354 37.6163C174.297 37.4123 174.201 37.253 174.067 37.1382C173.933 37.0203 173.744 36.9613 173.498 36.9613C173.342 36.9613 173.197 36.9884 173.063 37.0426C172.933 37.0936 172.82 37.1844 172.724 37.3151C172.632 37.4426 172.558 37.6195 172.504 37.8457C172.453 38.072 172.428 38.3588 172.428 38.7062V39.2894C172.428 39.5667 172.453 39.8057 172.504 40.0065C172.558 40.2041 172.636 40.3682 172.738 40.4989C172.843 40.6264 172.971 40.722 173.121 40.7857C173.274 40.8463 173.447 40.8766 173.642 40.8766C173.925 40.8766 174.16 40.8224 174.345 40.714C174.529 40.6025 174.69 40.4607 174.827 40.2886L175.272 40.8192C175.18 40.9499 175.058 41.0758 174.909 41.1969C174.762 41.3148 174.58 41.412 174.364 41.4885C174.15 41.5618 173.894 41.5984 173.594 41.5984Z" fill="#727272"/>
<path d="M169.005 41.5984C168.696 41.5984 168.417 41.5522 168.168 41.4598C167.92 41.3674 167.708 41.2271 167.532 41.0391C167.357 40.8479 167.223 40.6073 167.131 40.3172C167.038 40.0272 166.992 39.6846 166.992 39.2894V38.7062C166.992 38.2505 167.045 37.8649 167.15 37.5493C167.258 37.2338 167.403 36.9805 167.585 36.7892C167.767 36.5948 167.972 36.4546 168.202 36.3686C168.431 36.2793 168.667 36.2347 168.909 36.2347C169.234 36.2347 169.512 36.2873 169.741 36.3925C169.97 36.4976 170.157 36.6538 170.3 36.861C170.444 37.0681 170.549 37.3231 170.616 37.6258C170.686 37.9286 170.721 38.2776 170.721 38.6728V39.1651H167.489V38.4433H169.875V38.3238C169.862 38.0561 169.825 37.8202 169.765 37.6163C169.708 37.4123 169.612 37.253 169.478 37.1382C169.344 37.0203 169.155 36.9613 168.909 36.9613C168.753 36.9613 168.608 36.9884 168.474 37.0426C168.343 37.0936 168.23 37.1844 168.135 37.3151C168.042 37.4426 167.969 37.6195 167.915 37.8457C167.864 38.072 167.838 38.3588 167.838 38.7062V39.2894C167.838 39.5667 167.864 39.8057 167.915 40.0065C167.969 40.2041 168.047 40.3682 168.149 40.4989C168.254 40.6264 168.382 40.722 168.531 40.7857C168.684 40.8463 168.858 40.8766 169.053 40.8766C169.336 40.8766 169.57 40.8224 169.755 40.714C169.94 40.6025 170.101 40.4607 170.238 40.2886L170.683 40.8192C170.59 40.9499 170.469 41.0758 170.319 41.1969C170.173 41.3148 169.991 41.412 169.774 41.4885C169.561 41.5618 169.304 41.5984 169.005 41.5984Z" fill="#727272"/>
<path d="M165.113 37.143V41.5028H164.267V36.3303H165.085L165.113 37.143ZM166.399 36.3016L166.404 37.1239C166.334 37.1079 166.27 37.0984 166.213 37.0952C166.159 37.0888 166.095 37.0856 166.022 37.0856C165.862 37.0856 165.722 37.1175 165.601 37.1812C165.483 37.245 165.381 37.3342 165.295 37.449C165.209 37.5637 165.141 37.7007 165.09 37.8601C165.039 38.0162 165.003 38.1883 164.984 38.3764L164.764 38.5198C164.764 38.2075 164.788 37.9143 164.836 37.6402C164.887 37.3661 164.965 37.1239 165.07 36.9135C165.176 36.7 165.309 36.5343 165.472 36.4164C165.638 36.2953 165.835 36.2347 166.065 36.2347C166.116 36.2347 166.178 36.2427 166.251 36.2586C166.328 36.2714 166.377 36.2857 166.399 36.3016Z" fill="#727272"/>
<path d="M162.957 38.0369V40.6327C162.881 40.7347 162.765 40.8622 162.608 41.0152C162.456 41.1681 162.24 41.3036 161.963 41.4215C161.686 41.5394 161.323 41.5984 160.873 41.5984C160.513 41.5984 160.183 41.5378 159.884 41.4167C159.587 41.2956 159.331 41.114 159.114 40.8718C158.9 40.6264 158.735 40.322 158.617 39.9587C158.499 39.5922 158.44 39.1635 158.44 38.6727V37.3677C158.44 36.88 158.489 36.453 158.588 36.0865C158.687 35.72 158.834 35.4156 159.028 35.1734C159.226 34.9312 159.469 34.7495 159.759 34.6284C160.053 34.5073 160.394 34.4468 160.782 34.4468C161.232 34.4468 161.614 34.5312 161.93 34.7001C162.245 34.8691 162.489 35.1129 162.661 35.4316C162.836 35.7503 162.935 36.1327 162.957 36.5789H162.078C162.056 36.292 161.995 36.0466 161.896 35.8427C161.797 35.6355 161.657 35.4778 161.476 35.3694C161.294 35.2579 161.063 35.2021 160.782 35.2021C160.515 35.2021 160.288 35.2467 160.104 35.3359C159.919 35.4252 159.767 35.559 159.649 35.7375C159.535 35.916 159.45 36.1407 159.396 36.4116C159.345 36.6825 159.32 36.998 159.32 37.3581V38.6727C159.32 39.0424 159.356 39.3643 159.429 39.6384C159.503 39.9125 159.606 40.1387 159.74 40.3172C159.877 40.4957 160.041 40.6295 160.233 40.7188C160.424 40.8048 160.639 40.8479 160.878 40.8479C161.149 40.8479 161.362 40.8192 161.519 40.7618C161.675 40.7044 161.794 40.6391 161.877 40.5658C161.963 40.4925 162.032 40.4335 162.083 40.3889V38.7827H160.806V38.0369H162.957Z" fill="#727272"/>
<path d="M152.957 35.1591L151.054 41.5028H150.155L152.397 34.5424H152.961L152.957 35.1591ZM154.496 41.5028L152.593 35.1591L152.584 34.5424H153.153L155.395 41.5028H154.496ZM154.496 38.9261V39.6814H151.14V38.9261H154.496Z" fill="#727272"/>
<path d="M147.478 38.1804V38.907H145.504V38.1804H147.478Z" fill="#727272"/>
<path d="M139.767 37.4346V41.5028H138.921V36.3303H139.72L139.767 37.4346ZM139.562 38.7206L139.218 38.7062C139.214 38.3525 139.254 38.0258 139.337 37.7262C139.423 37.4235 139.544 37.1605 139.7 36.9374C139.86 36.7144 140.049 36.5423 140.269 36.4211C140.489 36.2969 140.733 36.2347 141.001 36.2347C141.211 36.2347 141.402 36.2698 141.574 36.3399C141.747 36.4068 141.893 36.5152 142.014 36.665C142.135 36.8147 142.228 37.0091 142.292 37.2482C142.358 37.484 142.392 37.7724 142.392 38.1134V41.5028H141.546V38.1039C141.546 37.833 141.515 37.6163 141.455 37.4537C141.398 37.288 141.308 37.1685 141.187 37.0952C141.069 37.0187 140.92 36.9805 140.738 36.9805C140.572 36.9805 140.418 37.0267 140.274 37.1191C140.131 37.2115 140.005 37.339 139.896 37.5015C139.791 37.6641 139.708 37.8505 139.648 38.0609C139.591 38.268 139.562 38.4879 139.562 38.7206Z" fill="#727272"/>
<path d="M133.83 39.1651V38.6728C133.83 38.2712 133.881 37.919 133.983 37.6163C134.085 37.3103 134.227 37.0554 134.408 36.8514C134.59 36.6474 134.802 36.4945 135.044 36.3925C135.286 36.2873 135.546 36.2347 135.823 36.2347C136.107 36.2347 136.37 36.2873 136.612 36.3925C136.854 36.4945 137.066 36.6474 137.248 36.8514C137.433 37.0554 137.576 37.3103 137.678 37.6163C137.78 37.919 137.831 38.2712 137.831 38.6728V39.1651C137.831 39.5667 137.78 39.9205 137.678 40.2264C137.576 40.5292 137.434 40.7825 137.253 40.9865C137.071 41.1905 136.859 41.3435 136.617 41.4454C136.375 41.5474 136.113 41.5984 135.833 41.5984C135.553 41.5984 135.291 41.5474 135.049 41.4454C134.807 41.3435 134.593 41.1905 134.408 40.9865C134.227 40.7825 134.085 40.5292 133.983 40.2264C133.881 39.9205 133.83 39.5667 133.83 39.1651ZM134.676 38.6728V39.1651C134.676 39.4488 134.705 39.6974 134.762 39.9109C134.82 40.1244 134.901 40.3029 135.006 40.4463C135.111 40.5897 135.234 40.6981 135.374 40.7714C135.514 40.8415 135.667 40.8766 135.833 40.8766C136.024 40.8766 136.192 40.8415 136.335 40.7714C136.482 40.6981 136.603 40.5897 136.698 40.4463C136.794 40.3029 136.866 40.1244 136.913 39.9109C136.961 39.6974 136.985 39.4488 136.985 39.1651V38.6728C136.985 38.3891 136.956 38.1421 136.899 37.9318C136.842 37.7183 136.76 37.5398 136.655 37.3964C136.55 37.2498 136.426 37.1414 136.282 37.0713C136.142 36.998 135.989 36.9613 135.823 36.9613C135.661 36.9613 135.51 36.998 135.369 37.0713C135.229 37.1414 135.106 37.2498 135.001 37.3964C134.899 37.5398 134.82 37.7183 134.762 37.9318C134.705 38.1421 134.676 38.3891 134.676 38.6728Z" fill="#727272"/>
<path d="M132.668 36.3303V41.5028H131.827V36.3303H132.668ZM131.779 34.9583C131.779 34.8149 131.819 34.6938 131.899 34.595C131.978 34.4962 132.098 34.4468 132.257 34.4468C132.416 34.4468 132.536 34.4962 132.616 34.595C132.698 34.6938 132.74 34.8149 132.74 34.9583C132.74 35.0953 132.698 35.2132 132.616 35.312C132.536 35.4077 132.416 35.4555 132.257 35.4555C132.098 35.4555 131.978 35.4077 131.899 35.312C131.819 35.2132 131.779 35.0953 131.779 34.9583Z" fill="#727272"/>
<path d="M130.751 36.3304V37.0093H128.337V36.3304H130.751ZM129.126 35.0732H129.972V40.2218C129.972 40.3971 129.993 40.5293 130.034 40.6185C130.079 40.7078 130.135 40.7667 130.202 40.7954C130.268 40.8241 130.34 40.8384 130.417 40.8384C130.474 40.8384 130.538 40.8321 130.608 40.8193C130.678 40.8034 130.726 40.7906 130.751 40.7811L130.747 41.5029C130.689 41.5252 130.613 41.546 130.517 41.5651C130.421 41.5874 130.3 41.5985 130.154 41.5985C129.972 41.5985 129.803 41.5555 129.647 41.4695C129.491 41.3834 129.365 41.24 129.269 41.0392C129.174 40.8353 129.126 40.5612 129.126 40.217V35.0732Z" fill="#727272"/>
<path d="M126.745 40.3079V36.3305H127.591V41.503H126.788L126.745 40.3079ZM126.903 39.2179L127.238 39.2084C127.238 39.5526 127.207 39.8713 127.147 40.1645C127.089 40.4545 126.994 40.7062 126.86 40.9198C126.729 41.1333 126.556 41.3006 126.339 41.4217C126.122 41.5396 125.856 41.5986 125.541 41.5986C125.327 41.5986 125.133 41.562 124.957 41.4887C124.785 41.4154 124.636 41.3022 124.508 41.1492C124.384 40.9963 124.287 40.7971 124.216 40.5517C124.149 40.3063 124.116 40.0115 124.116 39.6673V36.3305H124.957V39.6768C124.957 39.9095 124.978 40.1023 125.02 40.2553C125.061 40.4051 125.117 40.5246 125.187 40.6138C125.257 40.6999 125.335 40.7604 125.421 40.7955C125.507 40.8305 125.595 40.8481 125.684 40.8481C125.984 40.8481 126.223 40.7764 126.401 40.6329C126.58 40.4863 126.707 40.2903 126.784 40.0449C126.863 39.7964 126.903 39.5207 126.903 39.2179Z" fill="#727272"/>
<path d="M122.792 34.16V41.5028H121.951V34.16H122.792Z" fill="#727272"/>
<path d="M116.792 39.1651V38.6728C116.792 38.2712 116.843 37.919 116.945 37.6163C117.047 37.3103 117.189 37.0554 117.371 36.8514C117.552 36.6474 117.764 36.4945 118.007 36.3925C118.249 36.2873 118.508 36.2347 118.786 36.2347C119.069 36.2347 119.332 36.2873 119.575 36.3925C119.817 36.4945 120.029 36.6474 120.21 36.8514C120.395 37.0554 120.539 37.3103 120.641 37.6163C120.743 37.919 120.794 38.2712 120.794 38.6728V39.1651C120.794 39.5667 120.743 39.9205 120.641 40.2264C120.539 40.5292 120.397 40.7825 120.215 40.9865C120.033 41.1905 119.822 41.3435 119.579 41.4454C119.337 41.5474 119.076 41.5984 118.795 41.5984C118.515 41.5984 118.254 41.5474 118.011 41.4454C117.769 41.3435 117.556 41.1905 117.371 40.9865C117.189 40.7825 117.047 40.5292 116.945 40.2264C116.843 39.9205 116.792 39.5667 116.792 39.1651ZM117.638 38.6728V39.1651C117.638 39.4488 117.667 39.6974 117.724 39.9109C117.782 40.1244 117.863 40.3029 117.968 40.4463C118.073 40.5897 118.196 40.6981 118.336 40.7714C118.477 40.8415 118.63 40.8766 118.795 40.8766C118.987 40.8766 119.154 40.8415 119.297 40.7714C119.444 40.6981 119.565 40.5897 119.661 40.4463C119.756 40.3029 119.828 40.1244 119.876 39.9109C119.923 39.6974 119.947 39.4488 119.947 39.1651V38.6728C119.947 38.3891 119.919 38.1421 119.861 37.9318C119.804 37.7183 119.723 37.5398 119.618 37.3964C119.512 37.2498 119.388 37.1414 119.245 37.0713C119.104 36.998 118.951 36.9613 118.786 36.9613C118.623 36.9613 118.472 36.998 118.332 37.0713C118.191 37.1414 118.069 37.2498 117.963 37.3964C117.862 37.5398 117.782 37.7183 117.724 37.9318C117.667 38.1421 117.638 38.3891 117.638 38.6728Z" fill="#727272"/>
<path d="M115.014 40.1786C115.014 40.0479 114.982 39.9332 114.918 39.8344C114.855 39.7356 114.75 39.64 114.603 39.5476C114.46 39.4552 114.265 39.3564 114.02 39.2512C113.781 39.1524 113.566 39.0552 113.374 38.9596C113.186 38.8608 113.027 38.754 112.896 38.6393C112.766 38.5246 112.665 38.3923 112.595 38.2425C112.528 38.0895 112.495 37.9095 112.495 37.7023C112.495 37.4952 112.533 37.3039 112.609 37.1287C112.689 36.9502 112.801 36.794 112.944 36.6602C113.088 36.5263 113.26 36.4227 113.46 36.3494C113.661 36.273 113.886 36.2347 114.134 36.2347C114.488 36.2347 114.789 36.3032 115.038 36.4403C115.287 36.5773 115.476 36.7653 115.607 37.0044C115.741 37.2402 115.808 37.5063 115.808 37.8027H114.966C114.966 37.6593 114.934 37.5238 114.871 37.3964C114.807 37.2689 114.713 37.1653 114.589 37.0856C114.464 37.0028 114.313 36.9613 114.134 36.9613C113.946 36.9613 113.793 36.9948 113.676 37.0617C113.558 37.1287 113.472 37.2163 113.417 37.3247C113.366 37.4298 113.341 37.5462 113.341 37.6736C113.341 37.7692 113.354 37.8521 113.379 37.9222C113.408 37.9891 113.456 38.0529 113.523 38.1134C113.589 38.1708 113.68 38.2314 113.795 38.2951C113.913 38.3557 114.063 38.4258 114.244 38.5054C114.595 38.6425 114.89 38.7811 115.129 38.9213C115.368 39.0616 115.549 39.2257 115.674 39.4137C115.798 39.6018 115.86 39.8344 115.86 40.1117C115.86 40.338 115.819 40.5435 115.736 40.7284C115.656 40.91 115.542 41.0662 115.392 41.1969C115.242 41.3275 115.062 41.4279 114.852 41.498C114.644 41.565 114.412 41.5984 114.154 41.5984C113.765 41.5984 113.435 41.5219 113.164 41.369C112.896 41.2128 112.692 41.0104 112.552 40.7618C112.415 40.5101 112.347 40.2408 112.347 39.9539H113.193C113.202 40.1961 113.256 40.3842 113.355 40.518C113.457 40.6519 113.58 40.7443 113.723 40.7953C113.867 40.8463 114.01 40.8718 114.154 40.8718C114.342 40.8718 114.499 40.8447 114.627 40.7905C114.754 40.7331 114.85 40.6519 114.914 40.5467C114.981 40.4415 115.014 40.3188 115.014 40.1786Z" fill="#727272"/>
<path d="M105.166 39.1651V38.6728C105.166 38.2712 105.217 37.919 105.319 37.6163C105.421 37.3103 105.563 37.0554 105.745 36.8514C105.926 36.6474 106.138 36.4945 106.38 36.3925C106.623 36.2873 106.882 36.2347 107.16 36.2347C107.443 36.2347 107.706 36.2873 107.948 36.3925C108.191 36.4945 108.403 36.6474 108.584 36.8514C108.769 37.0554 108.912 37.3103 109.014 37.6163C109.116 37.919 109.167 38.2712 109.167 38.6728V39.1651C109.167 39.5667 109.116 39.9205 109.014 40.2264C108.912 40.5292 108.771 40.7825 108.589 40.9865C108.407 41.1905 108.195 41.3435 107.953 41.4454C107.711 41.5474 107.45 41.5984 107.169 41.5984C106.889 41.5984 106.627 41.5474 106.385 41.4454C106.143 41.3435 105.929 41.1905 105.745 40.9865C105.563 40.7825 105.421 40.5292 105.319 40.2264C105.217 39.9205 105.166 39.5667 105.166 39.1651ZM106.012 38.6728V39.1651C106.012 39.4488 106.041 39.6974 106.098 39.9109C106.156 40.1244 106.237 40.3029 106.342 40.4463C106.447 40.5897 106.57 40.6981 106.71 40.7714C106.85 40.8415 107.003 40.8766 107.169 40.8766C107.36 40.8766 107.528 40.8415 107.671 40.7714C107.818 40.6981 107.939 40.5897 108.034 40.4463C108.13 40.3029 108.202 40.1244 108.25 39.9109C108.297 39.6974 108.321 39.4488 108.321 39.1651V38.6728C108.321 38.3891 108.293 38.1421 108.235 37.9318C108.178 37.7183 108.097 37.5398 107.991 37.3964C107.886 37.2498 107.762 37.1414 107.619 37.0713C107.478 36.998 107.325 36.9613 107.16 36.9613C106.997 36.9613 106.846 36.998 106.705 37.0713C106.565 37.1414 106.443 37.2498 106.337 37.3964C106.235 37.5398 106.156 37.7183 106.098 37.9318C106.041 38.1421 106.012 38.3891 106.012 38.6728Z" fill="#727272"/>
<path d="M104.43 36.3304V37.0093H102.016V36.3304H104.43ZM102.805 35.0732H103.651V40.2218C103.651 40.3971 103.671 40.5293 103.713 40.6185C103.757 40.7078 103.813 40.7667 103.88 40.7954C103.947 40.8241 104.019 40.8384 104.095 40.8384C104.153 40.8384 104.216 40.8321 104.287 40.8193C104.357 40.8034 104.404 40.7906 104.43 40.7811L104.425 41.5029C104.368 41.5252 104.291 41.546 104.196 41.5651C104.1 41.5874 103.979 41.5985 103.832 41.5985C103.651 41.5985 103.482 41.5555 103.326 41.4695C103.17 41.3834 103.044 41.24 102.948 41.0392C102.852 40.8353 102.805 40.5612 102.805 40.217V35.0732Z" fill="#727272"/>
<path d="M98.3396 40.1786C98.3396 40.0479 98.3078 39.9332 98.244 39.8344C98.1803 39.7356 98.0751 39.64 97.9285 39.5476C97.7851 39.4552 97.5907 39.3564 97.3453 39.2512C97.1063 39.1524 96.8911 39.0552 96.6999 38.9596C96.5119 38.8608 96.3525 38.754 96.2219 38.6393C96.0912 38.5246 95.9908 38.3923 95.9207 38.2425C95.8538 38.0895 95.8203 37.9095 95.8203 37.7023C95.8203 37.4952 95.8586 37.3039 95.935 37.1287C96.0147 36.9502 96.1263 36.794 96.2697 36.6602C96.4131 36.5263 96.5852 36.4227 96.786 36.3494C96.9868 36.273 97.2114 36.2347 97.46 36.2347C97.8138 36.2347 98.1149 36.3032 98.3635 36.4403C98.6121 36.5773 98.8017 36.7653 98.9324 37.0044C99.0663 37.2402 99.1332 37.5063 99.1332 37.8027H98.2918C98.2918 37.6593 98.26 37.5238 98.1962 37.3964C98.1325 37.2689 98.0385 37.1653 97.9142 37.0856C97.7899 37.0028 97.6385 36.9613 97.46 36.9613C97.272 36.9613 97.119 36.9948 97.0011 37.0617C96.8832 37.1287 96.7971 37.2163 96.7429 37.3247C96.692 37.4298 96.6665 37.5462 96.6665 37.6736C96.6665 37.7692 96.6792 37.8521 96.7047 37.9222C96.7334 37.9891 96.7812 38.0529 96.8481 38.1134C96.915 38.1708 97.0059 38.2314 97.1206 38.2951C97.2385 38.3557 97.3883 38.4258 97.57 38.5054C97.9205 38.6425 98.2153 38.7811 98.4544 38.9213C98.6934 39.0616 98.875 39.2257 98.9993 39.4137C99.1236 39.6018 99.1858 39.8344 99.1858 40.1117C99.1858 40.338 99.1443 40.5435 99.0615 40.7284C98.9818 40.91 98.8671 41.0662 98.7173 41.1969C98.5675 41.3275 98.3874 41.4279 98.1771 41.498C97.9699 41.565 97.7373 41.5984 97.4791 41.5984C97.0903 41.5984 96.7605 41.5219 96.4896 41.369C96.2219 41.2128 96.0179 41.0104 95.8777 40.7618C95.7406 40.5101 95.6721 40.2408 95.6721 39.9539H96.5183C96.5278 40.1961 96.582 40.3842 96.6808 40.518C96.7828 40.6519 96.9055 40.7443 97.0489 40.7953C97.1923 40.8463 97.3357 40.8718 97.4791 40.8718C97.6672 40.8718 97.8249 40.8447 97.9524 40.7905C98.0799 40.7331 98.1755 40.6519 98.2392 40.5467C98.3062 40.4415 98.3396 40.3188 98.3396 40.1786Z" fill="#727272"/>
<path d="M93.7121 40.3079V36.3305H94.5582V41.503H93.7551L93.7121 40.3079ZM93.8698 39.2179L94.2045 39.2084C94.2045 39.5526 94.1742 39.8713 94.1137 40.1645C94.0563 40.4545 93.9607 40.7062 93.8268 40.9198C93.6962 41.1333 93.5225 41.3006 93.3058 41.4217C93.089 41.5396 92.8229 41.5986 92.5074 41.5986C92.2939 41.5986 92.0995 41.562 91.9242 41.4887C91.7521 41.4154 91.6023 41.3022 91.4748 41.1492C91.3505 40.9963 91.2533 40.7971 91.1832 40.5517C91.1163 40.3063 91.0828 40.0115 91.0828 39.6673V36.3305H91.9242V39.6768C91.9242 39.9095 91.9449 40.1023 91.9863 40.2553C92.0278 40.4051 92.0835 40.5246 92.1537 40.6138C92.2238 40.6999 92.3018 40.7604 92.3879 40.7955C92.4739 40.8305 92.5616 40.8481 92.6508 40.8481C92.9504 40.8481 93.1894 40.7764 93.3679 40.6329C93.5464 40.4863 93.6738 40.2903 93.7503 40.0449C93.83 39.7964 93.8698 39.5207 93.8698 39.2179Z" fill="#727272"/>
<path d="M89.7586 34.16V41.5028H88.9173V34.16H89.7586Z" fill="#727272"/>
<path d="M84.8682 37.3247V43.4915H84.022V36.3303H84.7917L84.8682 37.3247ZM87.7604 38.6823V39.1652C87.7604 39.5731 87.7221 39.93 87.6456 40.236C87.5723 40.5387 87.4624 40.7921 87.3158 40.9961C87.1724 41.1969 86.9955 41.3482 86.7852 41.4502C86.5748 41.549 86.3342 41.5984 86.0633 41.5984C85.7924 41.5984 85.5566 41.5474 85.3558 41.4454C85.1582 41.3403 84.9909 41.1889 84.8538 40.9913C84.72 40.7937 84.6132 40.5563 84.5335 40.279C84.4571 39.9985 84.4045 39.6846 84.3758 39.3372V38.6011C84.4045 38.2345 84.4571 37.9063 84.5335 37.6163C84.61 37.3231 84.7152 37.0745 84.8491 36.8705C84.9861 36.6634 85.1534 36.5056 85.351 36.3972C85.5518 36.2889 85.786 36.2347 86.0537 36.2347C86.331 36.2347 86.5748 36.2825 86.7852 36.3781C86.9987 36.4737 87.1772 36.6219 87.3206 36.8227C87.4672 37.0203 87.5771 37.2737 87.6504 37.5828C87.7237 37.8888 87.7604 38.2553 87.7604 38.6823ZM86.9142 39.1652V38.6823C86.9142 38.3955 86.8919 38.1453 86.8473 37.9318C86.8059 37.7183 86.7389 37.5414 86.6465 37.4011C86.5541 37.2609 86.4378 37.1558 86.2975 37.0856C86.1573 37.0155 85.9884 36.9805 85.7908 36.9805C85.6219 36.9805 85.4721 37.0155 85.3414 37.0856C85.214 37.1558 85.104 37.2514 85.0116 37.3725C84.9192 37.4904 84.8427 37.6258 84.7821 37.7788C84.7216 37.9286 84.677 38.0848 84.6483 38.2473V39.6958C84.7025 39.8998 84.7742 40.0926 84.8634 40.2742C84.9526 40.4527 85.0721 40.5977 85.2219 40.7092C85.3749 40.8208 85.5677 40.8766 85.8004 40.8766C85.9948 40.8766 86.1621 40.8415 86.3023 40.7714C86.4426 40.7013 86.5573 40.5961 86.6465 40.4559C86.7389 40.3125 86.8059 40.134 86.8473 39.9205C86.8919 39.7038 86.9142 39.452 86.9142 39.1652Z" fill="#727272"/>
<path d="M81.8852 37.143V41.5028H81.039V36.3303H81.8565L81.8852 37.143ZM83.1711 36.3016L83.1759 37.1239C83.1058 37.1079 83.0421 37.0984 82.9847 37.0952C82.9305 37.0888 82.8668 37.0856 82.7935 37.0856C82.6341 37.0856 82.4939 37.1175 82.3728 37.1812C82.2549 37.245 82.1529 37.3342 82.0668 37.449C81.9808 37.5637 81.9123 37.7007 81.8613 37.8601C81.8103 38.0162 81.7752 38.1883 81.7561 38.3764L81.5362 38.5198C81.5362 38.2075 81.5601 37.9143 81.6079 37.6402C81.6589 37.3661 81.737 37.1239 81.8422 36.9135C81.9473 36.7 82.0812 36.5343 82.2437 36.4164C82.4094 36.2953 82.607 36.2347 82.8365 36.2347C82.8875 36.2347 82.9496 36.2427 83.0229 36.2586C83.0994 36.2714 83.1488 36.2857 83.1711 36.3016Z" fill="#727272"/>
<path d="M78.9213 40.3079V36.3305H79.7674V41.503H78.9643L78.9213 40.3079ZM79.079 39.2179L79.4137 39.2084C79.4137 39.5526 79.3834 39.8713 79.3228 40.1645C79.2655 40.4545 79.1698 40.7062 79.036 40.9198C78.9053 41.1333 78.7316 41.3006 78.5149 41.4217C78.2982 41.5396 78.0321 41.5986 77.7166 41.5986C77.503 41.5986 77.3086 41.562 77.1334 41.4887C76.9613 41.4154 76.8115 41.3022 76.684 41.1492C76.5597 40.9963 76.4625 40.7971 76.3924 40.5517C76.3255 40.3063 76.292 40.0115 76.292 39.6673V36.3305H77.1334V39.6768C77.1334 39.9095 77.1541 40.1023 77.1955 40.2553C77.2369 40.4051 77.2927 40.5246 77.3628 40.6138C77.4329 40.6999 77.511 40.7604 77.5971 40.7955C77.6831 40.8305 77.7708 40.8481 77.86 40.8481C78.1596 40.8481 78.3986 40.7764 78.5771 40.6329C78.7555 40.4863 78.883 40.2903 78.9595 40.0449C79.0392 39.7964 79.079 39.5207 79.079 39.2179Z" fill="#727272"/>
<path d="M74.3894 39.7436C74.3894 39.581 74.3702 39.4376 74.332 39.3133C74.2938 39.1858 74.2268 39.0711 74.1312 38.9691C74.0356 38.8671 73.9018 38.7699 73.7297 38.6775C73.5576 38.5851 73.3393 38.4911 73.0747 38.3955C72.7879 38.2935 72.5282 38.1803 72.2955 38.056C72.0629 37.9286 71.8637 37.7836 71.698 37.621C71.5354 37.4585 71.4095 37.272 71.3203 37.0617C71.2311 36.8514 71.1864 36.6107 71.1864 36.3399C71.1864 36.069 71.2327 35.8188 71.3251 35.5893C71.4207 35.3599 71.5545 35.1607 71.7266 34.9918C71.9019 34.8197 72.1123 34.6858 72.3577 34.5902C72.6031 34.4946 72.8771 34.4468 73.1799 34.4468C73.6325 34.4468 74.0133 34.5472 74.3224 34.7479C74.6348 34.9455 74.8706 35.2053 75.03 35.5272C75.1893 35.8459 75.269 36.1869 75.269 36.5502H74.3894C74.3894 36.2889 74.3463 36.0578 74.2603 35.857C74.1774 35.6531 74.0468 35.4937 73.8683 35.379C73.693 35.2611 73.4635 35.2021 73.1799 35.2021C72.9249 35.2021 72.7146 35.2515 72.5489 35.3503C72.3863 35.4491 72.2652 35.5829 72.1856 35.7519C72.1091 35.9208 72.0708 36.1136 72.0708 36.3303C72.0708 36.4769 72.0963 36.6107 72.1473 36.7319C72.1983 36.8498 72.2764 36.9597 72.3816 37.0617C72.4899 37.1637 72.6238 37.2577 72.7831 37.3438C72.9457 37.4298 73.1369 37.5127 73.3568 37.5923C73.6978 37.7039 73.9894 37.8282 74.2316 37.9652C74.4738 38.1023 74.6714 38.2568 74.8244 38.4289C74.9774 38.5978 75.0889 38.7906 75.159 39.0074C75.2323 39.2209 75.269 39.4631 75.269 39.734C75.269 40.0176 75.2212 40.2742 75.1256 40.5037C75.0331 40.7331 74.8977 40.9291 74.7192 41.0917C74.5407 41.2542 74.3256 41.3801 74.0739 41.4693C73.8221 41.5554 73.5384 41.5984 73.2229 41.5984C72.9488 41.5984 72.6795 41.5538 72.415 41.4645C72.1537 41.3753 71.9163 41.2414 71.7027 41.063C71.4892 40.8845 71.3187 40.6646 71.1912 40.4033C71.0637 40.1387 71 39.8328 71 39.4854H71.8796C71.8796 39.7244 71.9147 39.93 71.9848 40.1021C72.0549 40.271 72.1521 40.4112 72.2764 40.5228C72.4007 40.6343 72.5425 40.7172 72.7019 40.7714C72.8644 40.8224 73.0381 40.8479 73.2229 40.8479C73.4779 40.8479 73.6914 40.8032 73.8635 40.714C74.0388 40.6248 74.1695 40.4973 74.2555 40.3316C74.3447 40.1658 74.3894 39.9698 74.3894 39.7436Z" fill="#727272"/>
<path fill-rule="evenodd" clip-rule="evenodd" d="M27.3888 45.4521L12.015 45.9731L3.88065 32.8518L11.1173 19.2106L26.4916 18.6912L27.8926 20.9525L34.6255 31.8156L27.3888 45.4521ZM35.0764 4.20374L50.4502 3.68438L58.5879 16.8044L51.3474 30.445L35.9774 30.9663L27.8391 17.8436L35.0764 4.20374ZM60.4204 16.7417L51.3138 2.05479L34.1074 2.63681L26.4387 17.0928L11.0583 17.6123L5.31915 8.54798L3.97719 9.40588L9.7141 18.4633L2.04813 32.9145L11.1515 47.6027L28.3583 47.0191L36.0298 32.5649L51.5162 32.0385L57.1555 40.9399L58.4974 40.0818L52.8052 31.0947L60.4204 16.7417Z" fill="#224A5B"/>
<path fill-rule="evenodd" clip-rule="evenodd" d="M6.82737 6.84915C6.82737 8.55246 5.45311 9.9315 3.75515 9.9315C2.05769 9.9315 0.682922 8.55246 0.682922 6.84915C0.682922 5.14642 2.05769 3.76712 3.75515 3.76712C5.45311 3.76712 6.82737 5.14642 6.82737 6.84915Z" fill="#F15A29"/>
<path fill-rule="evenodd" clip-rule="evenodd" d="M37.8908 3.42463C37.8908 5.12729 36.5156 6.50685 34.8188 6.50685C33.121 6.50685 31.7463 5.12729 31.7463 3.42463C31.7463 1.72165 33.121 0.342468 34.8188 0.342468C36.5156 0.342468 37.8908 1.72165 37.8908 3.42463Z" fill="#FFB100"/>
<path fill-rule="evenodd" clip-rule="evenodd" d="M62.4685 42.8082C62.4685 44.5112 61.0937 45.8904 59.3963 45.8904C57.6994 45.8904 56.3241 44.5112 56.3241 42.8082C56.3241 41.1056 57.6994 39.726 59.3963 39.726C61.0937 39.726 62.4685 41.1056 62.4685 42.8082Z" fill="#FA921D"/>
<path fill-rule="evenodd" clip-rule="evenodd" d="M51.2044 0C49.5063 0 48.1315 1.37922 48.1315 3.0821C48.1315 4.78491 49.5063 6.16438 51.2044 6.16438C52.9012 6.16438 54.276 4.78491 54.276 3.0821C54.276 1.37922 52.9012 0 51.2044 0Z" fill="#61BC09"/>
<path fill-rule="evenodd" clip-rule="evenodd" d="M56.6655 16.7806C56.6655 18.4833 58.0404 19.863 59.738 19.863C61.435 19.863 62.8099 18.4833 62.8099 16.7806C62.8099 15.0779 61.435 13.6986 59.738 13.6986C58.0404 13.6986 56.6655 15.0779 56.6655 16.7806Z" fill="#224A5B"/>
<path fill-rule="evenodd" clip-rule="evenodd" d="M23.8951 17.8083C23.8951 19.5108 25.2694 20.8904 26.9676 20.8904C28.6657 20.8904 30.0395 19.5108 30.0395 17.8083C30.0395 16.1052 28.6657 14.726 26.9676 14.726C25.2694 14.726 23.8951 16.1052 23.8951 17.8083Z" fill="#F15A29"/>
<path fill-rule="evenodd" clip-rule="evenodd" d="M24.9192 46.2329C24.9192 47.9355 26.2934 49.3151 27.9914 49.3151C29.6883 49.3151 31.0636 47.9355 31.0636 46.2329C31.0636 44.5303 29.6883 43.1507 27.9914 43.1507C26.2934 43.1507 24.9192 44.5303 24.9192 46.2329Z" fill="#F15A29"/>
<path fill-rule="evenodd" clip-rule="evenodd" d="M8.53397 46.918C8.53397 48.6208 9.90839 50 11.6065 50C13.3029 50 14.6784 48.6208 14.6784 46.918C14.6784 45.2151 13.3029 43.8356 11.6065 43.8356C9.90839 43.8356 8.53397 45.2151 8.53397 46.918Z" fill="#224A5B"/>
<path fill-rule="evenodd" clip-rule="evenodd" d="M0 32.8767C0 34.5795 1.37528 35.9589 3.07251 35.9589C4.76974 35.9589 6.14445 34.5795 6.14445 32.8767C6.14445 31.1742 4.76974 29.7945 3.07251 29.7945C1.37528 29.7945 0 31.1742 0 32.8767Z" fill="#61BC09"/>
<path fill-rule="evenodd" clip-rule="evenodd" d="M7.85123 18.4934C7.85123 20.1963 9.22606 21.5753 10.9235 21.5753C12.6208 21.5753 13.9957 20.1963 13.9957 18.4934C13.9957 16.7902 12.6208 15.4109 10.9235 15.4109C9.22606 15.4109 7.85123 16.7902 7.85123 18.4934Z" fill="#224A5B"/>
<path fill-rule="evenodd" clip-rule="evenodd" d="M48.8142 31.1647C48.8142 32.8668 50.1899 34.2466 51.8864 34.2466C53.583 34.2466 54.9587 32.8668 54.9587 31.1647C54.9587 29.4617 53.583 28.0822 51.8864 28.0822C50.1899 28.0822 48.8142 29.4617 48.8142 31.1647Z" fill="#F15A29"/>
<path fill-rule="evenodd" clip-rule="evenodd" d="M32.7704 31.8492C32.7704 33.5523 34.1456 34.9315 35.8423 34.9315C37.5401 34.9315 38.9148 33.5523 38.9148 31.8492C38.9148 30.1466 37.5401 28.7672 35.8423 28.7672C34.1456 28.7672 32.7704 30.1466 32.7704 31.8492Z" fill="#61BC09"/>
</svg>
