<svg width="40" height="40" viewBox="0 0 40 40" fill="none" xmlns="http://www.w3.org/2000/svg">
<g id="Phone">
<rect id="Rectangle 3" width="40" height="40" rx="20" fill="#61BC09"/>
<g id="Group">
<g id="Group_2">
<path id="Vector" d="M26.9501 22.8671C26.4588 22.3555 25.8661 22.082 25.238 22.082C24.615 22.082 24.0173 22.3505 23.5057 22.8621L21.905 24.4577C21.7733 24.3867 21.6416 24.3209 21.515 24.255C21.3326 24.1639 21.1604 24.0778 21.0135 23.9866C19.5142 23.0343 18.1516 21.7933 16.8447 20.1876C16.2115 19.3872 15.786 18.7135 15.4771 18.0297C15.8924 17.6498 16.2774 17.2547 16.6522 16.8748C16.7941 16.733 16.9359 16.5861 17.0777 16.4443C18.1414 15.3805 18.1414 14.0027 17.0777 12.939L15.6949 11.5562C15.5378 11.3991 15.3758 11.2371 15.2238 11.075C14.9199 10.7609 14.6008 10.4367 14.2715 10.1328C13.7802 9.64653 13.1926 9.3882 12.5746 9.3882C11.9566 9.3882 11.3589 9.64653 10.8524 10.1328C10.8473 10.1379 10.8473 10.1379 10.8423 10.1429L9.12003 11.8804C8.47166 12.5287 8.10189 13.3189 8.02084 14.2358C7.89927 15.7148 8.3349 17.0926 8.66921 17.9943C9.4898 20.2078 10.7156 22.2593 12.5442 24.4577C14.7628 27.1068 17.4323 29.1988 20.4816 30.6729C21.6467 31.225 23.2017 31.8784 24.9392 31.9899C25.0455 31.9949 25.157 32 25.2583 32C26.4284 32 27.4111 31.5796 28.181 30.7438C28.1861 30.7337 28.1962 30.7286 28.2013 30.7185C28.4647 30.3993 28.7686 30.1106 29.0877 29.8016C29.3055 29.5939 29.5284 29.3761 29.7462 29.1482C30.2477 28.6265 30.5111 28.0186 30.5111 27.3956C30.5111 26.7675 30.2426 26.1647 29.731 25.6582L26.9501 22.8671ZM28.7635 28.201C28.7585 28.201 28.7585 28.206 28.7635 28.201C28.566 28.4137 28.3634 28.6062 28.1455 28.8189C27.8163 29.133 27.482 29.4622 27.1679 29.832C26.6563 30.3791 26.0535 30.6374 25.2633 30.6374C25.1874 30.6374 25.1063 30.6374 25.0303 30.6323C23.5259 30.5361 22.1279 29.9485 21.0794 29.4471C18.2124 28.0591 15.6949 26.0887 13.6029 23.5915C11.8756 21.5096 10.7207 19.5848 9.95581 17.5181C9.48473 16.2568 9.31251 15.2742 9.38849 14.3472C9.43915 13.7545 9.66709 13.2632 10.0875 12.8428L11.8148 11.1155C12.063 10.8825 12.3264 10.7558 12.5847 10.7558C12.9039 10.7558 13.1622 10.9483 13.3243 11.1104C13.3293 11.1155 13.3344 11.1206 13.3395 11.1256C13.6485 11.4143 13.9423 11.7132 14.2512 12.0323C14.4083 12.1944 14.5704 12.3565 14.7325 12.5237L16.1153 13.9065C16.6522 14.4434 16.6522 14.9398 16.1153 15.4768C15.9684 15.6237 15.8266 15.7706 15.6797 15.9124C15.2542 16.348 14.849 16.7532 14.4083 17.1483C14.3981 17.1585 14.388 17.1635 14.3829 17.1737C13.9473 17.6093 14.0284 18.0348 14.1195 18.3235C14.1246 18.3387 14.1297 18.3539 14.1347 18.3691C14.4944 19.2403 15.0009 20.0609 15.7709 21.0385L15.7759 21.0436C17.174 22.7658 18.648 24.1082 20.274 25.1364C20.4816 25.2681 20.6944 25.3745 20.897 25.4758C21.0794 25.567 21.2516 25.6531 21.3985 25.7443C21.4187 25.7544 21.439 25.7696 21.4593 25.7797C21.6315 25.8658 21.7936 25.9064 21.9607 25.9064C22.3812 25.9064 22.6446 25.643 22.7307 25.5568L24.463 23.8245C24.6352 23.6523 24.9088 23.4446 25.2279 23.4446C25.5419 23.4446 25.8003 23.6421 25.9573 23.8144C25.9624 23.8194 25.9624 23.8194 25.9674 23.8245L28.7585 26.6155C29.2802 27.1322 29.2802 27.664 28.7635 28.201Z" fill="white"/>
<path id="Vector_2" d="M20.9526 13.709C22.2798 13.9318 23.4853 14.5599 24.4477 15.5224C25.4102 16.4848 26.0332 17.6903 26.2611 19.0175C26.3169 19.3518 26.6056 19.5848 26.9348 19.5848C26.9754 19.5848 27.0108 19.5797 27.0513 19.5747C27.4262 19.5139 27.6744 19.1593 27.6136 18.7845C27.3401 17.1787 26.5803 15.7148 25.4203 14.5549C24.2603 13.3949 22.7964 12.6351 21.1907 12.3616C20.8159 12.3008 20.4664 12.549 20.4005 12.9188C20.3347 13.2885 20.5778 13.6482 20.9526 13.709Z" fill="white"/>
<path id="Vector_3" d="M31.9548 18.5869C31.5039 15.9428 30.2579 13.5367 28.3431 11.622C26.4284 9.70732 24.0224 8.46124 21.3783 8.01043C21.0085 7.94458 20.659 8.19784 20.5931 8.56762C20.5323 8.94245 20.7806 9.29196 21.1554 9.35781C23.5159 9.75798 25.6686 10.8774 27.3807 12.5845C29.0928 14.2965 30.2072 16.4493 30.6074 18.8098C30.6631 19.1441 30.9518 19.3771 31.2811 19.3771C31.3216 19.3771 31.357 19.372 31.3976 19.367C31.7673 19.3113 32.0206 18.9567 31.9548 18.5869Z" fill="white"/>
</g>
</g>
</g>
</svg>
