<svg width="48" height="48" viewBox="0 0 48 48" fill="none" xmlns="http://www.w3.org/2000/svg">
<g filter="url(#filter0_d_75_2400)">
<rect x="4" width="40" height="40" rx="20" fill="#61BC09"/>
<path d="M30.9501 22.8671C30.4588 22.3555 29.8661 22.082 29.238 22.082C28.615 22.082 28.0173 22.3505 27.5057 22.8621L25.905 24.4577C25.7733 24.3867 25.6416 24.3209 25.515 24.255C25.3326 24.1639 25.1604 24.0778 25.0135 23.9866C23.5142 23.0343 22.1516 21.7933 20.8447 20.1876C20.2115 19.3872 19.786 18.7135 19.4771 18.0297C19.8924 17.6498 20.2774 17.2547 20.6522 16.8748C20.7941 16.733 20.9359 16.5861 21.0777 16.4443C22.1414 15.3805 22.1414 14.0027 21.0777 12.939L19.6949 11.5562C19.5378 11.3991 19.3758 11.2371 19.2238 11.075C18.9199 10.7609 18.6008 10.4367 18.2715 10.1328C17.7802 9.64653 17.1926 9.3882 16.5746 9.3882C15.9566 9.3882 15.3589 9.64653 14.8524 10.1328C14.8473 10.1379 14.8473 10.1379 14.8423 10.1429L13.12 11.8804C12.4717 12.5287 12.1019 13.3189 12.0208 14.2358C11.8993 15.7148 12.3349 17.0926 12.6692 17.9943C13.4898 20.2078 14.7156 22.2593 16.5442 24.4577C18.7628 27.1068 21.4323 29.1988 24.4816 30.6729C25.6467 31.225 27.2017 31.8784 28.9392 31.9899C29.0455 31.9949 29.157 32 29.2583 32C30.4284 32 31.4111 31.5796 32.181 30.7438C32.1861 30.7337 32.1962 30.7286 32.2013 30.7185C32.4647 30.3993 32.7686 30.1106 33.0877 29.8016C33.3055 29.5939 33.5284 29.3761 33.7462 29.1482C34.2477 28.6265 34.5111 28.0186 34.5111 27.3956C34.5111 26.7675 34.2426 26.1647 33.731 25.6582L30.9501 22.8671ZM32.7635 28.201C32.7585 28.201 32.7585 28.206 32.7635 28.201C32.566 28.4137 32.3634 28.6062 32.1455 28.8189C31.8163 29.133 31.482 29.4622 31.1679 29.832C30.6563 30.3791 30.0535 30.6374 29.2633 30.6374C29.1874 30.6374 29.1063 30.6374 29.0303 30.6323C27.5259 30.5361 26.1279 29.9485 25.0794 29.4471C22.2124 28.0591 19.6949 26.0887 17.6029 23.5915C15.8756 21.5096 14.7207 19.5848 13.9558 17.5181C13.4847 16.2568 13.3125 15.2742 13.3885 14.3472C13.4391 13.7545 13.6671 13.2632 14.0875 12.8428L15.8148 11.1155C16.063 10.8825 16.3264 10.7558 16.5847 10.7558C16.9039 10.7558 17.1622 10.9483 17.3243 11.1104C17.3293 11.1155 17.3344 11.1206 17.3395 11.1256C17.6485 11.4143 17.9423 11.7132 18.2512 12.0323C18.4083 12.1944 18.5704 12.3565 18.7325 12.5237L20.1153 13.9065C20.6522 14.4434 20.6522 14.9398 20.1153 15.4768C19.9684 15.6237 19.8266 15.7706 19.6797 15.9124C19.2542 16.348 18.849 16.7532 18.4083 17.1483C18.3981 17.1585 18.388 17.1635 18.3829 17.1737C17.9473 17.6093 18.0284 18.0348 18.1195 18.3235C18.1246 18.3387 18.1297 18.3539 18.1347 18.3691C18.4944 19.2403 19.0009 20.0609 19.7709 21.0385L19.7759 21.0436C21.174 22.7658 22.648 24.1082 24.274 25.1364C24.4816 25.2681 24.6944 25.3745 24.897 25.4758C25.0794 25.567 25.2516 25.6531 25.3985 25.7443C25.4187 25.7544 25.439 25.7696 25.4593 25.7797C25.6315 25.8658 25.7936 25.9064 25.9607 25.9064C26.3812 25.9064 26.6446 25.643 26.7307 25.5568L28.463 23.8245C28.6352 23.6523 28.9088 23.4446 29.2279 23.4446C29.5419 23.4446 29.8003 23.6421 29.9573 23.8144C29.9624 23.8194 29.9624 23.8194 29.9674 23.8245L32.7585 26.6155C33.2802 27.1322 33.2802 27.664 32.7635 28.201Z" fill="white"/>
<path d="M24.9526 13.709C26.2798 13.9318 27.4853 14.5599 28.4477 15.5224C29.4102 16.4848 30.0332 17.6903 30.2611 19.0175C30.3169 19.3518 30.6056 19.5848 30.9348 19.5848C30.9754 19.5848 31.0108 19.5797 31.0513 19.5747C31.4262 19.5139 31.6744 19.1593 31.6136 18.7845C31.3401 17.1787 30.5803 15.7148 29.4203 14.5549C28.2603 13.3949 26.7964 12.6351 25.1907 12.3616C24.8159 12.3008 24.4664 12.549 24.4005 12.9188C24.3347 13.2885 24.5778 13.6482 24.9526 13.709Z" fill="white"/>
<path d="M35.9548 18.5869C35.5039 15.9428 34.2579 13.5367 32.3431 11.622C30.4284 9.70732 28.0224 8.46124 25.3783 8.01043C25.0085 7.94458 24.659 8.19784 24.5931 8.56762C24.5323 8.94245 24.7806 9.29196 25.1554 9.35781C27.5159 9.75798 29.6686 10.8774 31.3807 12.5845C33.0928 14.2965 34.2072 16.4493 34.6074 18.8098C34.6631 19.1441 34.9518 19.3771 35.2811 19.3771C35.3216 19.3771 35.357 19.372 35.3976 19.367C35.7673 19.3113 36.0206 18.9567 35.9548 18.5869Z" fill="white"/>
</g>
<defs>
<filter id="filter0_d_75_2400" x="0" y="0" width="48" height="48" filterUnits="userSpaceOnUse" color-interpolation-filters="sRGB">
<feFlood flood-opacity="0" result="BackgroundImageFix"/>
<feColorMatrix in="SourceAlpha" type="matrix" values="0 0 0 0 0 0 0 0 0 0 0 0 0 0 0 0 0 0 127 0" result="hardAlpha"/>
<feOffset dy="4"/>
<feGaussianBlur stdDeviation="2"/>
<feComposite in2="hardAlpha" operator="out"/>
<feColorMatrix type="matrix" values="0 0 0 0 0 0 0 0 0 0 0 0 0 0 0 0 0 0 0.25 0"/>
<feBlend mode="normal" in2="BackgroundImageFix" result="effect1_dropShadow_75_2400"/>
<feBlend mode="normal" in="SourceGraphic" in2="effect1_dropShadow_75_2400" result="shape"/>
</filter>
</defs>
</svg>
