<svg width="24" height="24" viewBox="0 0 24 24" fill="none" xmlns="http://www.w3.org/2000/svg">
<g opacity="0.5">
<path d="M21.1522 16.6199C24.9491 12.8229 24.949 6.64473 21.1522 2.84774C17.3552 -0.949248 11.1771 -0.949248 7.38015 2.84774C4.15892 6.06897 3.67107 10.8598 5.91528 14.6009C5.91528 14.6009 6.07648 14.8713 5.85876 15.0889C4.6167 16.3308 0.8903 20.0573 0.8903 20.0573C-0.0986289 21.0462 -0.334051 22.4289 0.542926 23.3061L0.693922 23.4569C1.5709 24.3341 2.95375 24.0987 3.9426 23.1098C3.9426 23.1098 7.66111 19.3912 8.90062 18.1518C9.12877 17.9236 9.39914 18.0848 9.39914 18.0848C13.1402 20.3289 17.931 19.8412 21.1522 16.6199ZM9.17802 14.822C6.37244 12.0164 6.37251 7.45143 9.1781 4.64585C11.9837 1.84034 16.5486 1.84026 19.3542 4.64585C22.1597 7.45136 22.1597 12.0164 19.3542 14.822C16.5486 17.6274 11.9837 17.6274 9.17802 14.822Z" fill="black"/>
<path d="M9.79955 9.1559C9.66897 9.1559 9.53622 9.13023 9.40826 9.07619C8.89714 8.85986 8.658 8.27011 8.87433 7.7589C10.234 4.54579 13.9541 3.03793 17.1672 4.39758C17.6783 4.61391 17.9174 5.20366 17.7011 5.71486C17.4847 6.22607 16.8951 6.46505 16.3837 6.2488C14.1916 5.32118 11.6532 6.35 10.7256 8.54218C10.5633 8.92558 10.1911 9.1559 9.79955 9.1559Z" fill="black"/>
</g>
</svg>
