<svg width="20" height="20" viewBox="0 0 20 20" fill="none" xmlns="http://www.w3.org/2000/svg">
<g clip-path="url(#clip0_75_2266)">
<path d="M14.75 6.49992C14.3831 6.71734 13.9819 6.87101 13.5636 6.95445C13.2082 6.58163 12.7151 6.37124 12.2 6.37261C11.1853 6.36499 10.3538 7.17617 10.3364 8.19078C10.3368 8.33164 10.3536 8.47199 10.3864 8.60898C8.89192 8.53843 7.49618 7.84222 6.54091 6.69081C6.37751 6.96617 6.2897 7.27976 6.28638 7.59992C6.28641 8.21722 6.59966 8.7923 7.11821 9.12718C6.82208 9.11753 6.53239 9.03812 6.27274 8.89535C6.27274 8.89535 6.27274 8.89535 6.27274 8.91808C6.26977 9.80468 6.89766 10.5681 7.76821 10.7362C7.4938 10.8094 7.20645 10.8203 6.92731 10.7681C7.17829 11.5191 7.87645 12.0295 8.66821 12.0408C8.00907 12.5534 7.19864 12.8331 6.36368 12.8363C6.21177 12.8361 6.05997 12.827 5.90915 12.809C6.76454 13.3501 7.75606 13.637 8.76825 13.6363C11.6547 13.689 14.0374 11.3918 14.0901 8.50535C14.0907 8.47476 14.091 8.44417 14.091 8.41355C14.091 8.33476 14.091 8.25597 14.091 8.17718C14.4472 7.91609 14.7549 7.59456 15.0001 7.22718C14.6588 7.3766 14.2974 7.4746 13.9274 7.51808C14.3165 7.29031 14.609 6.92824 14.75 6.49992Z" fill="#888888"/>
<path d="M10 0C4.47715 0 0 4.47715 0 10C0 15.5229 4.47715 20 10 20C15.5229 20 20 15.5229 20 10C20 4.47715 15.5229 0 10 0ZM10 19.0909C4.97922 19.0909 0.909102 15.0208 0.909102 10C0.909102 4.97922 4.97922 0.909102 10 0.909102C15.0208 0.909102 19.0909 4.97922 19.0909 10C19.0909 15.0208 15.0208 19.0909 10 19.0909Z" fill="#888888"/>
</g>
<defs>
<clipPath id="clip0_75_2266">
<rect width="20" height="20" fill="white"/>
</clipPath>
</defs>
</svg>
