<svg width="20" height="20" viewBox="0 0 20 20" fill="none" xmlns="http://www.w3.org/2000/svg">
<path d="M10 0C4.47715 0 0 4.47715 0 10C0 15.5229 4.47715 20 10 20C15.5229 20 20 15.5229 20 10C20 4.47715 15.5229 0 10 0ZM10 19.0909C4.97922 19.0909 0.909102 15.0208 0.909102 10C0.909102 4.97922 4.97922 0.909102 10 0.909102C15.0208 0.909102 19.0909 4.97922 19.0909 10C19.0909 15.0208 15.0208 19.0909 10 19.0909Z" fill="#888888"/>
<path d="M13.8352 7.87647C13.743 7.53374 13.4728 7.26357 13.1301 7.17129C12.5041 7 9.99991 7 9.99991 7C9.99991 7 7.49585 7 6.86983 7.1648C6.53374 7.25698 6.25693 7.53379 6.16475 7.87647C6 8.50244 6 9.80064 6 9.80064C6 9.80064 6 11.1054 6.16475 11.7248C6.25703 12.0675 6.52715 12.3377 6.86987 12.4299C7.50244 12.6013 10 12.6013 10 12.6013C10 12.6013 12.5041 12.6013 13.1301 12.4365C13.4728 12.3442 13.743 12.0741 13.8353 11.7314C14 11.1054 14 9.80723 14 9.80723C14 9.80723 14.0066 8.50244 13.8352 7.87647ZM9.20264 11V8.60132L11.285 9.80064L9.20264 11Z" fill="#888888"/>
</svg>
